ply
format ascii 1.0
comment Created by Blender 2.76 (sub 0) - www.blender.org, source file: 'blue_pawn.blend'
element vertex 351
property float x
property float y
property float z
property float nx
property float ny
property float nz
property uchar red
property uchar green
property uchar blue
element face 140
property list uchar uint vertex_indices
end_header
-0.000000 -0.189045 -0.780857 -0.500000 0.000000 0.866025 255 243 192
0.676242 -0.189045 -0.390429 -0.500000 0.000000 0.866025 255 243 192
0.676242 0.201383 -0.390429 -0.500000 0.000000 0.866025 255 243 192
0.676242 -0.189045 -0.390429 -1.000000 -0.000000 -0.000000 255 243 192
0.676242 -0.189045 0.390429 -1.000000 -0.000000 -0.000000 255 243 192
0.676242 0.201383 0.390429 -1.000000 -0.000000 -0.000000 255 243 192
0.676242 -0.189045 0.390429 -0.500000 -0.000000 -0.866026 255 243 192
-0.000000 -0.189045 0.780857 -0.500000 -0.000000 -0.866026 255 243 192
-0.000000 0.201383 0.780857 -0.500000 -0.000000 -0.866026 255 243 192
-0.000000 -0.189045 0.780857 0.500000 0.000000 -0.866025 255 243 192
-0.676242 -0.189045 0.390429 0.500000 0.000000 -0.866025 255 243 192
-0.676242 0.201383 0.390429 0.500000 0.000000 -0.866025 255 243 192
-0.000000 -0.189045 -0.780857 0.000000 1.000000 0.000000 255 243 192
-0.676242 -0.189045 0.390429 0.000000 1.000000 0.000000 255 243 192
0.676242 -0.189045 0.390429 0.000000 1.000000 0.000000 255 243 192
-0.676242 -0.189045 -0.390429 0.500000 0.000000 0.866025 255 243 192
-0.000000 -0.189045 -0.780857 0.500000 0.000000 0.866025 255 243 192
-0.000000 0.201383 -0.780857 0.500000 0.000000 0.866025 255 243 192
-0.676242 -0.189045 0.390429 1.000000 0.000000 -0.000000 255 243 192
-0.676242 -0.189045 -0.390429 1.000000 0.000000 -0.000000 255 243 192
-0.676242 0.201383 -0.390429 1.000000 0.000000 -0.000000 255 243 192
0.676242 0.201383 -0.390429 0.000000 -1.000000 0.000000 255 243 192
-0.676242 0.201383 0.390429 0.000000 -1.000000 0.000000 255 243 192
-0.676242 0.201383 -0.390429 0.000000 -1.000000 0.000000 180 175 211
-0.000000 0.599659 0.000000 -0.102381 -0.943523 -0.315090 255 255 255
-0.252425 0.688294 -0.183395 -0.102381 -0.943523 -0.315090 255 255 255
0.096416 0.688294 -0.296742 -0.102381 -0.943523 -0.315090 255 255 255
-0.429453 0.927728 -0.312012 -0.700224 -0.661699 -0.268032 0 10 255
-0.252425 0.688294 -0.183395 -0.700224 -0.661699 -0.268032 0 10 255
-0.504851 0.881130 0.000000 -0.700224 -0.661699 -0.268032 0 10 255
-0.000000 0.599659 0.000000 0.268034 -0.943523 -0.194736 255 255 255
0.096416 0.688294 -0.296742 0.268034 -0.943523 -0.194736 255 255 255
0.312015 0.688295 0.000000 0.268034 -0.943523 -0.194736 255 255 255
-0.000000 0.599659 0.000000 0.268034 -0.943523 0.194736 255 255 255
0.312015 0.688295 0.000000 0.268034 -0.943523 0.194736 255 255 255
0.096416 0.688294 0.296742 0.268034 -0.943523 0.194736 255 255 255
-0.000000 0.599659 0.000000 -0.102381 -0.943523 0.315090 255 255 255
0.096416 0.688294 0.296742 -0.102381 -0.943523 0.315090 255 255 255
-0.252425 0.688294 0.183395 -0.102381 -0.943523 0.315090 255 255 255
-0.429453 0.927728 -0.312012 -0.904989 -0.330385 -0.268031 0 10 255
-0.504851 0.881130 0.000000 -0.904989 -0.330385 -0.268031 0 10 255
-0.564443 1.193148 -0.183396 -0.904989 -0.330385 -0.268031 1 11 254
0.164033 0.927728 -0.504851 -0.024747 -0.330386 -0.943521 0 10 255
-0.156010 0.881128 -0.480140 -0.024747 -0.330386 -0.943521 1 11 255
-0.000000 1.193148 -0.593489 -0.024747 -0.330386 -0.943521 0 10 255
0.530833 0.927730 0.000000 0.889697 -0.330385 -0.315095 0 10 255
0.408433 0.881129 -0.296743 0.889697 -0.330385 -0.315095 0 10 255
0.564443 1.193148 -0.183396 0.889697 -0.330385 -0.315095 0 10 255
0.164033 0.927728 0.504851 0.574602 -0.330388 0.748783 0 10 255
0.408433 0.881129 0.296743 0.574602 -0.330388 0.748783 0 10 255
0.348845 1.193148 0.480143 0.574602 -0.330388 0.748783 0 10 255
-0.429453 0.927728 0.312012 -0.534576 -0.330387 0.777865 0 10 255
-0.156010 0.881128 0.480140 -0.534576 -0.330387 0.777865 0 10 255
-0.348845 1.193148 0.480143 -0.534576 -0.330387 0.777865 0 10 255
-0.429453 0.927728 -0.312012 -0.802609 -0.125627 -0.583126 0 10 255
-0.564443 1.193148 -0.183396 -0.802609 -0.125627 -0.583126 1 11 254
-0.348845 1.193148 -0.480143 -0.802609 -0.125627 -0.583126 0 10 255
0.164033 0.927728 -0.504851 0.306569 -0.125629 -0.943522 0 10 255
-0.000000 1.193148 -0.593489 0.306569 -0.125629 -0.943522 0 10 255
0.348845 1.193148 -0.480143 0.306569 -0.125629 -0.943522 0 10 255
0.530833 0.927730 0.000000 0.992077 -0.125628 0.000000 0 10 255
0.564443 1.193148 -0.183396 0.992077 -0.125628 0.000000 0 10 255
0.564443 1.193148 0.183396 0.992077 -0.125628 0.000000 0 10 255
0.164033 0.927728 0.504851 0.306569 -0.125629 0.943522 0 10 255
0.348845 1.193148 0.480143 0.306569 -0.125629 0.943522 0 10 255
-0.000000 1.193148 0.593489 0.306569 -0.125629 0.943522 0 10 255
-0.429453 0.927728 0.312012 -0.802609 -0.125627 0.583126 0 10 255
-0.348845 1.193148 0.480143 -0.802609 -0.125627 0.583126 0 10 255
-0.564443 1.193148 0.183396 -0.802609 -0.125627 0.583126 0 10 255
-0.164033 1.458569 -0.504851 -0.408946 0.661698 -0.628425 0 10 255
-0.408433 1.505167 -0.296743 -0.408946 0.661698 -0.628425 0 10 255
-0.096416 1.698003 -0.296742 -0.408946 0.661698 -0.628425 0 10 255
0.429453 1.458568 -0.312012 0.471300 0.661699 -0.583122 0 10 255
0.156010 1.505168 -0.480140 0.471300 0.661699 -0.583122 0 10 255
0.252425 1.698003 -0.183395 0.471300 0.661699 -0.583122 0 10 255
0.429453 1.458568 0.312012 0.700224 0.661699 0.268032 0 10 255
0.504851 1.505167 0.000000 0.700224 0.661699 0.268032 0 10 255
0.252425 1.698003 0.183395 0.700224 0.661699 0.268032 0 10 255
-0.164033 1.458569 0.504851 -0.038530 0.661699 0.748779 0 10 255
0.156010 1.505168 0.480140 -0.038530 0.661699 0.748779 0 10 255
-0.096416 1.698003 0.296742 -0.038530 0.661699 0.748779 0 10 255
-0.530833 1.458566 0.000000 -0.724042 0.661696 0.194736 0 10 255
-0.408433 1.505167 0.296743 -0.724042 0.661696 0.194736 0 10 255
-0.312015 1.698001 0.000000 -0.724042 0.661696 0.194736 0 10 255
-0.312015 1.698001 0.000000 -0.268034 0.943523 0.194736 0 10 255
-0.096416 1.698003 0.296742 -0.268034 0.943523 0.194736 0 10 255
-0.000000 1.786638 0.000000 -0.268034 0.943523 0.194736 0 10 255
-0.312015 1.698001 0.000000 -0.491120 0.794657 0.356821 0 10 255
-0.408433 1.505167 0.296743 -0.491120 0.794657 0.356821 0 10 255
-0.096416 1.698003 0.296742 -0.491120 0.794657 0.356821 0 10 255
-0.408433 1.505167 0.296743 -0.408946 0.661698 0.628425 0 10 255
-0.164033 1.458569 0.504851 -0.408946 0.661698 0.628425 0 10 255
-0.096416 1.698003 0.296742 -0.408946 0.661698 0.628425 0 10 255
-0.096416 1.698003 0.296742 0.102381 0.943523 0.315090 0 10 255
0.252425 1.698003 0.183395 0.102381 0.943523 0.315090 0 10 255
-0.000000 1.786638 0.000000 0.102381 0.943523 0.315090 0 10 255
-0.096416 1.698003 0.296742 0.187595 0.794658 0.577345 0 10 255
0.156010 1.505168 0.480140 0.187595 0.794658 0.577345 0 10 255
0.252425 1.698003 0.183395 0.187595 0.794658 0.577345 0 10 255
0.156010 1.505168 0.480140 0.471300 0.661699 0.583122 0 10 255
0.429453 1.458568 0.312012 0.471300 0.661699 0.583122 0 10 255
0.252425 1.698003 0.183395 0.471300 0.661699 0.583122 0 10 255
0.252425 1.698003 0.183395 0.331305 0.943524 -0.000000 0 10 255
0.252425 1.698003 -0.183395 0.331305 0.943524 -0.000000 0 10 255
-0.000000 1.786638 0.000000 0.331305 0.943524 -0.000000 0 10 255
0.252425 1.698003 0.183395 0.607060 0.794656 0.000000 0 10 255
0.504851 1.505167 0.000000 0.607060 0.794656 0.000000 0 10 255
0.252425 1.698003 -0.183395 0.607060 0.794656 0.000000 0 10 255
0.504851 1.505167 0.000000 0.700224 0.661699 -0.268032 0 10 255
0.429453 1.458568 -0.312012 0.700224 0.661699 -0.268032 0 10 255
0.252425 1.698003 -0.183395 0.700224 0.661699 -0.268032 0 10 255
0.252425 1.698003 -0.183395 0.102381 0.943523 -0.315090 0 10 255
-0.096416 1.698003 -0.296742 0.102381 0.943523 -0.315090 0 10 255
-0.000000 1.786638 0.000000 0.102381 0.943523 -0.315090 0 10 255
0.252425 1.698003 -0.183395 0.187595 0.794658 -0.577345 0 10 255
0.156010 1.505168 -0.480140 0.187595 0.794658 -0.577345 0 10 255
-0.096416 1.698003 -0.296742 0.187595 0.794658 -0.577345 0 10 255
0.156010 1.505168 -0.480140 -0.038530 0.661699 -0.748779 0 10 255
-0.164033 1.458569 -0.504851 -0.038530 0.661699 -0.748779 6 16 253
-0.096416 1.698003 -0.296742 -0.038530 0.661699 -0.748779 0 10 255
-0.096416 1.698003 -0.296742 -0.268034 0.943523 -0.194736 0 10 255
-0.312015 1.698001 0.000000 -0.268034 0.943523 -0.194736 12 21 252
-0.000000 1.786638 0.000000 -0.268034 0.943523 -0.194736 0 10 255
-0.096416 1.698003 -0.296742 -0.491120 0.794657 -0.356821 0 10 255
-0.408433 1.505167 -0.296743 -0.491120 0.794657 -0.356821 0 10 255
-0.312015 1.698001 0.000000 -0.491120 0.794657 -0.356821 12 21 252
-0.408433 1.505167 -0.296743 -0.724042 0.661696 -0.194736 0 10 255
-0.530833 1.458566 0.000000 -0.724042 0.661696 -0.194736 0 10 255
-0.312015 1.698001 0.000000 -0.724042 0.661696 -0.194736 0 10 255
-0.564443 1.193148 0.183396 -0.889697 0.330385 0.315095 0 10 255
-0.408433 1.505167 0.296743 -0.889697 0.330385 0.315095 0 10 255
-0.530833 1.458566 0.000000 -0.889697 0.330385 0.315095 0 10 255
-0.564443 1.193148 0.183396 -0.794656 0.187595 0.577348 0 10 255
-0.348845 1.193148 0.480143 -0.794656 0.187595 0.577348 0 10 255
-0.408433 1.505167 0.296743 -0.794656 0.187595 0.577348 0 10 255
-0.348845 1.193148 0.480143 -0.574602 0.330388 0.748783 0 10 255
-0.164033 1.458569 0.504851 -0.574602 0.330388 0.748783 0 10 255
-0.408433 1.505167 0.296743 -0.574602 0.330388 0.748783 0 10 255
-0.000000 1.193148 0.593489 0.024747 0.330386 0.943521 0 10 255
0.156010 1.505168 0.480140 0.024747 0.330386 0.943521 0 10 255
-0.164033 1.458569 0.504851 0.024747 0.330386 0.943521 0 10 255
-0.000000 1.193148 0.593489 0.303531 0.187597 0.934171 0 10 255
0.348845 1.193148 0.480143 0.303531 0.187597 0.934171 0 10 255
0.156010 1.505168 0.480140 0.303531 0.187597 0.934171 0 10 255
0.348845 1.193148 0.480143 0.534576 0.330387 0.777865 0 10 255
0.429453 1.458568 0.312012 0.534576 0.330387 0.777865 0 10 255
0.156010 1.505168 0.480140 0.534576 0.330387 0.777865 0 10 255
0.564443 1.193148 0.183396 0.904989 0.330385 0.268031 0 10 255
0.504851 1.505167 0.000000 0.904989 0.330385 0.268031 0 10 255
0.429453 1.458568 0.312012 0.904989 0.330385 0.268031 0 10 255
0.564443 1.193148 0.183396 0.982246 0.187599 -0.000000 0 10 255
0.564443 1.193148 -0.183396 0.982246 0.187599 -0.000000 0 10 255
0.504851 1.505167 0.000000 0.982246 0.187599 -0.000000 0 10 255
0.564443 1.193148 -0.183396 0.904989 0.330385 -0.268031 0 10 255
0.429453 1.458568 -0.312012 0.904989 0.330385 -0.268031 0 10 255
0.504851 1.505167 0.000000 0.904989 0.330385 -0.268031 0 10 255
0.348845 1.193148 -0.480143 0.534576 0.330387 -0.777865 0 10 255
0.156010 1.505168 -0.480140 0.534576 0.330387 -0.777865 0 10 255
0.429453 1.458568 -0.312012 0.534576 0.330387 -0.777865 0 10 255
0.348845 1.193148 -0.480143 0.303531 0.187597 -0.934171 0 10 255
-0.000000 1.193148 -0.593489 0.303531 0.187597 -0.934171 0 10 255
0.156010 1.505168 -0.480140 0.303531 0.187597 -0.934171 0 10 255
-0.000000 1.193148 -0.593489 0.024747 0.330386 -0.943521 0 10 255
-0.164033 1.458569 -0.504851 0.024747 0.330386 -0.943521 6 16 253
0.156010 1.505168 -0.480140 0.024747 0.330386 -0.943521 0 10 255
-0.348845 1.193148 -0.480143 -0.574602 0.330388 -0.748783 0 10 255
-0.408433 1.505167 -0.296743 -0.574602 0.330388 -0.748783 0 10 255
-0.164033 1.458569 -0.504851 -0.574602 0.330388 -0.748783 0 10 255
-0.348845 1.193148 -0.480143 -0.794656 0.187595 -0.577348 0 10 255
-0.564443 1.193148 -0.183396 -0.794656 0.187595 -0.577348 1 11 254
-0.408433 1.505167 -0.296743 -0.794656 0.187595 -0.577348 0 10 255
-0.564443 1.193148 -0.183396 -0.889697 0.330385 -0.315095 1 11 254
-0.530833 1.458566 0.000000 -0.889697 0.330385 -0.315095 0 10 255
-0.408433 1.505167 -0.296743 -0.889697 0.330385 -0.315095 0 10 255
-0.348845 1.193148 0.480143 -0.306569 0.125629 0.943522 0 10 255
-0.000000 1.193148 0.593489 -0.306569 0.125629 0.943522 0 10 255
-0.164033 1.458569 0.504851 -0.306569 0.125629 0.943522 0 10 255
-0.348845 1.193148 0.480143 -0.303531 -0.187597 0.934171 0 10 255
-0.156010 0.881128 0.480140 -0.303531 -0.187597 0.934171 0 10 255
-0.000000 1.193148 0.593489 -0.303531 -0.187597 0.934171 0 10 255
-0.156010 0.881128 0.480140 -0.024747 -0.330386 0.943521 0 10 255
0.164033 0.927728 0.504851 -0.024747 -0.330386 0.943521 0 10 255
-0.000000 1.193148 0.593489 -0.024747 -0.330386 0.943521 0 10 255
0.348845 1.193148 0.480143 0.802609 0.125627 0.583126 0 10 255
0.564443 1.193148 0.183396 0.802609 0.125627 0.583126 27 34 248
0.429453 1.458568 0.312012 0.802609 0.125627 0.583126 0 10 255
0.348845 1.193148 0.480143 0.794656 -0.187595 0.577348 0 10 255
0.408433 0.881129 0.296743 0.794656 -0.187595 0.577348 0 10 255
0.564443 1.193148 0.183396 0.794656 -0.187595 0.577348 27 34 248
0.408433 0.881129 0.296743 0.889697 -0.330385 0.315095 0 10 255
0.530833 0.927730 0.000000 0.889697 -0.330385 0.315095 0 10 255
0.564443 1.193148 0.183396 0.889697 -0.330385 0.315095 0 10 255
0.564443 1.193148 -0.183396 0.802609 0.125627 -0.583126 0 10 255
0.348845 1.193148 -0.480143 0.802609 0.125627 -0.583126 0 10 255
0.429453 1.458568 -0.312012 0.802609 0.125627 -0.583126 0 10 255
0.564443 1.193148 -0.183396 0.794656 -0.187595 -0.577348 0 10 255
0.408433 0.881129 -0.296743 0.794656 -0.187595 -0.577348 0 10 255
0.348845 1.193148 -0.480143 0.794656 -0.187595 -0.577348 0 10 255
0.408433 0.881129 -0.296743 0.574602 -0.330388 -0.748783 0 10 255
0.164033 0.927728 -0.504851 0.574602 -0.330388 -0.748783 0 10 255
0.348845 1.193148 -0.480143 0.574602 -0.330388 -0.748783 0 10 255
-0.000000 1.193148 -0.593489 -0.306569 0.125629 -0.943522 0 10 255
-0.348845 1.193148 -0.480143 -0.306569 0.125629 -0.943522 0 10 255
-0.164033 1.458569 -0.504851 -0.306569 0.125629 -0.943522 6 16 253
-0.000000 1.193148 -0.593489 -0.303531 -0.187597 -0.934171 0 10 255
-0.156010 0.881128 -0.480140 -0.303531 -0.187597 -0.934171 1 11 255
-0.348845 1.193148 -0.480143 -0.303531 -0.187597 -0.934171 0 10 255
-0.156010 0.881128 -0.480140 -0.534576 -0.330387 -0.777865 0 10 255
-0.429453 0.927728 -0.312012 -0.534576 -0.330387 -0.777865 0 10 255
-0.348845 1.193148 -0.480143 -0.534576 -0.330387 -0.777865 0 10 255
-0.564443 1.193148 -0.183396 -0.992077 0.125628 0.000000 0 10 255
-0.564443 1.193148 0.183396 -0.992077 0.125628 0.000000 0 10 255
-0.530833 1.458566 0.000000 -0.992077 0.125628 0.000000 0 10 255
-0.564443 1.193148 -0.183396 -0.982246 -0.187599 0.000000 0 10 255
-0.504851 0.881130 0.000000 -0.982246 -0.187599 0.000000 0 10 255
-0.564443 1.193148 0.183396 -0.982246 -0.187599 0.000000 0 10 255
-0.504851 0.881130 0.000000 -0.904989 -0.330385 0.268031 0 10 255
-0.429453 0.927728 0.312012 -0.904989 -0.330385 0.268031 3 13 254
-0.564443 1.193148 0.183396 -0.904989 -0.330385 0.268031 0 10 255
-0.252425 0.688294 0.183395 -0.471300 -0.661699 0.583122 0 10 255
-0.156010 0.881128 0.480140 -0.471300 -0.661699 0.583122 0 10 255
-0.429453 0.927728 0.312012 -0.471300 -0.661699 0.583122 0 10 255
-0.252425 0.688294 0.183395 -0.187594 -0.794658 0.577345 0 10 255
0.096416 0.688294 0.296742 -0.187594 -0.794658 0.577345 0 10 255
-0.156010 0.881128 0.480140 -0.187594 -0.794658 0.577345 0 10 255
0.096416 0.688294 0.296742 0.038530 -0.661699 0.748779 0 10 255
0.164033 0.927728 0.504851 0.038530 -0.661699 0.748779 0 10 255
-0.156010 0.881128 0.480140 0.038530 -0.661699 0.748779 0 10 255
0.096416 0.688294 0.296742 0.408946 -0.661698 0.628425 0 10 255
0.408433 0.881129 0.296743 0.408946 -0.661698 0.628425 0 10 255
0.164033 0.927728 0.504851 0.408946 -0.661698 0.628425 0 10 255
0.096416 0.688294 0.296742 0.491120 -0.794657 0.356821 0 10 255
0.312015 0.688295 0.000000 0.491120 -0.794657 0.356821 0 10 255
0.408433 0.881129 0.296743 0.491120 -0.794657 0.356821 0 10 255
0.312015 0.688295 0.000000 0.724042 -0.661695 0.194736 0 10 255
0.530833 0.927730 0.000000 0.724042 -0.661695 0.194736 0 10 255
0.408433 0.881129 0.296743 0.724042 -0.661695 0.194736 0 10 255
0.312015 0.688295 0.000000 0.724042 -0.661695 -0.194736 0 10 255
0.408433 0.881129 -0.296743 0.724042 -0.661695 -0.194736 0 10 255
0.530833 0.927730 0.000000 0.724042 -0.661695 -0.194736 0 10 255
0.312015 0.688295 0.000000 0.491120 -0.794657 -0.356821 0 10 255
0.096416 0.688294 -0.296742 0.491120 -0.794657 -0.356821 0 10 255
0.408433 0.881129 -0.296743 0.491120 -0.794657 -0.356821 0 10 255
0.096416 0.688294 -0.296742 0.408946 -0.661698 -0.628425 0 10 255
0.164033 0.927728 -0.504851 0.408946 -0.661698 -0.628425 0 10 255
0.408433 0.881129 -0.296743 0.408946 -0.661698 -0.628425 0 10 255
-0.504851 0.881130 0.000000 -0.700224 -0.661699 0.268032 0 10 255
-0.252425 0.688294 0.183395 -0.700224 -0.661699 0.268032 0 10 255
-0.429453 0.927728 0.312012 -0.700224 -0.661699 0.268032 3 13 254
-0.504851 0.881130 0.000000 -0.607060 -0.794656 -0.000000 0 10 255
-0.252425 0.688294 -0.183395 -0.607060 -0.794656 -0.000000 0 10 255
-0.252425 0.688294 0.183395 -0.607060 -0.794656 -0.000000 0 10 255
-0.252425 0.688294 -0.183395 -0.331305 -0.943524 0.000000 255 255 255
-0.000000 0.599659 0.000000 -0.331305 -0.943524 0.000000 255 255 255
-0.252425 0.688294 0.183395 -0.331305 -0.943524 0.000000 255 255 255
0.096416 0.688294 -0.296742 0.038530 -0.661699 -0.748779 0 10 255
-0.156010 0.881128 -0.480140 0.038530 -0.661699 -0.748779 1 11 255
0.164033 0.927728 -0.504851 0.038530 -0.661699 -0.748779 0 10 255
0.096416 0.688294 -0.296742 -0.187594 -0.794658 -0.577345 0 10 255
-0.252425 0.688294 -0.183395 -0.187594 -0.794658 -0.577345 0 10 255
-0.156010 0.881128 -0.480140 -0.187594 -0.794658 -0.577345 1 11 255
-0.252425 0.688294 -0.183395 -0.471300 -0.661699 -0.583122 0 10 255
-0.429453 0.927728 -0.312012 -0.471300 -0.661699 -0.583122 0 10 255
-0.156010 0.881128 -0.480140 -0.471300 -0.661699 -0.583122 0 10 255
-0.000000 1.193148 0.445117 -0.500000 0.000000 0.866025 253 241 192
-0.385483 1.193148 0.222559 -0.500000 0.000000 0.866025 255 243 192
-0.385483 0.006169 0.222559 -0.500000 0.000000 0.866025 255 243 192
-0.385483 1.193148 0.222559 -1.000000 0.000000 -0.000000 255 243 192
-0.385483 1.193148 -0.222559 -1.000000 0.000000 -0.000000 255 243 192
-0.385483 0.006169 -0.222559 -1.000000 0.000000 -0.000000 255 243 192
-0.385483 1.193148 -0.222559 -0.500000 0.000000 -0.866026 255 243 192
0.000000 1.193148 -0.445117 -0.500000 0.000000 -0.866026 255 243 192
0.000000 0.006169 -0.445117 -0.500000 0.000000 -0.866026 255 243 192
0.000000 1.193148 -0.445117 0.500000 0.000000 -0.866025 255 243 192
0.385483 1.193148 -0.222559 0.500000 0.000000 -0.866025 255 243 192
0.385483 0.006169 -0.222559 0.500000 0.000000 -0.866025 255 243 192
-0.000000 1.193148 0.445117 -0.000000 1.000000 -0.000000 255 255 255
0.000000 1.193148 -0.445117 -0.000000 1.000000 -0.000000 255 255 255
-0.385483 1.193148 -0.222559 -0.000000 1.000000 -0.000000 255 255 255
0.385483 1.193148 0.222559 0.500000 -0.000000 0.866025 255 243 192
-0.000000 1.193148 0.445117 0.500000 -0.000000 0.866025 255 243 192
-0.000000 0.006169 0.445117 0.500000 -0.000000 0.866025 255 243 192
0.385483 1.193148 -0.222559 1.000000 -0.000000 0.000000 255 243 192
0.385483 1.193148 0.222559 1.000000 -0.000000 0.000000 255 243 192
0.385483 0.006169 0.222559 1.000000 -0.000000 0.000000 255 243 192
-0.385483 0.006169 0.222559 -0.000000 -1.000000 -0.000000 255 255 255
0.000000 0.006169 -0.445117 -0.000000 -1.000000 -0.000000 255 255 255
-0.000000 0.006169 0.445117 -0.000000 -1.000000 -0.000000 255 255 255
-0.000000 0.855045 0.593490 -0.500000 0.000000 0.866025 0 10 255
-0.513977 0.855045 0.296745 -0.500000 0.000000 0.866025 0 10 255
-0.513977 0.558300 0.296745 -0.500000 0.000000 0.866025 2 12 254
-0.513977 0.855045 0.296745 -1.000000 0.000000 -0.000000 0 10 255
-0.513977 0.855045 -0.296745 -1.000000 0.000000 -0.000000 0 10 255
-0.513977 0.558300 -0.296745 -1.000000 0.000000 -0.000000 2 11 254
-0.513977 0.855045 -0.296745 -0.500000 0.000000 -0.866025 0 10 255
0.000000 0.855045 -0.593490 -0.500000 0.000000 -0.866025 0 10 255
0.000000 0.558300 -0.593490 -0.500000 0.000000 -0.866025 0 10 255
0.000000 0.855045 -0.593490 0.500000 0.000000 -0.866025 0 10 255
0.513977 0.855045 -0.296745 0.500000 0.000000 -0.866025 0 10 255
0.513977 0.558300 -0.296745 0.500000 0.000000 -0.866025 23 31 248
-0.000000 0.855045 0.593490 -0.000000 1.000000 -0.000000 0 10 255
0.000000 0.855045 -0.593490 -0.000000 1.000000 -0.000000 0 10 255
-0.513977 0.855045 -0.296745 -0.000000 1.000000 -0.000000 0 10 255
0.513977 0.855045 0.296745 0.500000 -0.000000 0.866025 0 10 255
-0.000000 0.855045 0.593490 0.500000 -0.000000 0.866025 0 10 255
-0.000000 0.558300 0.593490 0.500000 -0.000000 0.866025 1 11 255
0.513977 0.855045 -0.296745 1.000000 -0.000000 0.000000 0 10 255
0.513977 0.855045 0.296745 1.000000 -0.000000 0.000000 0 10 255
0.513977 0.558300 0.296745 1.000000 -0.000000 0.000000 0 10 255
-0.513977 0.558300 0.296745 -0.000000 -1.000000 -0.000000 255 243 192
0.513977 0.558300 -0.296745 -0.000000 -1.000000 -0.000000 255 243 192
0.513977 0.558300 0.296745 -0.000000 -1.000000 -0.000000 255 243 192
-0.000000 0.201383 -0.780857 -0.500000 0.000000 0.866025 255 243 192
0.676242 0.201383 -0.390429 -1.000000 0.000000 -0.000000 255 243 192
0.676242 0.201383 0.390429 -0.500000 0.000000 -0.866026 255 243 192
-0.000000 0.201383 0.780857 0.500000 0.000000 -0.866025 255 243 192
0.676242 -0.189045 -0.390429 0.000000 1.000000 -0.000000 255 243 192
-0.676242 -0.189045 -0.390429 0.000000 1.000000 0.000000 255 243 192
-0.000000 -0.189045 0.780857 0.000000 1.000000 0.000000 255 243 192
-0.676242 0.201383 -0.390429 0.500000 -0.000000 0.866025 255 243 192
-0.676242 0.201383 0.390429 1.000000 0.000000 -0.000000 255 243 192
-0.676242 0.201383 -0.390429 -0.000000 -1.000000 0.000000 255 243 192
-0.000000 0.201383 -0.780857 -0.000000 -1.000000 0.000000 255 243 192
0.676242 0.201383 0.390429 0.000000 -1.000000 0.000000 255 243 192
-0.000000 0.201383 0.780857 0.000000 -1.000000 0.000000 48 54 243
-0.000000 0.201383 0.780857 0.000000 -1.000000 0.000000 255 243 192
-0.000000 0.006169 0.445117 -0.500000 0.000000 0.866025 255 243 192
-0.000000 1.193148 0.445117 -0.500000 0.000000 0.866025 255 243 192
-0.385483 0.006169 0.222559 -1.000000 -0.000000 -0.000000 255 243 192
-0.385483 0.006169 -0.222559 -0.500000 -0.000000 -0.866026 255 243 192
0.000000 0.006169 -0.445117 0.500000 0.000000 -0.866025 255 243 192
-0.385483 1.193148 0.222559 0.000000 1.000000 0.000000 255 255 255
0.385483 1.193148 0.222559 0.000000 1.000000 -0.000000 255 255 255
0.385483 1.193148 -0.222559 0.000000 1.000000 -0.000000 255 255 255
0.385483 0.006169 0.222559 0.500000 0.000000 0.866025 255 243 192
0.385483 0.006169 -0.222559 1.000000 0.000000 0.000000 255 243 192
0.385483 0.006169 0.222559 0.000000 -1.000000 0.000000 255 255 255
-0.385483 0.006169 -0.222559 0.000000 -1.000000 0.000000 255 255 255
0.385483 0.006169 -0.222559 0.000000 -1.000000 -0.000000 255 255 255
-0.000000 0.558300 0.593490 -0.500000 0.000000 0.866025 6 15 253
-0.513977 0.558300 0.296745 -1.000000 -0.000000 -0.000000 2 12 254
-0.513977 0.558300 -0.296745 -0.500000 -0.000000 -0.866025 9 19 252
0.000000 0.558300 -0.593490 0.500000 0.000000 -0.866025 12 21 251
-0.513977 0.855045 0.296745 0.000000 1.000000 0.000000 0 10 255
0.513977 0.855045 0.296745 0.000000 1.000000 -0.000000 0 10 255
0.513977 0.855045 -0.296745 0.000000 1.000000 -0.000000 0 10 255
0.513977 0.558300 0.296745 0.500000 0.000000 0.866025 21 30 249
0.513977 0.558300 -0.296745 1.000000 0.000000 0.000000 23 31 248
-0.000000 0.558300 0.593490 0.000000 -1.000000 0.000000 255 243 192
-0.513977 0.558300 -0.296745 0.000000 -1.000000 0.000000 255 243 192
0.000000 0.558300 -0.593490 0.000000 -1.000000 0.000000 255 243 192
3 0 1 2
3 3 4 5
3 6 7 8
3 9 10 11
3 12 13 14
3 15 16 17
3 18 19 20
3 21 22 23
3 24 25 26
3 27 28 29
3 30 31 32
3 33 34 35
3 36 37 38
3 39 40 41
3 42 43 44
3 45 46 47
3 48 49 50
3 51 52 53
3 54 55 56
3 57 58 59
3 60 61 62
3 63 64 65
3 66 67 68
3 69 70 71
3 72 73 74
3 75 76 77
3 78 79 80
3 81 82 83
3 84 85 86
3 87 88 89
3 90 91 92
3 93 94 95
3 96 97 98
3 99 100 101
3 102 103 104
3 105 106 107
3 108 109 110
3 111 112 113
3 114 115 116
3 117 118 119
3 120 121 122
3 123 124 125
3 126 127 128
3 129 130 131
3 132 133 134
3 135 136 137
3 138 139 140
3 141 142 143
3 144 145 146
3 147 148 149
3 150 151 152
3 153 154 155
3 156 157 158
3 159 160 161
3 162 163 164
3 165 166 167
3 168 169 170
3 171 172 173
3 174 175 176
3 177 178 179
3 180 181 182
3 183 184 185
3 186 187 188
3 189 190 191
3 192 193 194
3 195 196 197
3 198 199 200
3 201 202 203
3 204 205 206
3 207 208 209
3 210 211 212
3 213 214 215
3 216 217 218
3 219 220 221
3 222 223 224
3 225 226 227
3 228 229 230
3 231 232 233
3 234 235 236
3 237 238 239
3 240 241 242
3 243 244 245
3 246 247 248
3 249 250 251
3 252 253 254
3 255 256 257
3 258 259 260
3 261 262 263
3 264 265 266
3 267 268 269
3 270 271 272
3 273 274 275
3 276 277 278
3 279 280 281
3 282 283 284
3 285 286 287
3 288 289 290
3 291 292 293
3 294 295 296
3 297 298 299
3 300 301 302
3 303 304 305
3 306 307 308
3 309 310 311
3 312 0 2
3 313 3 5
3 314 6 8
3 315 9 11
3 14 316 12
3 12 317 13
3 13 318 14
3 319 15 17
3 320 18 20
3 321 322 21
3 21 323 324
3 325 22 21
3 326 327 266
3 328 267 269
3 329 270 272
3 330 273 275
3 278 331 276
3 276 332 333
3 333 277 276
3 334 279 281
3 335 282 284
3 336 287 286
3 285 337 286
3 286 338 336
3 339 288 290
3 340 291 293
3 341 294 296
3 342 297 299
3 302 343 300
3 300 344 345
3 345 301 300
3 346 303 305
3 347 306 308
3 311 348 309
3 309 349 350
3 350 310 309
