ply
format ascii 1.0
comment Created by Blender 2.76 (sub 0) - www.blender.org, source file: 'pawn.blend'
element vertex 24
property float x
property float y
property float z
property float nx
property float ny
property float nz
property uchar red
property uchar green
property uchar blue
element face 12
property list uchar uint vertex_indices
end_header
0.073223 0.000000 1.426777 -0.707107 0.000000 0.707107 255 247 0
-0.176777 0.353553 1.176777 -0.707107 0.000000 0.707107 255 247 0
-0.426777 0.000000 0.926777 -0.707107 0.000000 0.707107 255 247 0
0.426777 0.000000 1.073223 0.500000 0.707107 0.500000 255 247 0
0.176777 0.353553 0.823223 0.500000 0.707107 0.500000 255 247 0
-0.176777 0.353553 1.176777 0.500000 0.707107 0.500000 255 247 0
0.176777 -0.353553 0.823223 0.707107 0.000000 -0.707107 255 247 0
-0.073223 0.000000 0.573223 0.707107 0.000000 -0.707107 255 247 0
0.176777 0.353553 0.823223 0.707107 0.000000 -0.707107 255 247 0
-0.176777 -0.353553 1.176777 -0.500000 -0.707107 -0.500000 255 247 19
-0.426777 0.000000 0.926777 -0.500000 -0.707107 -0.500000 255 247 0
-0.073223 0.000000 0.573223 -0.500000 -0.707107 -0.500000 255 247 0
-0.176777 0.353553 1.176777 -0.500000 0.707107 -0.500000 255 247 0
0.176777 0.353553 0.823223 -0.500000 0.707107 -0.500000 255 247 0
-0.073223 0.000000 0.573223 -0.500000 0.707107 -0.500000 255 247 0
0.426777 0.000000 1.073223 0.500000 -0.707107 0.500000 255 247 0
0.073223 0.000000 1.426777 0.500000 -0.707107 0.500000 255 248 2
-0.176777 -0.353553 1.176777 0.500000 -0.707107 0.500000 255 247 0
-0.176777 -0.353553 1.176777 -0.707107 -0.000000 0.707107 255 247 19
0.073223 0.000000 1.426777 0.500000 0.707107 0.500000 255 247 0
0.426777 0.000000 1.073223 0.707107 0.000000 -0.707107 255 247 0
0.176777 -0.353553 0.823223 -0.500000 -0.707107 -0.500000 255 247 0
-0.426777 0.000000 0.926777 -0.500000 0.707107 -0.500000 255 247 0
0.176777 -0.353553 0.823223 0.500000 -0.707107 0.500000 255 247 0
3 0 1 2
3 3 4 5
3 6 7 8
3 9 10 11
3 12 13 14
3 15 16 17
3 18 0 2
3 19 3 5
3 20 6 8
3 21 9 11
3 22 12 14
3 23 15 17
