ply
format ascii 1.0
comment Created by Blender 2.74 (sub 0) - www.blender.org, source file: ''
element vertex 128
property float x
property float y
property float z
property float nx
property float ny
property float nz
property uchar red
property uchar green
property uchar blue
element face 62
property list uchar uint vertex_indices
end_header
-0.363481 0.897757 -0.006694 -0.259887 0.856737 0.445488 0 8 255
0.019201 -0.026123 1.993306 -0.259887 0.856737 0.445488 255 178 0
-0.175888 0.954663 -0.006694 -0.259887 0.856737 0.445488 0 8 255
0.019201 0.973877 -0.006694 0.087754 0.890977 0.445488 0 8 255
0.019201 -0.026123 1.993306 0.087754 0.890977 0.445488 255 178 0
0.214291 0.954662 -0.006694 0.087754 0.890977 0.445488 0 8 255
-0.536368 0.805347 -0.006694 -0.422035 0.789574 0.445488 0 8 255
0.019201 -0.026123 1.993306 -0.422035 0.789574 0.445488 255 178 0
-0.363481 0.897757 -0.006694 -0.422035 0.789574 0.445488 0 8 255
-0.687905 0.680985 -0.006694 -0.567964 0.692067 0.445488 0 8 255
0.019201 -0.026123 1.993306 -0.567964 0.692067 0.445488 255 178 0
-0.536368 0.805347 -0.006694 -0.567964 0.692067 0.445488 0 8 255
-0.812268 0.529448 -0.006694 -0.692066 0.567966 0.445488 0 8 255
0.019201 -0.026123 1.993306 -0.692066 0.567966 0.445488 255 178 0
-0.687905 0.680985 -0.006694 -0.692066 0.567966 0.445488 0 8 255
-0.904678 0.356562 -0.006694 -0.789573 0.422036 0.445488 0 8 255
0.019201 -0.026123 1.993306 -0.789573 0.422036 0.445488 255 178 0
-0.812268 0.529448 -0.006694 -0.789573 0.422036 0.445488 0 8 255
-0.961584 0.168968 -0.006694 -0.856737 0.259889 0.445488 0 8 255
0.019201 -0.026123 1.993306 -0.856737 0.259889 0.445488 255 178 0
-0.904678 0.356562 -0.006694 -0.856737 0.259889 0.445488 0 8 255
-0.980799 -0.026122 -0.006694 -0.890977 0.087754 0.445488 0 8 255
0.019201 -0.026123 1.993306 -0.890977 0.087754 0.445488 255 178 0
-0.961584 0.168968 -0.006694 -0.890977 0.087754 0.445488 0 8 255
-0.961584 -0.221212 -0.006694 -0.890977 -0.087753 0.445488 7 14 255
0.019201 -0.026123 1.993306 -0.890977 -0.087753 0.445488 255 178 0
-0.980799 -0.026122 -0.006694 -0.890977 -0.087753 0.445488 0 8 255
-0.904679 -0.408806 -0.006694 -0.856737 -0.259887 0.445488 12 20 255
0.019201 -0.026123 1.993306 -0.856737 -0.259887 0.445488 255 178 0
-0.961584 -0.221212 -0.006694 -0.856737 -0.259887 0.445488 7 14 255
-0.812269 -0.581693 -0.006694 -0.789574 -0.422035 0.445488 0 8 255
0.019201 -0.026123 1.993306 -0.789574 -0.422035 0.445488 255 178 0
-0.904679 -0.408806 -0.006694 -0.789574 -0.422035 0.445488 12 20 255
-0.687906 -0.733229 -0.006694 -0.692067 -0.567964 0.445488 0 8 255
0.019201 -0.026123 1.993306 -0.692067 -0.567964 0.445488 255 178 0
-0.812269 -0.581693 -0.006694 -0.692067 -0.567964 0.445488 0 8 255
-0.536370 -0.857592 -0.006694 -0.567965 -0.692066 0.445488 0 8 255
0.019201 -0.026123 1.993306 -0.567965 -0.692066 0.445488 255 178 0
-0.687906 -0.733229 -0.006694 -0.567965 -0.692066 0.445488 0 8 255
-0.363483 -0.950002 -0.006694 -0.422036 -0.789573 0.445488 0 8 255
0.019201 -0.026123 1.993306 -0.422036 -0.789573 0.445488 255 178 0
-0.536370 -0.857592 -0.006694 -0.422036 -0.789573 0.445488 0 8 255
-0.175890 -1.006908 -0.006694 -0.259889 -0.856737 0.445488 0 8 255
0.019201 -0.026123 1.993306 -0.259889 -0.856737 0.445488 255 178 0
-0.363483 -0.950002 -0.006694 -0.259889 -0.856737 0.445488 0 8 255
0.019201 -1.026123 -0.006694 -0.087754 -0.890977 0.445488 0 8 255
0.019201 -0.026123 1.993306 -0.087754 -0.890977 0.445488 255 178 0
-0.175890 -1.006908 -0.006694 -0.087754 -0.890977 0.445488 0 8 255
0.214291 -1.006908 -0.006694 0.087754 -0.890977 0.445488 0 8 255
0.019201 -0.026123 1.993306 0.087754 -0.890977 0.445488 255 178 0
0.019201 -1.026123 -0.006694 0.087754 -0.890977 0.445488 0 8 255
0.401884 -0.950003 -0.006694 0.259888 -0.856737 0.445488 0 8 255
0.019201 -0.026123 1.993306 0.259888 -0.856737 0.445488 255 178 0
0.214291 -1.006908 -0.006694 0.259888 -0.856737 0.445488 0 8 255
0.574771 -0.857593 -0.006694 0.422036 -0.789573 0.445488 0 8 255
0.019201 -0.026123 1.993306 0.422036 -0.789573 0.445488 255 178 0
0.401884 -0.950003 -0.006694 0.422036 -0.789573 0.445488 0 8 255
0.726308 -0.733230 -0.006694 0.567965 -0.692067 0.445488 0 8 255
0.019201 -0.026123 1.993306 0.567965 -0.692067 0.445488 255 178 0
0.574771 -0.857593 -0.006694 0.567965 -0.692067 0.445488 0 8 255
0.850671 -0.581693 -0.006694 0.692067 -0.567965 0.445488 0 8 255
0.019201 -0.026123 1.993306 0.692067 -0.567965 0.445488 255 178 0
0.726308 -0.733230 -0.006694 0.692067 -0.567965 0.445488 0 8 255
0.943081 -0.408806 -0.006694 0.789573 -0.422036 0.445488 0 8 255
0.019201 -0.026123 1.993306 0.789573 -0.422036 0.445488 255 178 0
0.850671 -0.581693 -0.006694 0.789573 -0.422036 0.445488 0 8 255
0.999986 -0.221213 -0.006694 0.856737 -0.259888 0.445488 0 8 255
0.019201 -0.026123 1.993306 0.856737 -0.259888 0.445488 255 178 0
0.943081 -0.408806 -0.006694 0.856737 -0.259888 0.445488 0 8 255
1.019201 -0.026123 -0.006694 0.890977 -0.087753 0.445488 0 8 255
0.019201 -0.026123 1.993306 0.890977 -0.087753 0.445488 255 178 0
0.999986 -0.221213 -0.006694 0.890977 -0.087753 0.445488 0 8 255
0.999986 0.168967 -0.006694 0.890977 0.087754 0.445488 0 8 255
0.019201 -0.026123 1.993306 0.890977 0.087754 0.445488 255 178 0
1.019201 -0.026123 -0.006694 0.890977 0.087754 0.445488 0 8 255
0.943080 0.356561 -0.006694 0.856737 0.259888 0.445488 0 8 255
0.019201 -0.026123 1.993306 0.856737 0.259888 0.445488 255 178 0
0.999986 0.168967 -0.006694 0.856737 0.259888 0.445488 0 8 255
0.850671 0.529447 -0.006694 0.789573 0.422035 0.445488 2 10 255
0.019201 -0.026123 1.993306 0.789573 0.422035 0.445488 255 178 0
0.943080 0.356561 -0.006694 0.789573 0.422035 0.445488 0 8 255
0.726308 0.680984 -0.006694 0.692067 0.567965 0.445488 5 13 255
0.019201 -0.026123 1.993306 0.692067 0.567965 0.445488 255 178 0
0.850671 0.529447 -0.006694 0.692067 0.567965 0.445488 2 10 255
0.574771 0.805347 -0.006694 0.567965 0.692067 0.445488 0 8 255
0.019201 -0.026123 1.993306 0.567965 0.692067 0.445488 255 178 0
0.726308 0.680984 -0.006694 0.567965 0.692067 0.445488 5 13 255
0.401884 0.897757 -0.006694 0.422035 0.789573 0.445488 0 8 255
0.019201 -0.026123 1.993306 0.422035 0.789573 0.445488 255 178 0
0.574771 0.805347 -0.006694 0.422035 0.789573 0.445488 0 8 255
-0.175888 0.954663 -0.006694 -0.087753 0.890977 0.445488 0 8 255
0.019201 -0.026123 1.993306 -0.087753 0.890977 0.445488 255 178 0
0.019201 0.973877 -0.006694 -0.087753 0.890977 0.445488 0 8 255
0.214291 0.954662 -0.006694 0.259888 0.856737 0.445488 0 8 255
0.019201 -0.026123 1.993306 0.259888 0.856737 0.445488 255 178 0
0.401884 0.897757 -0.006694 0.259888 0.856737 0.445488 0 8 255
0.019201 0.973877 -0.006694 0.000000 -0.000000 -1.000000 255 255 255
-0.363481 0.897757 -0.006694 0.000000 -0.000000 -1.000000 255 255 255
-0.175888 0.954663 -0.006694 0.000000 -0.000000 -1.000000 255 255 255
-0.687905 0.680985 -0.006694 0.000000 0.000000 -1.000000 255 255 255
-0.536368 0.805347 -0.006694 0.000000 0.000000 -1.000000 255 255 255
-0.904678 0.356562 -0.006694 0.000000 0.000000 -1.000000 255 255 255
-0.812268 0.529448 -0.006694 0.000000 0.000000 -1.000000 255 255 255
-0.980799 -0.026122 -0.006694 0.000000 0.000000 -1.000000 255 255 255
-0.961584 0.168968 -0.006694 0.000000 0.000000 -1.000000 255 255 255
-0.904679 -0.408806 -0.006694 0.000000 0.000000 -1.000000 255 255 255
-0.961584 -0.221212 -0.006694 0.000000 0.000000 -1.000000 255 255 255
-0.687906 -0.733229 -0.006694 0.000000 0.000000 -1.000000 255 255 255
-0.812269 -0.581693 -0.006694 0.000000 0.000000 -1.000000 255 255 255
-0.363483 -0.950002 -0.006694 0.000000 0.000000 -1.000000 255 255 255
-0.536370 -0.857592 -0.006694 0.000000 0.000000 -1.000000 255 255 255
0.019201 -1.026123 -0.006694 0.000000 0.000000 -1.000000 255 255 255
-0.175890 -1.006908 -0.006694 0.000000 0.000000 -1.000000 255 255 255
0.401884 -0.950003 -0.006694 0.000000 0.000000 -1.000000 255 255 255
0.214291 -1.006908 -0.006694 0.000000 0.000000 -1.000000 255 255 255
0.726308 -0.733230 -0.006694 0.000000 0.000000 -1.000000 255 255 255
0.574771 -0.857593 -0.006694 0.000000 0.000000 -1.000000 255 255 255
0.943081 -0.408806 -0.006694 0.000000 0.000000 -1.000000 255 255 255
0.850671 -0.581693 -0.006694 0.000000 0.000000 -1.000000 255 255 255
1.019201 -0.026123 -0.006694 0.000000 0.000000 -1.000000 255 255 255
0.999986 -0.221213 -0.006694 0.000000 0.000000 -1.000000 255 255 255
0.943080 0.356561 -0.006694 0.000000 0.000000 -1.000000 255 255 255
0.999986 0.168967 -0.006694 0.000000 0.000000 -1.000000 255 255 255
0.726308 0.680984 -0.006694 0.000000 0.000000 -1.000000 255 255 255
0.850671 0.529447 -0.006694 0.000000 0.000000 -1.000000 255 255 255
0.401884 0.897757 -0.006694 0.000000 0.000000 -1.000000 255 255 255
0.574771 0.805347 -0.006694 0.000000 0.000000 -1.000000 255 255 255
0.214291 0.954662 -0.006694 0.000000 0.000000 -1.000000 255 255 255
3 0 1 2
3 3 4 5
3 6 7 8
3 9 10 11
3 12 13 14
3 15 16 17
3 18 19 20
3 21 22 23
3 24 25 26
3 27 28 29
3 30 31 32
3 33 34 35
3 36 37 38
3 39 40 41
3 42 43 44
3 45 46 47
3 48 49 50
3 51 52 53
3 54 55 56
3 57 58 59
3 60 61 62
3 63 64 65
3 66 67 68
3 69 70 71
3 72 73 74
3 75 76 77
3 78 79 80
3 81 82 83
3 84 85 86
3 87 88 89
3 90 91 92
3 93 94 95
3 96 97 98
3 99 100 97
3 101 102 99
3 103 104 101
3 105 106 103
3 107 108 105
3 109 110 107
3 111 112 109
3 113 114 111
3 115 116 113
3 117 118 115
3 119 120 117
3 121 122 119
3 123 124 121
3 125 126 123
3 96 127 125
3 96 99 97
3 103 101 99
3 107 105 103
3 111 109 107
3 115 113 111
3 119 117 115
3 123 121 119
3 96 125 123
3 96 103 99
3 111 107 103
3 119 115 111
3 96 123 119
3 96 111 103
3 96 119 111
