ply
format ascii 1.0
comment Created by Blender 2.76 (sub 0) - www.blender.org, source file: 'doorway.blend'
element vertex 72
property float x
property float y
property float z
property float nx
property float ny
property float nz
property uchar red
property uchar green
property uchar blue
element face 36
property list uchar uint vertex_indices
end_header
-0.731029 2.257385 -0.500000 1.000000 0.000000 0.000000 165 172 143
-0.731029 2.257386 0.500000 1.000000 0.000000 0.000000 165 172 143
-0.731029 0.007385 0.500000 1.000000 0.000000 0.000000 165 172 143
-0.731029 2.257386 0.500000 0.000000 -0.000000 1.000000 165 172 143
-1.731029 2.257386 0.500000 0.000000 -0.000000 1.000000 165 172 143
-1.731029 0.007385 0.500000 0.000000 -0.000000 1.000000 165 172 143
-1.731029 2.257385 -0.500000 -1.000000 0.000000 0.000000 166 173 144
-1.731029 0.007385 -0.500000 -1.000000 0.000000 0.000000 165 172 143
-1.731029 0.007385 0.500000 -1.000000 0.000000 0.000000 179 183 149
-0.731029 2.257385 -0.500000 0.000000 -0.000000 -1.000000 165 172 143
-0.731029 0.007385 -0.500000 0.000000 -0.000000 -1.000000 165 172 143
-1.731029 0.007385 -0.500000 0.000000 -0.000000 -1.000000 166 173 144
-0.731029 0.007385 -0.500000 0.000000 -1.000000 0.000000 222 216 171
-0.731029 0.007385 0.500000 0.000000 -1.000000 0.000000 222 216 171
-1.731029 0.007385 0.500000 0.000000 -1.000000 0.000000 222 216 171
-1.731029 2.257386 0.500000 -0.000000 1.000000 -0.000000 165 172 143
-0.731029 2.257386 0.500000 -0.000000 1.000000 -0.000000 178 182 150
-0.731029 2.257385 -0.500000 -0.000000 1.000000 -0.000000 165 172 143
1.795788 2.257386 -0.500000 1.000000 0.000000 0.000000 165 172 143
1.795788 2.257386 0.500000 1.000000 0.000000 0.000000 165 172 143
1.795788 0.007386 0.500000 1.000000 0.000000 0.000000 165 172 143
1.795788 2.257386 0.500000 -0.000000 0.000000 1.000000 165 172 143
0.795788 2.257386 0.500000 -0.000000 0.000000 1.000000 165 172 143
0.795788 0.007386 0.500000 -0.000000 0.000000 1.000000 165 172 143
0.795788 2.257386 -0.500000 -1.000000 0.000000 -0.000000 165 172 143
0.795788 0.007385 -0.500000 -1.000000 0.000000 -0.000000 165 172 143
0.795788 0.007386 0.500000 -1.000000 0.000000 -0.000000 165 172 143
1.795788 2.257386 -0.500000 -0.000000 0.000000 -1.000000 165 172 143
1.795788 0.007386 -0.500000 -0.000000 0.000000 -1.000000 185 187 152
0.795788 0.007385 -0.500000 -0.000000 0.000000 -1.000000 165 172 143
1.795788 0.007386 -0.500000 0.000000 -1.000000 0.000000 221 215 171
1.795788 0.007386 0.500000 0.000000 -1.000000 0.000000 195 194 157
0.795788 0.007386 0.500000 0.000000 -1.000000 0.000000 222 216 171
0.795788 2.257386 0.500000 0.000000 1.000000 -0.000000 165 172 143
1.795788 2.257386 0.500000 0.000000 1.000000 -0.000000 165 172 143
1.795788 2.257386 -0.500000 0.000000 1.000000 -0.000000 165 172 143
-1.687279 3.222967 0.700780 -0.004992 0.999987 0.000866 165 172 143
1.889582 3.241177 0.293671 -0.004992 0.999987 0.000866 165 172 143
1.776493 3.241473 -0.699914 -0.004992 0.999987 0.000866 169 175 145
-1.682286 2.222980 0.699914 0.113089 -0.000296 0.993585 165 172 143
1.894574 2.241190 0.292804 0.113089 -0.000296 0.993585 165 172 143
1.889582 3.241177 0.293671 0.113089 -0.000296 0.993585 165 172 143
-1.795375 2.223276 -0.293671 0.004992 -0.999987 -0.000866 222 216 171
1.781485 2.241486 -0.700780 0.004992 -0.999987 -0.000866 165 172 143
1.894574 2.241190 0.292804 0.004992 -0.999987 -0.000866 204 203 162
-1.800368 3.223263 -0.292804 -0.113089 0.000296 -0.993585 167 174 144
1.776493 3.241473 -0.699914 -0.113089 0.000296 -0.993585 173 179 147
1.781485 2.241486 -0.700780 -0.113089 0.000296 -0.993585 165 172 143
1.889582 3.241177 0.293671 0.993572 0.005058 -0.113086 165 172 143
1.894574 2.241190 0.292804 0.993572 0.005058 -0.113086 165 172 143
1.781485 2.241486 -0.700780 0.993572 0.005058 -0.113086 169 175 145
-1.682286 2.222980 0.699914 -0.993572 -0.005058 0.113086 167 173 143
-1.687279 3.222967 0.700780 -0.993572 -0.005058 0.113086 166 173 143
-1.800368 3.223263 -0.292804 -0.993572 -0.005058 0.113086 180 184 151
-0.731029 0.007385 -0.500000 1.000000 0.000000 0.000000 165 172 143
-0.731029 0.007385 0.500000 0.000000 0.000000 1.000000 165 172 143
-1.731029 2.257386 0.500000 -1.000000 -0.000000 0.000000 165 172 143
-1.731029 2.257385 -0.500000 0.000000 0.000000 -1.000000 166 172 143
-1.731029 0.007385 -0.500000 0.000000 -1.000000 0.000000 222 216 171
-1.731029 2.257385 -0.500000 0.000000 1.000000 -0.000000 166 172 143
1.795788 0.007386 -0.500000 1.000000 0.000000 0.000000 165 172 143
1.795788 0.007386 0.500000 0.000000 0.000000 1.000000 165 172 143
0.795788 2.257386 0.500000 -1.000000 0.000000 0.000000 165 172 143
0.795788 2.257386 -0.500000 0.000000 -0.000000 -1.000000 167 174 144
0.795788 0.007385 -0.500000 0.000000 -1.000000 0.000000 166 172 143
0.795788 2.257386 -0.500000 0.000000 1.000000 0.000000 165 172 143
-1.800368 3.223263 -0.292804 -0.004992 0.999987 0.000866 165 172 143
-1.687279 3.222967 0.700780 0.113089 -0.000296 0.993585 165 172 143
-1.682286 2.222980 0.699914 0.004992 -0.999987 -0.000866 167 173 143
-1.795375 2.223276 -0.293671 -0.113089 0.000296 -0.993585 166 173 143
1.776493 3.241473 -0.699914 0.993572 0.005058 -0.113086 165 172 143
-1.795375 2.223276 -0.293671 -0.993572 -0.005058 0.113086 216 211 168
3 0 1 2
3 3 4 5
3 6 7 8
3 9 10 11
3 12 13 14
3 15 16 17
3 18 19 20
3 21 22 23
3 24 25 26
3 27 28 29
3 30 31 32
3 33 34 35
3 36 37 38
3 39 40 41
3 42 43 44
3 45 46 47
3 48 49 50
3 51 52 53
3 54 0 2
3 55 3 5
3 56 6 8
3 57 9 11
3 58 12 14
3 59 15 17
3 60 18 20
3 61 21 23
3 62 24 26
3 63 27 29
3 64 30 32
3 65 33 35
3 66 36 38
3 67 39 41
3 68 42 44
3 69 45 47
3 70 48 50
3 71 51 53
