ply
format ascii 1.0
comment Created by Blender 2.76 (sub 0) - www.blender.org, source file: 'red_flag.blend'
element vertex 28
property float x
property float y
property float z
property float nx
property float ny
property float nz
property uchar red
property uchar green
property uchar blue
element face 14
property list uchar uint vertex_indices
end_header
0.355641 2.355641 0.355641 1.000000 0.000000 0.000000 0 0 0
0.355641 -0.355641 0.355641 1.000000 0.000000 0.000000 122 85 50
0.355641 -0.355641 -0.355641 1.000000 0.000000 0.000000 255 162 57
-0.355641 2.355641 0.355641 0.000000 -0.000000 1.000000 8 6 3
-0.355641 -0.355641 0.355641 0.000000 -0.000000 1.000000 212 137 55
0.355641 -0.355641 0.355641 0.000000 -0.000000 1.000000 122 85 50
-0.355641 2.355641 -0.355641 -1.000000 0.000000 0.000000 0 0 0
-0.355641 -0.355641 -0.355641 -1.000000 0.000000 0.000000 0 0 0
-0.355641 -0.355641 0.355641 -1.000000 0.000000 0.000000 0 0 0
0.355641 2.355641 -0.355641 0.000000 0.000000 -1.000000 56 36 14
0.355641 -0.355641 -0.355641 0.000000 0.000000 -1.000000 56 36 14
-0.355641 -0.355641 -0.355641 0.000000 0.000000 -1.000000 0 0 0
0.355641 -0.355641 0.355641 0.000000 -1.000000 0.000000 255 162 57
-0.355641 -0.355641 0.355641 0.000000 -1.000000 0.000000 255 162 57
-0.355641 -0.355641 -0.355641 0.000000 -1.000000 0.000000 255 163 58
-0.355641 2.355641 0.355641 0.000000 1.000000 -0.000000 0 0 0
0.355641 2.355641 0.355641 0.000000 1.000000 -0.000000 56 36 14
0.355641 2.355641 -0.355641 0.000000 1.000000 -0.000000 56 36 14
-2.000000 1.000000 0.000000 -0.000000 -0.000000 -1.000000 255 0 27
-2.000000 3.000000 -0.000000 -0.000000 -0.000000 -1.000000 255 10 0
0.000000 3.000000 -0.000000 -0.000000 -0.000000 -1.000000 255 10 0
0.355641 2.355641 -0.355641 1.000000 -0.000000 0.000000 0 0 0
0.355641 2.355641 0.355641 0.000000 -0.000000 1.000000 2 1 1
-0.355641 2.355641 0.355641 -1.000000 0.000000 0.000000 10 7 5
-0.355641 2.355641 -0.355641 0.000000 0.000000 -1.000000 0 0 0
0.355641 -0.355641 -0.355641 0.000000 -1.000000 0.000000 255 162 57
-0.355641 2.355641 -0.355641 0.000000 1.000000 0.000000 0 0 0
0.000000 1.000000 0.000000 0.000000 -0.000000 -1.000000 252 10 0
3 0 1 2
3 3 4 5
3 6 7 8
3 9 10 11
3 12 13 14
3 15 16 17
3 18 19 20
3 21 0 2
3 22 3 5
3 23 6 8
3 24 9 11
3 25 12 14
3 26 15 17
3 27 18 20
