ply
format ascii 1.0
comment Created by Blender 2.76 (sub 0) - www.blender.org, source file: 'shop.blend'
element vertex 176
property float x
property float y
property float z
property float nx
property float ny
property float nz
property uchar red
property uchar green
property uchar blue
element face 92
property list uchar uint vertex_indices
end_header
-0.739893 2.248597 1.096303 1.000000 0.000000 0.000000 150 111 51
-0.739893 0.315692 1.096303 1.000000 0.000000 0.000000 150 111 51
-0.739893 0.315692 0.881536 1.000000 0.000000 0.000000 151 112 52
-0.954661 2.248597 1.096303 0.000000 -0.000000 1.000000 150 111 51
-0.954661 0.315692 1.096303 0.000000 -0.000000 1.000000 150 111 51
-0.739893 0.315692 1.096303 0.000000 -0.000000 1.000000 150 111 51
-0.954661 2.248597 0.881536 -1.000000 0.000000 0.000000 150 111 51
-0.954661 0.315692 0.881536 -1.000000 0.000000 0.000000 150 111 51
-0.954661 0.315692 1.096303 -1.000000 0.000000 0.000000 150 111 51
-0.739893 2.248597 0.881536 0.000000 0.000000 -1.000000 151 112 53
-0.739893 0.315692 0.881536 0.000000 0.000000 -1.000000 150 111 51
-0.954661 0.315692 0.881536 0.000000 0.000000 -1.000000 150 111 51
-0.739893 0.315692 1.096303 0.000000 -1.000000 0.000000 255 255 255
-0.954661 0.315692 1.096303 0.000000 -1.000000 0.000000 255 255 255
-0.954661 0.315692 0.881536 0.000000 -1.000000 0.000000 255 255 255
-0.954661 2.248597 1.096303 0.000000 1.000000 -0.000000 150 111 51
-0.739893 2.248597 1.096303 0.000000 1.000000 -0.000000 150 111 51
-0.739893 2.248597 0.881536 0.000000 1.000000 -0.000000 151 112 53
0.941160 0.698523 1.724337 1.000000 0.000000 0.000000 150 111 51
0.941160 -0.162193 1.724337 1.000000 0.000000 0.000000 150 111 51
0.941160 -0.162193 0.863621 1.000000 0.000000 0.000000 150 111 51
-0.960863 0.698523 1.724337 0.000000 -0.000000 1.000000 150 111 51
-0.960863 -0.162193 1.724337 0.000000 -0.000000 1.000000 150 111 51
0.941160 -0.162193 1.724337 0.000000 -0.000000 1.000000 150 111 51
-0.960863 0.698523 0.863621 -1.000000 0.000000 0.000000 150 111 51
-0.960863 -0.162193 0.863621 -1.000000 0.000000 0.000000 150 111 51
-0.960863 -0.162193 1.724337 -1.000000 0.000000 0.000000 150 111 51
0.941160 0.698523 0.863621 0.000000 0.000000 -1.000000 150 111 52
0.941160 -0.162193 0.863621 0.000000 0.000000 -1.000000 150 111 51
-0.960863 -0.162193 0.863621 0.000000 0.000000 -1.000000 150 111 51
0.941160 -0.162193 1.724337 0.000000 -1.000000 0.000000 0 0 0
-0.960863 -0.162193 1.724337 0.000000 -1.000000 0.000000 0 0 0
-0.960863 -0.162193 0.863621 0.000000 -1.000000 0.000000 0 0 0
-0.960863 0.698523 1.724337 0.000000 1.000000 -0.000000 150 111 51
0.941160 0.698523 1.724337 0.000000 1.000000 -0.000000 150 111 51
0.941160 0.698523 0.863621 0.000000 1.000000 -0.000000 150 111 51
-0.739893 1.926446 1.718697 1.000000 0.000000 0.000000 168 136 87
-0.739893 0.637843 1.718697 1.000000 0.000000 0.000000 150 111 51
-0.739893 0.637843 1.503930 1.000000 0.000000 0.000000 150 111 51
-0.954661 1.926446 1.718697 0.000000 -0.000000 1.000000 150 111 51
-0.954661 0.637843 1.718697 0.000000 -0.000000 1.000000 150 111 51
-0.739893 0.637843 1.718697 0.000000 -0.000000 1.000000 150 111 51
-0.954661 1.926446 1.503930 -1.000000 0.000000 0.000000 150 111 51
-0.954661 0.637843 1.503930 -1.000000 0.000000 0.000000 150 111 51
-0.954661 0.637843 1.718697 -1.000000 0.000000 0.000000 150 111 51
-0.739893 1.926446 1.503930 0.000000 0.000000 -1.000000 150 111 51
-0.739893 0.637843 1.503930 0.000000 0.000000 -1.000000 150 111 51
-0.954661 0.637843 1.503930 0.000000 0.000000 -1.000000 150 111 51
-0.739893 0.637843 1.718697 0.000000 -1.000000 0.000000 255 255 255
-0.954661 0.637843 1.718697 0.000000 -1.000000 0.000000 255 255 255
-0.954661 0.637843 1.503930 0.000000 -1.000000 0.000000 255 255 255
-0.954661 1.926446 1.718697 0.000000 1.000000 -0.000000 150 111 51
-0.739893 1.926446 1.718697 0.000000 1.000000 -0.000000 150 111 51
-0.739893 1.926446 1.503930 0.000000 1.000000 -0.000000 150 111 51
0.937208 2.248597 1.096303 1.000000 0.000000 0.000000 150 111 51
0.937208 0.315692 1.096303 1.000000 0.000000 0.000000 150 111 51
0.937208 0.315692 0.881536 1.000000 0.000000 0.000000 150 111 51
0.722440 2.248597 1.096303 0.000000 -0.000000 1.000000 150 111 51
0.722440 0.315692 1.096303 0.000000 -0.000000 1.000000 150 111 51
0.937208 0.315692 1.096303 0.000000 -0.000000 1.000000 150 111 51
0.722440 2.248597 0.881536 -1.000000 0.000000 0.000000 150 111 51
0.722440 0.315692 0.881536 -1.000000 0.000000 0.000000 156 119 61
0.722440 0.315692 1.096303 -1.000000 0.000000 0.000000 151 112 52
0.937208 2.248597 0.881536 0.000000 0.000000 -1.000000 150 111 51
0.937208 0.315692 0.881536 0.000000 0.000000 -1.000000 150 111 51
0.722440 0.315692 0.881536 0.000000 0.000000 -1.000000 151 112 52
0.937208 0.315692 1.096303 0.000000 -1.000000 0.000000 255 255 255
0.722440 0.315692 1.096303 0.000000 -1.000000 0.000000 255 255 255
0.722440 0.315692 0.881536 0.000000 -1.000000 0.000000 255 255 255
0.722440 2.248597 1.096303 0.000000 1.000000 -0.000000 150 111 51
0.937208 2.248597 1.096303 0.000000 1.000000 -0.000000 152 114 56
0.937208 2.248597 0.881536 0.000000 1.000000 -0.000000 150 111 51
0.937208 1.926446 1.718697 1.000000 0.000000 0.000000 150 111 51
0.937208 0.637843 1.718697 1.000000 0.000000 0.000000 150 111 51
0.937208 0.637843 1.503930 1.000000 0.000000 0.000000 150 111 51
0.722440 1.926446 1.718697 0.000000 -0.000000 1.000000 150 111 51
0.722440 0.637843 1.718697 0.000000 -0.000000 1.000000 150 111 51
0.937208 0.637843 1.718697 0.000000 -0.000000 1.000000 150 111 51
0.722440 1.926446 1.503930 -1.000000 0.000000 0.000000 150 111 52
0.722440 0.637843 1.503930 -1.000000 0.000000 0.000000 150 111 51
0.722440 0.637843 1.718697 -1.000000 0.000000 0.000000 150 111 51
0.937208 1.926446 1.503930 0.000000 0.000000 -1.000000 152 114 56
0.937208 0.637843 1.503930 0.000000 0.000000 -1.000000 150 111 51
0.722440 0.637843 1.503930 0.000000 0.000000 -1.000000 150 111 51
0.937208 0.637843 1.718697 0.000000 -1.000000 0.000000 255 255 255
0.722440 0.637843 1.718697 0.000000 -1.000000 0.000000 255 255 255
0.722440 0.637843 1.503930 0.000000 -1.000000 0.000000 255 255 255
0.722440 1.926446 1.718697 0.000000 1.000000 -0.000000 150 111 51
0.937208 1.926446 1.718697 0.000000 1.000000 -0.000000 150 111 51
0.937208 1.926446 1.503930 0.000000 1.000000 -0.000000 150 111 51
-0.485691 2.188619 1.269452 -0.000000 0.882505 0.470303 255 2 0
-0.067355 2.306239 1.048743 -0.000000 0.882505 0.470303 255 5 3
-0.485691 2.306239 1.048743 -0.000000 0.882505 0.470303 255 2 0
0.472875 2.070998 1.490161 -0.000000 0.882504 0.470304 243 255 241
0.472875 2.188619 1.269452 -0.000000 0.882504 0.470304 243 255 241
-0.067355 2.188619 1.269452 -0.000000 0.882504 0.470304 243 255 241
-0.485691 2.306239 1.048743 -0.000000 0.882505 0.470303 243 255 241
-0.945461 2.306239 1.048743 -0.000000 0.882505 0.470303 243 255 241
-0.945461 2.188619 1.269452 -0.000000 0.882505 0.470303 244 255 242
0.972875 2.188619 1.269452 0.000000 0.882505 0.470303 251 153 155
0.972875 2.306239 1.048743 0.000000 0.882505 0.470303 254 29 30
0.472875 2.188619 1.269452 0.000000 0.882505 0.470303 255 0 1
-0.739893 2.248597 0.881536 1.000000 -0.000000 0.000000 150 111 51
-0.739893 2.248597 1.096303 0.000000 -0.000000 1.000000 150 111 51
-0.954661 2.248597 1.096303 -1.000000 0.000000 0.000000 150 111 51
-0.954661 2.248597 0.881536 0.000000 0.000000 -1.000000 150 111 51
-0.739893 0.315692 0.881536 0.000000 -1.000000 0.000000 255 255 255
-0.954661 2.248597 0.881536 0.000000 1.000000 0.000000 150 111 51
0.941160 0.698523 0.863621 1.000000 -0.000000 0.000000 150 111 51
0.941160 0.698523 1.724337 0.000000 -0.000000 1.000000 150 111 51
-0.960863 0.698523 1.724337 -1.000000 0.000000 0.000000 150 111 51
-0.960863 0.698523 0.863621 0.000000 0.000000 -1.000000 150 111 51
0.941160 -0.162193 0.863621 0.000000 -1.000000 0.000000 0 0 0
-0.960863 0.698523 0.863621 0.000000 1.000000 0.000000 150 111 51
-0.739893 1.926446 1.503930 1.000000 -0.000000 0.000000 150 111 51
-0.739893 1.926446 1.718697 0.000000 -0.000000 1.000000 151 112 52
-0.954661 1.926446 1.718697 -1.000000 0.000000 0.000000 150 111 51
-0.954661 1.926446 1.503930 0.000000 0.000000 -1.000000 151 112 52
-0.739893 0.637843 1.503930 0.000000 -1.000000 0.000000 255 255 255
-0.954661 1.926446 1.503930 0.000000 1.000000 0.000000 150 111 51
0.937208 2.248597 0.881536 1.000000 -0.000000 0.000000 150 111 52
0.937208 2.248597 1.096303 0.000000 -0.000000 1.000000 151 112 52
0.722440 2.248597 1.096303 -1.000000 0.000000 0.000000 150 111 51
0.722440 2.248597 0.881536 0.000000 0.000000 -1.000000 150 111 51
0.937208 0.315692 0.881536 0.000000 -1.000000 0.000000 255 255 255
0.722440 2.248597 0.881536 0.000000 1.000000 0.000000 162 128 75
0.937208 1.926446 1.503930 1.000000 -0.000000 0.000000 150 111 51
0.937208 1.926446 1.718697 0.000000 -0.000000 1.000000 152 114 56
0.722440 1.926446 1.718697 -1.000000 0.000000 0.000000 150 111 51
0.722440 1.926446 1.503930 0.000000 0.000000 -1.000000 153 115 57
0.937208 0.637843 1.503930 0.000000 -1.000000 0.000000 255 255 255
0.722440 1.926446 1.503930 0.000000 1.000000 0.000000 150 111 51
-0.485691 2.423859 0.828033 0.000000 0.882505 0.470303 255 2 0
-0.067355 2.423859 0.828033 0.000000 0.882505 0.470303 255 2 0
-0.485691 2.070998 1.490161 0.000000 0.882505 0.470303 255 2 0
-0.485691 1.953378 1.710870 0.000000 0.882505 0.470303 255 2 0
-0.067355 1.953378 1.710870 0.000000 0.882505 0.470303 255 0 1
-0.485691 2.188619 1.269452 0.000000 0.882504 0.470304 255 2 0
-0.485691 2.070998 1.490161 0.000000 0.882504 0.470304 255 2 0
-0.067355 2.070998 1.490161 0.000000 0.882504 0.470304 255 3 1
-0.067355 2.070998 1.490161 -0.000000 0.882505 0.470303 255 3 1
-0.067355 2.188619 1.269452 0.000000 0.882505 0.470303 255 2 0
-0.067355 2.188619 1.269452 0.000000 0.882504 0.470304 255 2 0
-0.067355 2.070998 1.490161 0.000000 0.882505 0.470303 243 255 241
-0.067355 1.953378 1.710870 0.000000 0.882505 0.470303 243 255 241
0.472875 1.953378 1.710870 0.000000 0.882505 0.470303 243 255 241
0.472875 2.423859 0.828033 -0.000000 0.882505 0.470303 243 255 241
-0.067355 2.423859 0.828033 -0.000000 0.882505 0.470303 243 255 241
-0.067355 2.306239 1.048743 -0.000000 0.882505 0.470303 243 255 241
-0.067355 2.070998 1.490161 0.000000 0.882504 0.470304 243 255 241
0.472875 2.306239 1.048743 0.000000 0.882505 0.470303 243 255 241
0.472875 2.188619 1.269452 0.000000 0.882505 0.470303 243 255 241
-0.067355 2.188619 1.269452 0.000000 0.882505 0.470303 243 255 241
0.472875 2.070998 1.490161 -0.000000 0.882505 0.470303 243 255 241
-0.945461 2.188619 1.269452 0.000000 0.882504 0.470304 244 255 242
-0.945461 2.070998 1.490161 0.000000 0.882504 0.470304 243 255 241
-0.485691 2.070998 1.490161 0.000000 0.882504 0.470304 243 255 241
-0.945461 1.953378 1.710870 0.000000 0.882505 0.470303 243 255 241
-0.485691 1.953378 1.710870 0.000000 0.882505 0.470303 243 255 241
-0.485691 2.070998 1.490161 0.000000 0.882505 0.470303 243 255 241
-0.485691 2.188619 1.269452 -0.000000 0.882504 0.470304 243 255 241
-0.485691 2.423859 0.828033 -0.000000 0.882505 0.470303 243 255 241
-0.945461 2.423859 0.828033 -0.000000 0.882505 0.470303 243 255 241
-0.945461 2.070998 1.490161 0.000000 0.882505 0.470303 243 255 241
-0.485691 2.188619 1.269452 0.000000 0.882505 0.470303 243 255 241
0.472875 2.423859 0.828033 0.000000 0.882505 0.470303 255 0 1
0.472875 2.306239 1.048743 0.000000 0.882505 0.470303 255 0 1
0.472875 2.188619 1.269452 0.000000 0.882504 0.470304 255 0 1
0.472875 2.070998 1.490161 0.000000 0.882504 0.470304 255 0 1
0.972875 2.070998 1.490161 0.000000 0.882504 0.470304 255 0 1
0.472875 1.953378 1.710870 0.000000 0.882505 0.470303 255 0 4
0.972875 1.953378 1.710870 0.000000 0.882505 0.470303 255 0 1
0.972875 2.070998 1.490161 0.000000 0.882505 0.470303 255 0 1
0.972875 2.188619 1.269452 -0.000000 0.882504 0.470304 251 153 155
0.972875 2.423859 0.828033 -0.000000 0.882505 0.470303 255 0 1
0.472875 2.070998 1.490161 -0.000000 0.882505 0.470303 255 0 1
3 0 1 2
3 3 4 5
3 6 7 8
3 9 10 11
3 12 13 14
3 15 16 17
3 18 19 20
3 21 22 23
3 24 25 26
3 27 28 29
3 30 31 32
3 33 34 35
3 36 37 38
3 39 40 41
3 42 43 44
3 45 46 47
3 48 49 50
3 51 52 53
3 54 55 56
3 57 58 59
3 60 61 62
3 63 64 65
3 66 67 68
3 69 70 71
3 72 73 74
3 75 76 77
3 78 79 80
3 81 82 83
3 84 85 86
3 87 88 89
3 90 91 92
3 93 94 95
3 96 97 98
3 99 100 101
3 102 0 2
3 103 3 5
3 104 6 8
3 105 9 11
3 106 12 14
3 107 15 17
3 108 18 20
3 109 21 23
3 110 24 26
3 111 27 29
3 112 30 32
3 113 33 35
3 114 36 38
3 115 39 41
3 116 42 44
3 117 45 47
3 118 48 50
3 119 51 53
3 120 54 56
3 121 57 59
3 122 60 62
3 123 63 65
3 124 66 68
3 125 69 71
3 126 72 74
3 127 75 77
3 128 78 80
3 129 81 83
3 130 84 86
3 131 87 89
3 132 92 133
3 134 135 136
3 133 92 91
3 137 138 139
3 136 140 134
3 141 91 90
3 137 139 142
3 143 144 145
3 146 147 148
3 95 149 93
3 146 148 150
3 151 150 152
3 145 153 143
3 148 152 150
3 154 155 156
3 157 158 159
3 156 160 154
3 96 161 162
3 162 97 96
3 163 157 159
3 164 96 98
3 165 166 100
3 167 168 169
3 170 171 172
3 169 173 167
3 100 174 165
3 166 101 100
3 170 172 175
