ply
format ascii 1.0
comment Created by Blender 2.76 (sub 0) - www.blender.org, source file: 'antenna.blend'
element vertex 104
property float x
property float y
property float z
property float nx
property float ny
property float nz
property uchar red
property uchar green
property uchar blue
element face 38
property list uchar uint vertex_indices
end_header
0.000000 1.814900 0.000000 -0.187597 -0.794651 -0.577354 0 255 0
-0.435896 2.147897 -0.316693 -0.187597 -0.794651 -0.577354 0 255 0
0.166494 2.147897 -0.512424 -0.187597 -0.794651 -0.577354 0 255 0
-0.435896 2.147897 -0.316693 -0.607065 -0.794652 0.000000 0 255 0
0.000000 1.814900 0.000000 -0.607065 -0.794652 0.000000 0 255 0
-0.435896 2.147897 0.316693 -0.607065 -0.794652 0.000000 0 255 0
0.000000 1.814900 0.000000 0.491122 -0.794652 -0.356829 0 255 0
0.166494 2.147897 -0.512424 0.491122 -0.794652 -0.356829 0 255 0
0.538800 2.147897 0.000000 0.491122 -0.794652 -0.356829 0 255 0
0.000000 1.814900 0.000000 0.491122 -0.794652 0.356829 0 253 0
0.538800 2.147897 0.000000 0.491122 -0.794652 0.356829 0 255 0
0.166494 2.147897 0.512424 0.491122 -0.794652 0.356829 0 255 0
0.000000 1.814900 0.000000 -0.187597 -0.794651 0.577354 0 255 0
0.166494 2.147897 0.512424 -0.187597 -0.794651 0.577354 0 255 0
-0.435896 2.147897 0.316693 -0.187597 -0.794651 0.577354 0 255 0
-0.435896 2.147897 -0.316693 -0.982246 -0.187597 -0.000000 0 255 0
-0.435896 2.147897 0.316693 -0.982246 -0.187597 -0.000000 0 255 0
-0.538800 2.686700 0.000000 -0.982246 -0.187597 -0.000000 1 250 1
0.166494 2.147897 -0.512424 -0.303536 -0.187589 -0.934171 0 255 0
-0.435896 2.147897 -0.316693 -0.303536 -0.187589 -0.934171 0 255 0
-0.166494 2.686700 -0.512424 -0.303536 -0.187589 -0.934171 0 255 0
0.538800 2.147897 0.000000 0.794649 -0.187587 -0.577359 0 255 0
0.166494 2.147897 -0.512424 0.794649 -0.187587 -0.577359 0 255 0
0.435896 2.686700 -0.316693 0.794649 -0.187587 -0.577359 0 255 0
0.166494 2.147897 0.512424 0.794649 -0.187587 0.577359 0 255 0
0.538800 2.147897 0.000000 0.794649 -0.187587 0.577359 0 255 0
0.435896 2.686700 0.316693 0.794649 -0.187587 0.577359 0 255 0
-0.435896 2.147897 0.316693 -0.303536 -0.187589 0.934171 0 255 0
0.166494 2.147897 0.512424 -0.303536 -0.187589 0.934171 0 255 0
-0.166494 2.686700 0.512424 -0.303536 -0.187589 0.934171 0 255 0
-0.435896 2.147897 -0.316693 -0.794649 0.187587 -0.577359 0 255 0
-0.538800 2.686700 0.000000 -0.794649 0.187587 -0.577359 0 255 0
-0.166494 2.686700 -0.512424 -0.794649 0.187587 -0.577359 0 255 0
0.166494 2.147897 -0.512424 0.303536 0.187589 -0.934171 0 255 0
-0.166494 2.686700 -0.512424 0.303536 0.187589 -0.934171 0 255 0
0.435896 2.686700 -0.316693 0.303536 0.187589 -0.934171 0 255 0
0.538800 2.147897 0.000000 0.982246 0.187597 0.000000 0 255 0
0.435896 2.686700 -0.316693 0.982246 0.187597 0.000000 0 255 0
0.435896 2.686700 0.316693 0.982246 0.187597 0.000000 0 255 0
0.166494 2.147897 0.512424 0.303536 0.187589 0.934171 0 255 0
0.435896 2.686700 0.316693 0.303536 0.187589 0.934171 0 255 0
-0.166494 2.686700 0.512424 0.303536 0.187589 0.934171 0 255 0
-0.435896 2.147897 0.316693 -0.794649 0.187587 0.577359 0 255 0
-0.166494 2.686700 0.512424 -0.794649 0.187587 0.577359 0 255 0
-0.538800 2.686700 0.000000 -0.794649 0.187587 0.577359 0 255 0
-0.166494 2.686700 -0.512424 -0.491122 0.794652 -0.356829 0 255 0
-0.538800 2.686700 0.000000 -0.491122 0.794652 -0.356829 0 255 0
0.000000 3.019697 0.000000 -0.491122 0.794652 -0.356829 0 255 0
0.435896 2.686700 -0.316693 0.187597 0.794651 -0.577354 0 255 0
-0.166494 2.686700 -0.512424 0.187597 0.794651 -0.577354 0 255 0
0.000000 3.019697 0.000000 0.187597 0.794651 -0.577354 0 255 0
0.435896 2.686700 0.316693 0.607065 0.794652 -0.000000 0 255 0
0.435896 2.686700 -0.316693 0.607065 0.794652 -0.000000 0 255 0
0.000000 3.019697 0.000000 0.607065 0.794652 -0.000000 0 255 0
-0.166494 2.686700 0.512424 0.187597 0.794651 0.577354 0 255 0
0.435896 2.686700 0.316693 0.187597 0.794651 0.577354 0 255 0
0.000000 3.019697 0.000000 0.187597 0.794651 0.577354 0 255 0
-0.538800 2.686700 0.000000 -0.491122 0.794652 0.356829 0 255 0
-0.166494 2.686700 0.512424 -0.491122 0.794652 0.356829 0 255 0
0.000000 3.019697 0.000000 -0.491122 0.794652 0.356829 0 255 0
-0.197085 0.179280 -0.197085 0.000000 -0.000000 -1.000000 143 143 143
-0.197085 2.179280 -0.197086 0.000000 -0.000000 -1.000000 143 143 143
0.197085 0.179280 -0.197085 0.000000 -0.000000 -1.000000 143 143 143
-0.197085 0.179280 0.197085 -1.000000 -0.000000 0.000000 143 143 143
-0.197086 2.179280 0.197085 -1.000000 -0.000000 0.000000 143 143 143
-0.197085 0.179280 -0.197085 -1.000000 -0.000000 0.000000 143 143 143
-0.197086 2.179280 0.197085 -1.000000 0.000000 -0.000001 143 143 143
-0.197085 2.179280 -0.197086 -1.000000 0.000000 -0.000001 143 143 143
-0.197085 0.179280 -0.197085 -1.000000 0.000000 -0.000001 143 143 143
-0.197085 2.179280 -0.197086 0.000001 0.000000 -1.000000 143 143 143
0.197086 2.179280 -0.197085 0.000001 0.000000 -1.000000 143 143 143
0.197085 0.179280 -0.197085 0.000001 0.000000 -1.000000 143 143 143
0.197086 2.179280 -0.197085 1.000000 -0.000000 0.000000 143 143 143
0.197085 2.179280 0.197085 1.000000 -0.000000 0.000000 143 143 143
0.197085 0.179280 0.197086 1.000000 -0.000000 0.000000 143 143 143
-0.197085 0.179280 0.197085 -0.000000 0.000000 1.000000 143 143 143
0.197085 0.179280 0.197086 -0.000000 0.000000 1.000000 143 143 143
0.197085 2.179280 0.197085 -0.000000 0.000000 1.000000 143 143 143
0.197085 0.179280 -0.197085 1.000000 -0.000000 0.000000 143 143 143
0.529959 0.296734 0.529959 0.000000 1.000000 -0.000000 22 22 22
0.529959 0.296734 -0.529958 0.000000 1.000000 -0.000000 22 22 22
-0.529958 0.296734 -0.529959 0.000000 1.000000 -0.000000 22 22 22
-0.529959 0.296734 0.529958 -1.000000 0.000001 -0.000001 22 22 22
-0.529958 0.296734 -0.529959 -1.000000 0.000001 -0.000001 22 22 22
-0.529959 0.084751 -0.529959 -1.000000 0.000001 -0.000001 22 22 22
-0.529958 0.296734 -0.529959 0.000000 -0.000000 -1.000000 22 22 22
0.529959 0.296734 -0.529958 0.000000 -0.000000 -1.000000 22 22 22
0.529959 0.084751 -0.529958 0.000000 -0.000000 -1.000000 22 22 22
0.529959 0.084751 -0.529958 1.000000 -0.000001 0.000000 22 22 22
0.529959 0.296734 -0.529958 1.000000 -0.000001 0.000000 22 22 22
0.529959 0.296734 0.529959 1.000000 -0.000001 0.000000 22 22 22
-0.529959 0.084751 0.529959 -0.000000 0.000001 1.000000 22 22 22
0.529958 0.084751 0.529959 -0.000000 0.000001 1.000000 22 22 22
0.529959 0.296734 0.529959 -0.000000 0.000001 1.000000 22 22 22
-0.197086 2.179280 0.197085 -0.000000 0.000000 1.000000 143 143 143
-0.529959 0.296734 0.529958 0.000000 1.000000 -0.000000 22 22 22
-0.529959 0.084751 0.529959 -1.000000 -0.000001 0.000000 22 22 22
-0.529959 0.296734 0.529958 -1.000000 -0.000001 0.000000 22 22 22
-0.529959 0.084751 -0.529959 -1.000000 -0.000001 0.000000 22 22 22
-0.529959 0.084751 -0.529959 0.000000 -0.000002 -1.000000 22 22 22
-0.529958 0.296734 -0.529959 0.000000 -0.000002 -1.000000 22 22 22
0.529959 0.084751 -0.529958 0.000000 -0.000002 -1.000000 22 22 22
0.529958 0.084751 0.529959 1.000000 -0.000001 0.000000 22 22 22
-0.529959 0.296734 0.529958 -0.000000 0.000001 1.000000 22 22 22
3 0 1 2
3 3 4 5
3 6 7 8
3 9 10 11
3 12 13 14
3 15 16 17
3 18 19 20
3 21 22 23
3 24 25 26
3 27 28 29
3 30 31 32
3 33 34 35
3 36 37 38
3 39 40 41
3 42 43 44
3 45 46 47
3 48 49 50
3 51 52 53
3 54 55 56
3 57 58 59
3 60 61 62
3 63 64 65
3 66 67 68
3 69 70 71
3 72 73 74
3 75 76 77
3 78 72 74
3 79 80 81
3 82 83 84
3 85 86 87
3 88 89 90
3 91 92 93
3 94 75 77
3 95 79 81
3 96 97 98
3 99 100 101
3 102 88 90
3 103 91 93
