ply
format ascii 1.0
comment Created by Blender 2.76 (sub 0) - www.blender.org, source file: 'boss.blend'
element vertex 12
property float x
property float y
property float z
property float nx
property float ny
property float nz
property uchar red
property uchar green
property uchar blue
element face 4
property list uchar uint vertex_indices
end_header
0.000000 2.000000 0.000000 0.894427 0.447214 -0.000000 0 0 0
1.000000 0.000000 1.000000 0.894427 0.447214 -0.000000 247 0 0
1.000000 0.000000 -1.000000 0.894427 0.447214 -0.000000 255 0 0
0.000000 2.000000 0.000000 0.000000 0.447214 0.894427 1 0 0
-1.000000 0.000000 1.000000 0.000000 0.447214 0.894427 255 0 0
1.000000 0.000000 1.000000 0.000000 0.447214 0.894427 255 0 0
0.000000 2.000000 0.000000 -0.894427 0.447214 0.000000 0 0 0
-1.000000 0.000000 -1.000000 -0.894427 0.447214 0.000000 255 0 0
-1.000000 0.000000 1.000000 -0.894427 0.447214 0.000000 255 0 0
0.000000 2.000000 0.000000 0.000000 0.447214 -0.894427 0 0 0
1.000000 0.000000 -1.000000 0.000000 0.447214 -0.894427 255 0 0
-1.000000 0.000000 -1.000000 0.000000 0.447214 -0.894427 255 0 14
3 0 1 2
3 3 4 5
3 6 7 8
3 9 10 11
