ply
format ascii 1.0
comment Created by Blender 2.76 (sub 0) - www.blender.org, source file: 'kite.blend'
element vertex 16
property float x
property float y
property float z
property float nx
property float ny
property float nz
property uchar red
property uchar green
property uchar blue
element face 8
property list uchar uint vertex_indices
end_header
0.340543 1.249982 0.055416 0.000000 1.000000 -0.000000 0 0 0
0.340543 1.249982 -0.044584 0.000000 1.000000 -0.000000 0 0 0
0.140543 1.249982 -0.044584 0.000000 1.000000 -0.000000 0 0 0
0.144643 1.249982 0.245416 0.000000 1.000000 -0.000000 0 0 0
0.144643 1.249982 -0.234584 0.000000 1.000000 -0.000000 0 0 0
0.044643 1.249982 -0.234584 0.000000 1.000000 -0.000000 0 0 0
-0.350401 1.250000 0.050000 0.000000 1.000000 -0.000000 0 0 0
-0.150401 1.250000 0.050000 0.000000 1.000000 -0.000000 0 0 0
-0.150401 1.250000 -0.050000 0.000000 1.000000 -0.000000 0 0 0
-0.154501 1.250000 -0.240000 0.000000 1.000000 0.000000 0 0 0
-0.154501 1.250000 0.240000 0.000000 1.000000 0.000000 0 0 0
-0.054501 1.250000 0.240000 0.000000 1.000000 0.000000 0 0 0
0.140543 1.249982 0.055416 0.000000 1.000000 -0.000000 0 0 0
0.044643 1.249982 0.245416 0.000000 1.000000 -0.000000 0 0 0
-0.350401 1.250000 -0.050000 0.000000 1.000000 0.000000 0 0 0
-0.054501 1.250000 -0.240000 0.000000 1.000000 0.000000 0 0 0
3 0 1 2
3 3 4 5
3 6 7 8
3 9 10 11
3 12 0 2
3 13 3 5
3 14 6 8
3 15 9 11
