ply
format ascii 1.0
comment Created by Blender 2.76 (sub 0) - www.blender.org, source file: 'dice.blend'
element vertex 60
property float x
property float y
property float z
property float nx
property float ny
property float nz
property uchar red
property uchar green
property uchar blue
element face 20
property list uchar uint vertex_indices
end_header
0.000000 1.200000 0.000000 -0.176786 -0.837253 -0.517449 0 255 255
-0.242703 1.365836 -0.185409 -0.176786 -0.837253 -0.517449 0 255 255
0.092703 1.365836 -0.300000 -0.176786 -0.837253 -0.517449 0 255 255
-0.242703 1.365836 -0.185409 -0.564163 -0.825663 0.000000 0 255 255
0.000000 1.200000 0.000000 -0.564163 -0.825663 0.000000 0 255 255
-0.242703 1.365836 0.185409 -0.564163 -0.825663 0.000000 0 255 255
0.000000 1.200000 0.000000 0.458830 -0.830034 -0.317048 0 253 255
0.092703 1.365836 -0.300000 0.458830 -0.830034 -0.317048 0 255 255
0.300000 1.365836 0.000000 0.458830 -0.830034 -0.317048 0 0 255
0.000000 1.200000 0.000000 0.458830 -0.830034 0.317048 0 253 255
0.300000 1.365836 0.000000 0.458830 -0.830034 0.317048 0 0 255
0.092703 1.365836 0.300000 0.458830 -0.830034 0.317048 0 255 255
0.000000 1.200000 0.000000 -0.176786 -0.837253 0.517449 0 255 255
0.092703 1.365836 0.300000 -0.176786 -0.837253 0.517449 0 255 255
-0.242703 1.365836 0.185409 -0.176786 -0.837253 0.517449 0 255 255
-0.242703 1.365836 -0.185409 -0.977953 -0.208824 -0.000000 0 255 255
-0.242703 1.365836 0.185409 -0.977953 -0.208824 -0.000000 0 255 255
-0.300000 1.634164 0.000000 -0.977953 -0.208824 -0.000000 0 255 255
0.092703 1.365836 -0.300000 -0.315525 -0.218016 -0.923533 0 255 255
-0.242703 1.365836 -0.185409 -0.315525 -0.218016 -0.923533 0 255 255
-0.092703 1.634164 -0.300000 -0.315525 -0.218016 -0.923533 0 10 255
0.300000 1.365836 0.000000 0.803965 -0.212188 -0.555533 0 0 255
0.092703 1.365836 -0.300000 0.803965 -0.212188 -0.555533 0 255 255
0.242703 1.634164 -0.185409 0.803965 -0.212188 -0.555533 0 13 255
0.092703 1.365836 0.300000 0.803965 -0.212188 0.555533 0 255 255
0.300000 1.365836 0.000000 0.803965 -0.212188 0.555533 0 0 255
0.242703 1.634164 0.185409 0.803965 -0.212188 0.555533 0 255 255
-0.242703 1.365836 0.185409 -0.315525 -0.218016 0.923533 0 255 255
0.092703 1.365836 0.300000 -0.315525 -0.218016 0.923533 0 255 255
-0.092703 1.634164 0.300000 -0.315525 -0.218016 0.923533 0 0 255
-0.242703 1.365836 -0.185409 -0.803965 0.212188 -0.555533 0 255 255
-0.300000 1.634164 0.000000 -0.803965 0.212188 -0.555533 0 255 255
-0.092703 1.634164 -0.300000 -0.803965 0.212188 -0.555533 0 11 255
0.092703 1.365836 -0.300000 0.315525 0.218016 -0.923533 0 255 255
-0.092703 1.634164 -0.300000 0.315525 0.218016 -0.923533 0 0 255
0.242703 1.634164 -0.185409 0.315525 0.218016 -0.923533 0 0 255
0.300000 1.365836 0.000000 0.977953 0.208824 0.000000 0 0 255
0.242703 1.634164 -0.185409 0.977953 0.208824 0.000000 0 1 255
0.242703 1.634164 0.185409 0.977953 0.208824 0.000000 0 255 255
0.092703 1.365836 0.300000 0.315525 0.218016 0.923533 0 255 255
0.242703 1.634164 0.185409 0.315525 0.218016 0.923533 0 255 255
-0.092703 1.634164 0.300000 0.315525 0.218016 0.923533 0 0 255
-0.242703 1.365836 0.185409 -0.803965 0.212188 0.555533 0 255 255
-0.092703 1.634164 0.300000 -0.803965 0.212188 0.555533 0 0 255
-0.300000 1.634164 0.000000 -0.803965 0.212188 0.555533 0 255 255
-0.092703 1.634164 -0.300000 -0.458830 0.830034 -0.317048 0 0 255
-0.300000 1.634164 0.000000 -0.458830 0.830034 -0.317048 0 255 255
0.000000 1.800000 0.000000 -0.458830 0.830034 -0.317048 0 255 255
0.242703 1.634164 -0.185409 0.176786 0.837253 -0.517449 0 5 255
-0.092703 1.634164 -0.300000 0.176786 0.837253 -0.517449 0 1 255
0.000000 1.800000 0.000000 0.176786 0.837253 -0.517449 0 255 255
0.242703 1.634164 0.185409 0.564163 0.825663 -0.000000 0 255 255
0.242703 1.634164 -0.185409 0.564163 0.825663 -0.000000 0 0 255
0.000000 1.800000 0.000000 0.564163 0.825663 -0.000000 0 255 255
-0.092703 1.634164 0.300000 0.176786 0.837253 0.517449 0 0 255
0.242703 1.634164 0.185409 0.176786 0.837253 0.517449 0 255 255
0.000000 1.800000 0.000000 0.176786 0.837253 0.517449 0 255 255
-0.300000 1.634164 0.000000 -0.458830 0.830034 0.317048 0 255 255
-0.092703 1.634164 0.300000 -0.458830 0.830034 0.317048 0 9 255
0.000000 1.800000 0.000000 -0.458830 0.830034 0.317048 0 255 255
3 0 1 2
3 3 4 5
3 6 7 8
3 9 10 11
3 12 13 14
3 15 16 17
3 18 19 20
3 21 22 23
3 24 25 26
3 27 28 29
3 30 31 32
3 33 34 35
3 36 37 38
3 39 40 41
3 42 43 44
3 45 46 47
3 48 49 50
3 51 52 53
3 54 55 56
3 57 58 59
