ply
format ascii 1.0
comment Created by Blender 2.76 (sub 0) - www.blender.org, source file: 'flag_holder.blend'
element vertex 42
property float x
property float y
property float z
property float nx
property float ny
property float nz
property uchar red
property uchar green
property uchar blue
element face 18
property list uchar uint vertex_indices
end_header
-1.250000 0.000000 0.000000 -0.377965 0.654653 0.654654 94 90 97
0.625000 0.000000 1.082532 -0.377965 0.654653 0.654654 94 90 97
0.437500 0.216506 0.757772 -0.377965 0.654653 0.654654 94 90 97
0.437500 0.216506 0.757772 0.500000 0.000000 -0.866025 94 90 97
0.437500 -0.216506 0.757772 0.500000 0.000000 -0.866025 94 90 97
-0.875000 -0.216506 0.000000 0.500000 0.000000 -0.866025 94 90 97
-0.875000 -0.216506 0.000000 -0.377965 -0.654654 0.654654 94 90 97
0.437500 -0.216506 0.757772 -0.377965 -0.654654 0.654654 94 90 97
0.625000 0.000000 1.082532 -0.377965 -0.654654 0.654654 94 90 97
0.625000 0.000000 -1.082532 0.755929 0.654654 0.000000 54 52 56
0.437500 0.216506 -0.757772 0.755929 0.654654 0.000000 54 52 56
0.437500 0.216506 0.757772 0.755929 0.654654 0.000000 57 55 59
0.437500 0.216506 -0.757772 -1.000000 0.000000 0.000000 94 90 97
0.437500 -0.216506 -0.757772 -1.000000 0.000000 0.000000 94 90 97
0.437500 -0.216506 0.757772 -1.000000 0.000000 0.000000 94 90 97
0.437500 -0.216506 -0.757772 0.755929 -0.654654 0.000000 94 90 97
0.625000 0.000000 -1.082532 0.755929 -0.654654 0.000000 94 90 97
0.625000 0.000000 1.082532 0.755929 -0.654654 0.000000 94 90 97
-1.250000 0.000000 0.000000 -0.377964 0.654654 -0.654654 94 90 97
-0.875000 0.216506 0.000000 -0.377964 0.654654 -0.654654 94 90 97
0.437500 0.216506 -0.757772 -0.377964 0.654654 -0.654654 94 90 97
-0.875000 0.216506 0.000000 0.500000 -0.000000 0.866025 94 90 97
-0.875000 -0.216506 0.000000 0.500000 -0.000000 0.866025 94 90 97
0.437500 -0.216506 -0.757772 0.500000 -0.000000 0.866025 94 90 97
-0.875000 -0.216506 0.000000 -0.377965 -0.654654 -0.654654 94 90 97
-1.250000 0.000000 0.000000 -0.377965 -0.654654 -0.654654 94 90 97
0.625000 0.000000 -1.082532 -0.377965 -0.654654 -0.654654 94 90 97
-0.875000 0.216506 0.000000 -0.377964 0.654654 0.654654 94 90 97
-1.250000 0.000000 0.000000 -0.377964 0.654654 0.654654 94 90 97
0.437500 0.216506 0.757772 -0.377964 0.654654 0.654654 94 90 97
-0.875000 0.216506 0.000000 0.500000 0.000000 -0.866025 89 85 92
-1.250000 0.000000 0.000000 -0.377965 -0.654654 0.654654 94 90 97
0.625000 0.000000 1.082532 0.755929 0.654654 -0.000000 59 57 61
0.437500 0.216506 0.757772 -1.000000 0.000000 0.000000 94 90 97
0.437500 -0.216506 0.757772 0.755929 -0.654654 0.000000 94 90 97
0.625000 0.000000 -1.082532 -0.377965 0.654654 -0.654654 94 90 97
-1.250000 0.000000 0.000000 -0.377965 0.654654 -0.654654 94 90 97
0.437500 0.216506 -0.757772 -0.377965 0.654654 -0.654654 94 90 97
0.437500 0.216506 -0.757772 0.500000 0.000000 0.866025 94 90 97
0.437500 -0.216506 -0.757772 -0.377965 -0.654653 -0.654654 94 90 97
-0.875000 -0.216506 0.000000 -0.377965 -0.654653 -0.654654 94 90 97
0.625000 0.000000 -1.082532 -0.377965 -0.654653 -0.654654 94 90 97
3 0 1 2
3 3 4 5
3 6 7 8
3 9 10 11
3 12 13 14
3 15 16 17
3 18 19 20
3 21 22 23
3 24 25 26
3 27 28 29
3 30 3 5
3 31 6 8
3 32 9 11
3 33 12 14
3 34 15 17
3 35 36 37
3 38 21 23
3 39 40 41
