ply
format ascii 1.0
comment Created by Blender 2.76 (sub 0) - www.blender.org, source file: 'gold_coin.blend'
element vertex 60
property float x
property float y
property float z
property float nx
property float ny
property float nz
property uchar red
property uchar green
property uchar blue
element face 36
property list uchar uint vertex_indices
end_header
0.000000 0.735939 -0.042685 -0.309017 0.951057 0.000000 255 215 0
-0.200716 0.670722 -0.042685 -0.309017 0.951057 0.000000 255 215 0
-0.200716 0.670722 0.042685 -0.309017 0.951057 0.000000 255 215 0
-0.200716 0.670722 -0.042685 -0.809017 0.587785 0.000000 255 215 0
-0.324765 0.499983 -0.042685 -0.809017 0.587785 0.000000 255 215 0
-0.324765 0.499983 0.042685 -0.809017 0.587785 0.000000 255 215 0
-0.324765 0.499983 -0.042685 -1.000000 0.000000 0.000000 255 215 0
-0.324765 0.288938 -0.042685 -1.000000 0.000000 0.000000 255 215 0
-0.324765 0.288938 0.042685 -1.000000 0.000000 0.000000 255 215 0
-0.324765 0.288938 -0.042685 -0.809017 -0.587785 -0.000000 255 215 0
-0.200716 0.118199 -0.042685 -0.809017 -0.587785 -0.000000 255 215 0
-0.200716 0.118199 0.042685 -0.809017 -0.587785 -0.000000 255 215 0
-0.200716 0.118199 -0.042685 -0.309017 -0.951057 -0.000000 255 215 0
0.000000 0.052982 -0.042685 -0.309017 -0.951057 -0.000000 255 215 0
0.000000 0.052982 0.042685 -0.309017 -0.951057 -0.000000 255 215 0
0.000000 0.052982 -0.042685 0.309017 -0.951056 0.000000 255 215 0
0.200716 0.118199 -0.042685 0.309017 -0.951056 0.000000 255 215 0
0.200716 0.118199 0.042685 0.309017 -0.951056 0.000000 255 215 0
0.200716 0.118199 -0.042685 0.809017 -0.587785 0.000000 255 215 0
0.324765 0.288938 -0.042685 0.809017 -0.587785 0.000000 255 215 0
0.324765 0.288938 0.042685 0.809017 -0.587785 0.000000 255 215 0
0.324765 0.288938 -0.042685 1.000000 0.000000 0.000000 255 215 0
0.324765 0.499983 -0.042685 1.000000 0.000000 0.000000 255 215 0
0.324765 0.499983 0.042685 1.000000 0.000000 0.000000 255 215 0
0.324765 0.499983 -0.042685 0.000000 -0.000000 -1.000000 255 215 0
-0.324765 0.288938 -0.042685 0.000000 -0.000000 -1.000000 255 215 0
-0.324765 0.499983 -0.042685 0.000000 -0.000000 -1.000000 255 215 0
0.200716 0.670722 -0.042685 0.309017 0.951057 0.000000 255 215 0
0.000000 0.735939 -0.042685 0.309017 0.951057 0.000000 255 215 0
0.000000 0.735939 0.042685 0.309017 0.951057 0.000000 255 215 0
0.324765 0.499983 -0.042685 0.809017 0.587785 0.000000 255 215 0
0.200716 0.670722 -0.042685 0.809017 0.587785 0.000000 255 215 0
0.200716 0.670722 0.042685 0.809017 0.587785 0.000000 255 215 0
-0.324765 0.288938 0.042685 0.000000 0.000000 1.000000 255 215 0
0.324765 0.288938 0.042685 0.000000 0.000000 1.000000 255 215 0
0.200716 0.670722 0.042685 0.000000 0.000000 1.000000 255 215 0
0.000000 0.735939 0.042685 -0.309017 0.951057 0.000000 255 215 0
-0.200716 0.670722 0.042685 -0.809017 0.587785 0.000000 255 215 0
-0.324765 0.499983 0.042685 -1.000000 0.000000 0.000000 255 215 0
-0.324765 0.288938 0.042685 -0.809017 -0.587785 0.000000 255 215 0
-0.200716 0.118199 0.042685 -0.309017 -0.951057 0.000000 255 215 0
0.000000 0.052982 0.042685 0.309017 -0.951056 0.000000 255 215 0
0.200716 0.118199 0.042685 0.809017 -0.587785 0.000000 255 215 0
0.324765 0.288938 0.042685 1.000000 0.000000 -0.000000 255 215 0
-0.200716 0.670722 -0.042685 0.000000 -0.000000 -1.000000 255 215 0
0.000000 0.735939 -0.042685 0.000000 -0.000000 -1.000000 255 215 0
0.200716 0.670722 -0.042685 0.000000 -0.000000 -1.000000 233 197 0
0.324765 0.288938 -0.042685 -0.000000 -0.000000 -1.000000 255 215 0
0.200716 0.118199 -0.042685 -0.000000 -0.000000 -1.000000 255 215 0
0.000000 0.052982 -0.042685 -0.000000 -0.000000 -1.000000 255 215 0
-0.200716 0.118199 -0.042685 0.000000 -0.000000 -1.000000 255 215 0
0.200716 0.670722 0.042685 0.309017 0.951057 -0.000000 255 215 0
0.324765 0.499983 0.042685 0.809017 0.587785 -0.000000 255 215 0
0.000000 0.735939 0.042685 -0.000000 0.000000 1.000000 255 215 0
-0.200716 0.670722 0.042685 -0.000000 0.000000 1.000000 255 215 0
-0.324765 0.499983 0.042685 0.000000 0.000000 1.000000 255 215 0
-0.200716 0.118199 0.042685 -0.000000 0.000000 1.000000 255 215 0
0.000000 0.052982 0.042685 -0.000000 0.000000 1.000000 255 215 0
0.200716 0.118199 0.042685 0.000000 0.000000 1.000000 255 215 0
0.324765 0.499983 0.042685 -0.000000 0.000000 1.000000 255 215 0
3 0 1 2
3 3 4 5
3 6 7 8
3 9 10 11
3 12 13 14
3 15 16 17
3 18 19 20
3 21 22 23
3 24 25 26
3 27 28 29
3 30 31 32
3 33 34 35
3 36 0 2
3 37 3 5
3 38 6 8
3 39 9 11
3 40 12 14
3 41 15 17
3 42 18 20
3 43 21 23
3 26 44 24
3 45 46 24
3 24 47 48
3 48 49 24
3 50 25 24
3 44 45 24
3 24 49 50
3 51 27 29
3 52 30 32
3 35 53 54
3 54 55 33
3 33 56 57
3 57 58 34
3 34 59 35
3 35 54 33
3 33 57 34
