ply
format ascii 1.0
comment Created by Blender 2.76 (sub 0) - www.blender.org, source file: 'kite.blend'
element vertex 14
property float x
property float y
property float z
property float nx
property float ny
property float nz
property uchar red
property uchar green
property uchar blue
element face 8
property list uchar uint vertex_indices
end_header
-0.404542 1.250000 0.134847 0.000000 1.000000 0.000000 255 255 255
-0.539389 1.250000 0.539389 0.000000 1.000000 0.000000 255 255 255
-0.134847 1.250000 0.404542 0.000000 1.000000 0.000000 255 255 255
-0.067424 1.250000 0.067424 0.000000 1.000000 0.000000 255 0 0
-0.134847 1.250000 0.404542 0.000000 1.000000 0.000000 255 0 0
0.269694 1.250000 0.269694 0.000000 1.000000 0.000000 255 0 0
0.000000 1.250000 -0.269694 0.000000 1.000000 0.000000 255 255 255
-0.067424 1.250000 0.067424 0.000000 1.000000 0.000000 255 255 255
0.269694 1.250000 0.000000 0.000000 1.000000 0.000000 255 255 255
-0.269694 1.250000 -0.269694 0.000000 1.000000 0.000000 255 15 15
-0.404542 1.250000 0.134847 0.000000 1.000000 0.000000 255 0 0
0.269694 1.250000 0.000000 0.000000 1.000000 0.000000 255 0 0
0.269694 1.250000 -0.269694 -0.000000 1.000000 0.000000 255 255 255
0.000000 1.250000 -0.269694 -0.000000 1.000000 0.000000 255 0 0
3 0 1 2
3 3 4 5
3 6 7 8
3 9 10 3
3 7 0 2
3 11 3 5
3 12 6 8
3 13 9 3
