ply
format ascii 1.0
comment Created by Blender 2.76 (sub 0) - www.blender.org, source file: 'mole.blend'
element vertex 142
property float x
property float y
property float z
property float nx
property float ny
property float nz
property uchar red
property uchar green
property uchar blue
element face 60
property list uchar uint vertex_indices
end_header
-0.682321 4.927292 -0.703728 0.000000 1.000000 -0.000000 22 22 22
0.682322 4.927292 -0.703728 0.000000 1.000000 -0.000000 22 22 22
0.682321 4.927292 -1.036958 0.000000 1.000000 -0.000000 22 22 22
-0.682321 4.927292 -1.036958 -0.999653 0.009657 0.024495 22 22 22
-0.701573 3.874198 -1.407456 -0.999653 0.009657 0.024495 22 22 22
-0.682322 4.082089 -0.703728 -0.999653 0.009657 0.024495 22 22 22
-0.682322 4.082089 -0.703728 0.000000 -0.000000 1.000000 22 22 22
0.682322 4.082089 -0.703728 0.000000 -0.000000 1.000000 23 23 23
0.682322 4.927292 -0.703728 0.000000 -0.000000 1.000000 22 22 22
0.682322 4.082089 -0.703728 0.999653 -0.009657 -0.024495 22 22 22
0.663070 3.874198 -1.407456 0.999653 -0.009657 -0.024495 22 22 22
0.682321 4.927292 -1.036958 0.999653 -0.009657 -0.024495 22 22 22
-0.682321 4.927292 -1.036958 -0.000000 0.331879 -0.943322 22 22 22
0.682321 4.927292 -1.036958 -0.000000 0.331879 -0.943322 22 22 22
0.663070 3.874198 -1.407456 -0.000000 0.331879 -0.943322 22 22 22
-0.682321 4.897057 1.036958 0.000000 1.000000 -0.000000 22 22 22
0.682322 4.897057 1.036958 0.000000 1.000000 -0.000000 22 22 22
0.682321 4.897057 0.703728 0.000000 1.000000 -0.000000 22 22 22
-0.682321 4.039757 0.703728 -0.999593 0.010332 -0.026581 22 22 22
-0.703184 3.831866 1.407457 -0.999593 0.010332 -0.026581 22 22 22
-0.682321 4.897057 1.036958 -0.999593 0.010332 -0.026581 22 22 22
-0.682321 4.897057 1.036958 0.000000 0.328519 0.944497 22 22 22
-0.703184 3.831866 1.407457 0.000000 0.328519 0.944497 22 22 22
0.661459 3.831866 1.407456 0.000000 0.328519 0.944497 22 22 22
0.682322 4.897057 1.036958 0.999593 -0.010332 0.026581 22 22 22
0.661459 3.831866 1.407456 0.999593 -0.010332 0.026581 22 22 22
0.682321 4.039757 0.703728 0.999593 -0.010332 0.026581 22 22 22
-0.682321 4.039757 0.703728 -0.000000 0.000000 -1.000000 22 22 22
-0.682321 4.897057 0.703728 -0.000000 0.000000 -1.000000 22 22 22
0.682321 4.897057 0.703728 -0.000000 0.000000 -1.000000 22 22 22
-0.703729 2.800989 0.703728 -0.000000 -0.563806 0.825907 22 22 22
0.703728 2.800989 0.703728 -0.000000 -0.563806 0.825907 22 22 22
0.661459 3.831866 1.407456 -0.000000 -0.563806 0.825907 22 22 22
-0.682321 4.039757 0.703728 -0.999764 0.017277 -0.013135 22 22 22
-0.682322 3.504718 0.000000 -0.999764 0.017277 -0.013135 22 22 22
-0.703729 2.800989 0.703728 -0.999764 0.017277 -0.013135 22 22 22
-0.682321 4.039757 0.703728 -0.000000 0.796050 -0.605231 22 22 22
0.682321 4.039757 0.703728 -0.000000 0.796050 -0.605231 22 22 22
0.682322 3.504718 0.000000 -0.000000 0.796050 -0.605231 22 22 22
-0.682322 3.504718 0.000000 0.000000 0.773098 0.634286 22 22 22
0.682322 3.504718 0.000000 0.000000 0.773098 0.634286 22 22 22
0.682322 4.082089 -0.703728 0.000000 0.773098 0.634286 22 22 22
-0.703728 2.800989 -0.703729 -0.000000 -0.548348 -0.836250 22 22 22
-0.701573 3.874198 -1.407456 -0.000000 -0.548348 -0.836250 22 22 22
0.663070 3.874198 -1.407456 -0.000000 -0.548348 -0.836250 22 22 22
0.703728 2.800989 -0.703728 0.999340 0.016699 -0.032272 22 22 22
0.663070 3.874198 -1.407456 0.999340 0.016699 -0.032272 22 22 22
0.682322 4.082089 -0.703728 0.999340 0.016699 -0.032272 22 22 22
0.703728 2.800989 0.703728 0.999765 0.017277 -0.013135 22 22 22
0.682322 3.504718 0.000000 0.999765 0.017277 -0.013135 22 22 22
0.682321 4.039757 0.703728 0.999765 0.017277 -0.013135 22 22 22
-0.682322 4.082089 -0.703728 -0.999609 0.016703 0.022412 22 22 22
-0.701573 3.874198 -1.407456 -0.999609 0.016703 0.022412 22 22 22
-0.703728 2.800989 -0.703729 -0.999609 0.016703 0.022412 22 22 22
0.703728 2.800989 -0.703728 0.999538 0.030405 0.000000 22 22 22
0.682322 3.504718 0.000000 0.999538 0.030405 0.000000 22 22 22
0.703728 2.800989 0.703728 0.999538 0.030405 0.000000 22 22 22
-0.703729 2.800989 0.703728 -0.999538 0.030405 -0.000001 22 22 22
-0.682322 3.504718 0.000000 -0.999538 0.030405 -0.000001 22 22 22
-0.703728 2.800989 -0.703729 -0.999538 0.030405 -0.000001 22 22 22
-0.703728 2.800989 -0.703729 0.000000 -1.000000 -0.000000 22 22 22
0.703728 2.800989 -0.703728 0.000000 -1.000000 -0.000000 22 22 22
0.703728 2.800989 0.703728 0.000000 -1.000000 -0.000000 22 22 22
0.725259 2.615629 0.725259 1.000000 0.000000 0.000000 22 22 22
0.725259 0.316410 0.725259 1.000000 0.000000 0.000000 22 22 22
0.725259 0.316410 -0.725259 1.000000 0.000000 0.000000 22 22 22
-0.725259 2.615629 0.725259 0.000000 -0.000000 1.000000 22 22 22
-0.725259 0.316410 0.725259 0.000000 -0.000000 1.000000 22 22 22
0.725259 0.316410 0.725259 0.000000 -0.000000 1.000000 22 22 22
-0.725259 2.615629 -0.725259 -1.000000 0.000000 0.000000 22 22 22
-0.725259 0.316410 -0.725259 -1.000000 0.000000 0.000000 22 22 22
-0.725259 0.316410 0.725259 -1.000000 0.000000 0.000000 24 24 24
0.725259 2.615629 -0.725259 0.000000 0.000000 -1.000000 22 22 22
0.725259 0.316410 -0.725259 0.000000 0.000000 -1.000000 22 22 22
-0.725259 0.316410 -0.725259 0.000000 0.000000 -1.000000 22 22 22
0.725259 0.316410 0.725259 0.000000 -1.000000 0.000000 22 22 22
-0.725259 0.316410 0.725259 0.000000 -1.000000 0.000000 22 22 22
-0.725259 0.316410 -0.725259 0.000000 -1.000000 0.000000 22 22 22
-0.725259 2.615629 0.725259 0.000000 1.000000 -0.000000 22 22 22
0.725259 2.615629 0.725259 0.000000 1.000000 -0.000000 22 22 22
0.725259 2.615629 -0.725259 0.000000 1.000000 -0.000000 22 22 22
0.532620 2.838192 0.552667 1.000000 0.000000 0.000000 255 0 0
0.532620 2.590749 0.552667 1.000000 0.000000 0.000000 255 0 0
0.532620 2.590749 -0.536429 1.000000 0.000000 0.000000 255 0 0
-0.556475 2.838192 0.552667 0.000000 -0.000000 1.000000 255 0 0
-0.556475 2.590749 0.552667 0.000000 -0.000000 1.000000 255 0 0
0.532620 2.590749 0.552667 0.000000 -0.000000 1.000000 255 0 0
-0.556475 2.838192 -0.536429 -1.000000 0.000000 0.000000 255 0 0
-0.556475 2.590749 -0.536429 -1.000000 0.000000 0.000000 255 0 0
-0.556475 2.590749 0.552667 -1.000000 0.000000 0.000000 255 0 0
0.532620 2.838192 -0.536429 0.000000 0.000000 -1.000000 255 0 0
0.532620 2.590749 -0.536429 0.000000 0.000000 -1.000000 169 8 8
-0.556475 2.590749 -0.536429 0.000000 0.000000 -1.000000 255 0 0
-0.682321 4.927292 -1.036958 0.000000 1.000000 0.000000 22 22 22
-0.682321 4.927292 -0.703728 -1.000000 0.000000 0.000000 22 22 22
-0.682321 4.927292 -1.036958 -1.000000 0.000000 0.000000 22 22 22
-0.682322 4.082089 -0.703728 -1.000000 0.000000 0.000000 22 22 22
-0.682321 4.927292 -0.703728 0.000000 0.000000 1.000000 22 22 22
0.682322 4.927292 -0.703728 1.000000 -0.000000 -0.000001 22 22 22
0.682322 4.082089 -0.703728 1.000000 -0.000000 -0.000001 22 22 22
0.682321 4.927292 -1.036958 1.000000 -0.000000 -0.000001 22 22 22
-0.701573 3.874198 -1.407456 0.000000 0.331879 -0.943322 22 22 22
-0.682321 4.897057 0.703728 0.000000 1.000000 0.000000 22 22 22
-0.682321 4.897057 0.703728 -1.000000 0.000000 0.000000 22 22 22
-0.682321 4.039757 0.703728 -1.000000 0.000000 0.000000 22 22 22
-0.682321 4.897057 1.036958 -1.000000 0.000000 0.000000 22 22 22
0.682322 4.897057 1.036958 0.000000 0.328519 0.944498 22 22 22
-0.682321 4.897057 1.036958 0.000000 0.328519 0.944498 22 22 22
0.661459 3.831866 1.407456 0.000000 0.328519 0.944498 22 22 22
0.682321 4.897057 0.703728 1.000000 0.000000 -0.000001 22 22 22
0.682322 4.897057 1.036958 1.000000 0.000000 -0.000001 22 22 22
0.682321 4.039757 0.703728 1.000000 0.000000 -0.000001 22 22 22
0.682321 4.039757 0.703728 -0.000000 -0.000000 -1.000000 22 22 22
-0.703184 3.831866 1.407457 0.000000 -0.563806 0.825907 22 22 22
-0.703184 3.831866 1.407457 -0.999550 0.017273 -0.024529 22 22 22
-0.682321 4.039757 0.703728 -0.999550 0.017273 -0.024529 22 22 22
-0.703729 2.800989 0.703728 -0.999550 0.017273 -0.024529 22 22 22
-0.682322 3.504718 0.000000 0.000000 0.796050 -0.605231 22 22 22
-0.682322 4.082089 -0.703728 0.000000 0.773098 0.634286 30 30 30
0.703728 2.800989 -0.703728 0.000000 -0.548349 -0.836250 22 22 22
-0.703728 2.800989 -0.703729 0.000000 -0.548349 -0.836250 22 22 22
0.663070 3.874198 -1.407456 0.000000 -0.548349 -0.836250 22 22 22
0.682322 3.504718 0.000000 0.999767 0.016706 0.013706 22 22 22
0.703728 2.800989 -0.703728 0.999767 0.016706 0.013706 22 22 22
0.682322 4.082089 -0.703728 0.999767 0.016706 0.013706 22 22 22
0.661459 3.831866 1.407456 0.999248 0.017268 0.034724 22 22 22
0.703728 2.800989 0.703728 0.999248 0.017268 0.034724 22 22 22
0.682321 4.039757 0.703728 0.999248 0.017268 0.034724 22 22 22
-0.682322 3.504718 0.000000 -0.999767 0.016705 0.013706 22 22 22
-0.682322 4.082089 -0.703728 -0.999767 0.016705 0.013706 22 22 22
-0.703728 2.800989 -0.703729 -0.999767 0.016705 0.013706 22 22 22
-0.703729 2.800989 0.703728 -0.000000 -1.000000 0.000000 22 22 22
0.725259 2.615629 -0.725259 1.000000 -0.000000 0.000000 22 22 22
0.725259 2.615629 0.725259 0.000000 -0.000000 1.000000 22 22 22
-0.725259 2.615629 0.725259 -1.000000 0.000000 0.000000 22 22 22
-0.725259 2.615629 -0.725259 0.000000 0.000000 -1.000000 22 22 22
0.725259 0.316410 -0.725259 0.000000 -1.000000 0.000000 22 22 22
-0.725259 2.615629 -0.725259 0.000000 1.000000 0.000000 22 22 22
0.532620 2.838192 -0.536429 1.000000 -0.000000 0.000000 255 0 0
0.532620 2.838192 0.552667 0.000000 -0.000000 1.000000 255 0 0
-0.556475 2.838192 0.552667 -1.000000 0.000000 0.000000 255 0 0
-0.556475 2.838192 -0.536429 0.000000 0.000000 -1.000000 255 0 0
3 0 1 2
3 3 4 5
3 6 7 8
3 9 10 11
3 12 13 14
3 15 16 17
3 18 19 20
3 21 22 23
3 24 25 26
3 27 28 29
3 30 31 32
3 33 34 35
3 36 37 38
3 39 40 41
3 42 43 44
3 45 46 47
3 48 49 50
3 51 52 53
3 54 55 56
3 57 58 59
3 60 61 62
3 63 64 65
3 66 67 68
3 69 70 71
3 72 73 74
3 75 76 77
3 78 79 80
3 81 82 83
3 84 85 86
3 87 88 89
3 90 91 92
3 93 0 2
3 94 95 96
3 97 6 8
3 98 99 100
3 101 12 14
3 102 15 17
3 103 104 105
3 106 107 108
3 109 110 111
3 112 27 29
3 113 30 32
3 114 115 116
3 117 36 38
3 118 39 41
3 119 120 121
3 122 123 124
3 125 126 127
3 128 129 130
3 131 60 62
3 132 63 65
3 133 66 68
3 134 69 71
3 135 72 74
3 136 75 77
3 137 78 80
3 138 81 83
3 139 84 86
3 140 87 89
3 141 90 92
