ply
format ascii 1.0
comment Created by Blender 2.76 (sub 0) - www.blender.org, source file: 'pedestal.blend'
element vertex 26
property float x
property float y
property float z
property float nx
property float ny
property float nz
property uchar red
property uchar green
property uchar blue
element face 12
property list uchar uint vertex_indices
end_header
-0.356329 0.049549 -0.356329 0.000000 -1.000000 -0.000000 150 150 150
0.356329 0.049549 -0.356329 0.000000 -1.000000 -0.000000 150 150 150
0.356329 0.049549 0.356329 0.000000 -1.000000 -0.000000 150 150 150
0.356329 1.118536 0.356329 0.000000 1.000000 -0.000000 150 150 150
0.356329 1.118536 -0.356329 0.000000 1.000000 -0.000000 150 150 150
-0.356329 1.118536 -0.356329 0.000000 1.000000 -0.000000 150 150 150
-0.356329 1.118536 0.356329 -1.000000 0.000000 -0.000001 150 150 150
-0.356329 1.118536 -0.356329 -1.000000 0.000000 -0.000001 180 180 180
-0.356329 0.049549 -0.356329 -1.000000 0.000000 -0.000001 150 150 150
-0.356329 1.118536 -0.356329 0.000000 0.000000 -1.000000 150 150 150
0.356329 1.118536 -0.356329 0.000000 0.000000 -1.000000 150 150 150
0.356329 0.049549 -0.356329 0.000000 0.000000 -1.000000 150 150 150
0.356329 0.049549 -0.356329 1.000000 -0.000000 0.000000 150 150 150
0.356329 1.118536 -0.356329 1.000000 -0.000000 0.000000 150 150 150
0.356329 1.118536 0.356329 1.000000 -0.000000 0.000000 150 150 150
-0.356329 0.049549 0.356329 -0.000000 0.000000 1.000000 150 150 150
0.356329 0.049549 0.356329 -0.000000 0.000000 1.000000 150 150 150
0.356329 1.118536 0.356329 -0.000000 0.000000 1.000000 150 150 150
-0.356329 0.049549 0.356329 -0.000000 -1.000000 0.000000 150 150 150
-0.356329 1.118536 0.356329 0.000000 1.000000 -0.000000 150 150 150
-0.356329 0.049549 0.356329 -1.000000 -0.000000 0.000000 150 150 150
-0.356329 1.118536 0.356329 -1.000000 -0.000000 0.000000 150 150 150
-0.356329 0.049549 -0.356329 -1.000000 -0.000000 0.000000 150 150 150
-0.356329 0.049549 -0.356329 0.000000 -0.000000 -1.000000 150 150 150
0.356329 0.049549 0.356329 1.000000 -0.000000 0.000000 153 153 153
-0.356329 1.118536 0.356329 -0.000000 0.000000 1.000000 150 150 150
3 0 1 2
3 3 4 5
3 6 7 8
3 9 10 11
3 12 13 14
3 15 16 17
3 18 0 2
3 19 3 5
3 20 21 22
3 23 9 11
3 24 12 14
3 25 15 17
