ply
format ascii 1.0
comment Created by Blender 2.76 (sub 0) - www.blender.org, source file: 'player.blend'
element vertex 96
property float x
property float y
property float z
property float nx
property float ny
property float nz
property uchar red
property uchar green
property uchar blue
element face 48
property list uchar uint vertex_indices
end_header
-0.502955 0.723696 1.028120 1.000000 0.000000 0.000000 255 255 255
-0.502955 0.430410 1.028120 1.000000 0.000000 0.000000 255 255 255
-0.502955 0.430410 -0.028120 1.000000 0.000000 0.000000 255 255 255
-0.862955 0.723696 1.028120 0.000000 -0.000000 1.000000 255 255 255
-0.862955 0.430410 1.028120 0.000000 -0.000000 1.000000 255 255 255
-0.502955 0.430410 1.028120 0.000000 -0.000000 1.000000 255 255 255
-0.862955 0.723696 -0.028120 -1.000000 0.000000 0.000000 255 255 255
-0.862955 0.430410 -0.028120 -1.000000 0.000000 0.000000 255 255 255
-0.862955 0.430410 1.028120 -1.000000 0.000000 0.000000 255 255 255
-0.502955 0.723696 -0.028120 0.000000 0.000000 -1.000000 255 255 255
-0.502955 0.430410 -0.028120 0.000000 0.000000 -1.000000 255 255 255
-0.862955 0.430410 -0.028120 0.000000 0.000000 -1.000000 255 255 255
-0.502955 0.430410 1.028120 0.000000 -1.000000 0.000000 255 255 255
-0.862955 0.430410 1.028120 0.000000 -1.000000 0.000000 255 255 255
-0.862955 0.430410 -0.028120 0.000000 -1.000000 0.000000 255 255 255
-0.862955 0.723696 1.028120 0.000000 1.000000 -0.000000 255 255 255
-0.502955 0.723696 1.028120 0.000000 1.000000 -0.000000 255 255 255
-0.502955 0.723696 -0.028120 0.000000 1.000000 -0.000000 255 255 255
0.636149 1.057053 0.480000 1.000000 0.000000 0.000000 255 255 255
0.636149 0.097053 0.480000 1.000000 0.000000 0.000000 255 255 255
0.636149 0.097053 -0.480000 1.000000 0.000000 0.000000 255 255 255
0.444149 1.057053 0.480000 0.000000 -0.000000 1.000000 0 0 255
0.444149 0.097053 0.480000 0.000000 -0.000000 1.000000 0 0 255
0.636149 0.097053 0.480000 0.000000 -0.000000 1.000000 0 0 255
0.444149 1.057053 -0.480000 -1.000000 0.000000 0.000000 255 255 255
0.444149 0.097053 -0.480000 -1.000000 0.000000 0.000000 255 255 255
0.444149 0.097053 0.480000 -1.000000 0.000000 0.000000 255 255 255
0.636149 1.057053 -0.480000 0.000000 0.000000 -1.000000 0 0 255
0.636149 0.097053 -0.480000 0.000000 0.000000 -1.000000 0 0 255
0.444149 0.097053 -0.480000 0.000000 0.000000 -1.000000 0 0 255
0.636149 0.097053 0.480000 0.000000 -1.000000 0.000000 0 0 255
0.444149 0.097053 0.480000 0.000000 -1.000000 0.000000 0 0 255
0.444149 0.097053 -0.480000 0.000000 -1.000000 0.000000 0 0 255
0.444149 1.057053 0.480000 0.000000 1.000000 -0.000000 0 0 255
0.636149 1.057053 0.480000 0.000000 1.000000 -0.000000 0 0 255
0.636149 1.057053 -0.480000 0.000000 1.000000 -0.000000 0 0 255
0.860149 1.177053 0.600000 1.000000 0.000000 0.000000 255 255 255
0.860149 -0.022947 0.600000 1.000000 0.000000 0.000000 255 255 255
0.860149 -0.022947 -0.600000 1.000000 0.000000 0.000000 255 255 255
0.620149 1.177053 0.600000 0.000000 -0.000000 1.000000 255 255 255
0.620149 -0.022947 0.600000 0.000000 -0.000000 1.000000 255 255 255
0.860149 -0.022947 0.600000 0.000000 -0.000000 1.000000 255 255 255
0.620149 1.177053 -0.600000 -1.000000 0.000000 0.000000 255 255 255
0.620149 -0.022947 -0.600000 -1.000000 0.000000 0.000000 255 255 255
0.620149 -0.022947 0.600000 -1.000000 0.000000 0.000000 255 255 255
0.860149 1.177053 -0.600000 0.000000 0.000000 -1.000000 255 255 255
0.860149 -0.022947 -0.600000 0.000000 0.000000 -1.000000 255 255 255
0.620149 -0.022947 -0.600000 0.000000 0.000000 -1.000000 255 255 255
0.860149 -0.022947 0.600000 0.000000 -1.000000 0.000000 255 255 255
0.620149 -0.022947 0.600000 0.000000 -1.000000 0.000000 255 255 255
0.620149 -0.022947 -0.600000 0.000000 -1.000000 0.000000 255 255 255
0.620149 1.177053 0.600000 0.000000 1.000000 -0.000000 255 255 255
0.860149 1.177053 0.600000 0.000000 1.000000 -0.000000 255 255 255
0.860149 1.177053 -0.600000 0.000000 1.000000 -0.000000 255 255 255
0.456910 1.177053 0.600000 1.000000 0.000000 0.000000 255 255 255
0.456910 -0.022947 0.600000 1.000000 0.000000 0.000000 255 255 255
0.456910 -0.022947 -0.600000 1.000000 0.000000 0.000000 255 255 255
-0.503090 1.177053 0.600000 0.000000 -0.000000 1.000000 255 255 255
-0.503090 -0.022947 0.600000 0.000000 -0.000000 1.000000 252 252 252
0.456910 -0.022947 0.600000 0.000000 -0.000000 1.000000 255 255 255
-0.503090 1.177053 -0.600000 -1.000000 0.000000 0.000000 255 255 255
-0.503090 -0.022947 -0.600000 -1.000000 0.000000 0.000000 255 255 255
-0.503090 -0.022947 0.600000 -1.000000 0.000000 0.000000 255 255 255
0.456910 1.177053 -0.600000 0.000000 0.000000 -1.000000 255 255 255
0.456910 -0.022947 -0.600000 0.000000 0.000000 -1.000000 255 255 255
-0.503090 -0.022947 -0.600000 0.000000 0.000000 -1.000000 255 255 255
0.456910 -0.022947 0.600000 0.000000 -1.000000 0.000000 255 255 255
-0.503090 -0.022947 0.600000 0.000000 -1.000000 0.000000 255 255 255
-0.503090 -0.022947 -0.600000 0.000000 -1.000000 0.000000 255 255 255
-0.503090 1.177053 0.600000 0.000000 1.000000 -0.000000 255 255 255
0.456910 1.177053 0.600000 0.000000 1.000000 -0.000000 255 255 255
0.456910 1.177053 -0.600000 0.000000 1.000000 -0.000000 255 255 255
-0.502955 0.723696 -0.028120 1.000000 -0.000000 0.000000 255 255 255
-0.502955 0.723696 1.028120 0.000000 -0.000000 1.000000 255 255 255
-0.862955 0.723696 1.028120 -1.000000 0.000000 0.000000 255 255 255
-0.862955 0.723696 -0.028120 0.000000 0.000000 -1.000000 255 255 255
-0.502955 0.430410 -0.028120 0.000000 -1.000000 0.000000 255 255 255
-0.862955 0.723696 -0.028120 0.000000 1.000000 0.000000 253 253 253
0.636149 1.057053 -0.480000 1.000000 -0.000000 0.000000 255 255 255
0.636149 1.057053 0.480000 0.000000 -0.000000 1.000000 0 0 255
0.444149 1.057053 0.480000 -1.000000 0.000000 0.000000 255 255 255
0.444149 1.057053 -0.480000 0.000000 0.000000 -1.000000 0 0 255
0.636149 0.097053 -0.480000 0.000000 -1.000000 0.000000 0 0 255
0.444149 1.057053 -0.480000 0.000000 1.000000 0.000000 0 0 255
0.860149 1.177053 -0.600000 1.000000 -0.000000 0.000000 255 255 255
0.860149 1.177053 0.600000 0.000000 -0.000000 1.000000 255 255 255
0.620149 1.177053 0.600000 -1.000000 0.000000 0.000000 255 255 255
0.620149 1.177053 -0.600000 0.000000 0.000000 -1.000000 255 255 255
0.860149 -0.022947 -0.600000 0.000000 -1.000000 0.000000 255 255 255
0.620149 1.177053 -0.600000 0.000000 1.000000 0.000000 255 255 255
0.456910 1.177053 -0.600000 1.000000 -0.000000 0.000000 255 255 254
0.456910 1.177053 0.600000 0.000000 -0.000000 1.000000 255 255 255
-0.503090 1.177053 0.600000 -1.000000 0.000000 0.000000 255 255 255
-0.503090 1.177053 -0.600000 0.000000 0.000000 -1.000000 255 255 255
0.456910 -0.022947 -0.600000 0.000000 -1.000000 0.000000 255 255 255
-0.503090 1.177053 -0.600000 0.000000 1.000000 0.000000 255 255 255
3 0 1 2
3 3 4 5
3 6 7 8
3 9 10 11
3 12 13 14
3 15 16 17
3 18 19 20
3 21 22 23
3 24 25 26
3 27 28 29
3 30 31 32
3 33 34 35
3 36 37 38
3 39 40 41
3 42 43 44
3 45 46 47
3 48 49 50
3 51 52 53
3 54 55 56
3 57 58 59
3 60 61 62
3 63 64 65
3 66 67 68
3 69 70 71
3 72 0 2
3 73 3 5
3 74 6 8
3 75 9 11
3 76 12 14
3 77 15 17
3 78 18 20
3 79 21 23
3 80 24 26
3 81 27 29
3 82 30 32
3 83 33 35
3 84 36 38
3 85 39 41
3 86 42 44
3 87 45 47
3 88 48 50
3 89 51 53
3 90 54 56
3 91 57 59
3 92 60 62
3 93 63 65
3 94 66 68
3 95 69 71
