ply
format ascii 1.0
comment Created by Blender 2.76 (sub 0) - www.blender.org, source file: 'portal.blend'
element vertex 52
property float x
property float y
property float z
property float nx
property float ny
property float nz
property uchar red
property uchar green
property uchar blue
element face 18
property list uchar uint vertex_indices
end_header
0.510980 0.257113 0.432927 0.838951 0.351091 -0.415809 170 170 170
0.672896 -0.001953 0.540871 0.838951 0.351091 -0.415809 170 170 170
0.025231 -0.001953 -0.765880 0.838951 0.351091 -0.415809 170 170 170
0.510980 0.257113 0.432927 -0.000000 0.384615 0.923077 170 170 170
-0.460517 0.257113 0.432927 -0.000000 0.384615 0.923077 170 170 170
-0.622433 -0.001953 0.540871 -0.000000 0.384615 0.923077 170 170 170
0.016670 0.231994 -0.407656 0.000000 -1.000000 -0.000000 255 255 255
0.397651 0.231994 0.363265 0.000000 -1.000000 -0.000000 255 255 255
-0.364311 0.231994 0.363265 0.000000 -1.000000 -0.000000 255 255 255
-0.460517 0.257113 0.432927 -0.876319 0.253231 -0.409803 170 170 170
0.025231 0.257113 -0.605795 -0.876319 0.253231 -0.409803 170 170 170
0.025231 -0.001953 -0.765880 -0.876319 0.253231 -0.409803 170 170 170
0.016291 0.454478 -0.583996 -0.845461 -0.332601 -0.417818 1 255 1
0.016670 0.231994 -0.407656 -0.845461 -0.332601 -0.417818 0 255 0
-0.364311 0.231994 0.363265 -0.845461 -0.332601 -0.417818 0 255 0
0.025231 -0.001953 -0.765880 0.000000 -1.000000 -0.000000 170 170 170
0.672896 -0.001953 0.540871 0.000000 -1.000000 -0.000000 170 170 170
-0.622433 -0.001953 0.540871 0.000000 -1.000000 -0.000000 177 177 177
-0.491684 0.454478 0.484679 0.000000 -0.479033 0.877797 0 255 0
-0.364311 0.231994 0.363265 0.000000 -0.479033 0.877797 16 255 16
0.397651 0.231994 0.363265 0.000000 -0.479033 0.877797 0 255 0
0.524265 0.454478 0.440912 0.844692 -0.335024 -0.417438 0 255 0
0.397651 0.231994 0.363265 0.844692 -0.335024 -0.417438 0 255 0
0.016670 0.231994 -0.407656 0.844692 -0.335024 -0.417438 0 255 0
0.025231 0.257113 -0.605795 0.000000 1.000000 0.000000 255 255 255
-0.460517 0.257113 0.432927 0.000000 1.000000 0.000000 255 255 255
0.510980 0.257113 0.432927 0.000000 1.000000 0.000000 255 255 255
-0.491684 0.454478 0.484679 0.042188 0.197941 0.979306 0 255 0
0.524265 0.454478 0.440912 0.042188 0.197941 0.979306 23 255 23
0.015912 2.272991 0.095248 0.042188 0.197941 0.979306 0 255 0
0.016291 0.454478 -0.583996 -0.891796 0.158147 -0.423898 0 255 0
-0.491684 0.454478 0.484679 -0.891796 0.158147 -0.423898 0 255 0
0.015912 2.272991 0.095248 -0.891796 0.158147 -0.423898 0 255 0
0.524265 0.454478 0.440912 0.883884 0.163814 -0.438079 0 255 0
0.016291 0.454478 -0.583996 0.883884 0.163814 -0.438079 0 255 0
0.015912 2.272991 0.095248 0.883884 0.163814 -0.438079 0 255 0
0.025231 0.257113 -0.605795 0.876319 0.253231 -0.409803 170 170 170
0.510980 0.257113 0.432927 0.876319 0.253231 -0.409803 170 170 170
0.025231 -0.001953 -0.765880 0.876319 0.253231 -0.409803 170 170 170
0.672896 -0.001953 0.540871 0.000000 0.384615 0.923077 170 170 170
-0.622433 -0.001953 0.540871 -0.838951 0.351091 -0.415809 176 176 176
-0.460517 0.257113 0.432927 -0.838951 0.351091 -0.415809 170 170 170
0.025231 -0.001953 -0.765880 -0.838951 0.351091 -0.415809 170 170 170
-0.491684 0.454478 0.484679 -0.869081 -0.272112 -0.413102 0 255 0
0.016291 0.454478 -0.583996 -0.869081 -0.272112 -0.413102 1 255 1
-0.364311 0.231994 0.363265 -0.869081 -0.272112 -0.413102 0 255 0
0.524265 0.454478 0.440912 0.040324 -0.349623 0.936022 0 255 0
-0.491684 0.454478 0.484679 0.040324 -0.349623 0.936022 0 255 0
0.397651 0.231994 0.363265 0.040324 -0.349623 0.936022 0 255 0
0.016291 0.454478 -0.583996 0.845568 -0.330727 -0.419088 0 255 0
0.524265 0.454478 0.440912 0.845568 -0.330727 -0.419088 0 255 0
0.016670 0.231994 -0.407656 0.845568 -0.330727 -0.419088 0 255 0
3 0 1 2
3 3 4 5
3 6 7 8
3 9 10 11
3 12 13 14
3 15 16 17
3 18 19 20
3 21 22 23
3 24 25 26
3 27 28 29
3 30 31 32
3 33 34 35
3 36 37 38
3 39 3 5
3 40 41 42
3 43 44 45
3 46 47 48
3 49 50 51
