ply
format ascii 1.0
comment Created by Blender 2.76 (sub 0) - www.blender.org, source file: 'pedestal.blend'
element vertex 24
property float x
property float y
property float z
property float nx
property float ny
property float nz
property uchar red
property uchar green
property uchar blue
element face 12
property list uchar uint vertex_indices
end_header
0.250000 1.750000 0.250000 1.000000 0.000000 0.000000 0 238 0
0.250000 1.250000 0.250000 1.000000 0.000000 0.000000 0 238 0
0.250000 1.250000 -0.250000 1.000000 0.000000 0.000000 0 238 0
-0.250000 1.750000 0.250000 0.000000 -0.000000 1.000000 0 20 255
-0.250000 1.250000 0.250000 0.000000 -0.000000 1.000000 0 20 255
0.250000 1.250000 0.250000 0.000000 -0.000000 1.000000 0 20 255
-0.250000 1.750000 -0.250000 -1.000000 0.000000 0.000000 238 238 0
-0.250000 1.250000 -0.250000 -1.000000 0.000000 0.000000 238 238 0
-0.250000 1.250000 0.250000 -1.000000 0.000000 0.000000 238 238 0
0.250000 1.750000 -0.250000 0.000000 0.000000 -1.000000 0 238 238
0.250000 1.250000 -0.250000 0.000000 0.000000 -1.000000 0 238 238
-0.250000 1.250000 -0.250000 0.000000 0.000000 -1.000000 0 238 238
0.250000 1.250000 0.250000 0.000000 -1.000000 0.000000 238 0 238
-0.250000 1.250000 0.250000 0.000000 -1.000000 0.000000 238 0 238
-0.250000 1.250000 -0.250000 0.000000 -1.000000 0.000000 238 0 238
-0.250000 1.750000 0.250000 0.000000 1.000000 -0.000000 255 20 23
0.250000 1.750000 0.250000 0.000000 1.000000 -0.000000 255 20 23
0.250000 1.750000 -0.250000 0.000000 1.000000 -0.000000 255 20 23
0.250000 1.750000 -0.250000 1.000000 -0.000000 0.000000 0 238 0
0.250000 1.750000 0.250000 0.000000 -0.000000 1.000000 0 20 255
-0.250000 1.750000 0.250000 -1.000000 0.000000 0.000000 238 238 0
-0.250000 1.750000 -0.250000 0.000000 0.000000 -1.000000 0 238 238
0.250000 1.250000 -0.250000 0.000000 -1.000000 0.000000 238 0 238
-0.250000 1.750000 -0.250000 0.000000 1.000000 0.000000 255 20 23
3 0 1 2
3 3 4 5
3 6 7 8
3 9 10 11
3 12 13 14
3 15 16 17
3 18 0 2
3 19 3 5
3 20 6 8
3 21 9 11
3 22 12 14
3 23 15 17
