ply
format ascii 1.0
comment Created by Blender 2.74 (sub 0) - www.blender.org, source file: ''
element vertex 16
property float x
property float y
property float z
property float nx
property float ny
property float nz
property uchar red
property uchar green
property uchar blue
element face 6
property list uchar uint vertex_indices
end_header
1.000000 -1.000000 0.966437 0.000000 -1.000000 -0.000000 255 255 255
-1.000000 -1.000000 0.966437 0.000000 -1.000000 -0.000000 255 255 255
-1.000000 -1.000000 -1.033563 0.000000 -1.000000 -0.000000 255 255 255
1.000000 -1.000000 -1.033563 0.894427 0.447214 0.000000 7 0 255
-0.000000 1.000000 -0.033563 0.894427 0.447214 0.000000 252 255 0
1.000000 -1.000000 0.966437 0.894427 0.447214 0.000000 7 0 255
1.000000 -1.000000 0.966437 -0.000000 0.447214 0.894427 8 1 255
-0.000000 1.000000 -0.033563 -0.000000 0.447214 0.894427 252 255 0
-1.000000 -1.000000 0.966437 -0.000000 0.447214 0.894427 7 0 255
-1.000000 -1.000000 0.966437 -0.894427 0.447213 -0.000000 7 0 255
-0.000000 1.000000 -0.033563 -0.894427 0.447213 -0.000000 252 255 0
-1.000000 -1.000000 -1.033563 -0.894427 0.447213 -0.000000 7 0 255
-0.000000 1.000000 -0.033563 0.000000 0.447214 -0.894427 252 255 0
1.000000 -1.000000 -1.033563 0.000000 0.447214 -0.894427 7 0 255
-1.000000 -1.000000 -1.033563 0.000000 0.447214 -0.894427 7 0 255
1.000000 -1.000000 -1.033563 0.000000 -1.000000 -0.000000 255 255 255
3 0 1 2
3 3 4 5
3 6 7 8
3 9 10 11
3 12 13 14
3 15 0 2
