ply
format ascii 1.0
comment Created by Blender 2.76 (sub 0) - www.blender.org, source file: 'regen_kit.blend'
element vertex 32
property float x
property float y
property float z
property float nx
property float ny
property float nz
property uchar red
property uchar green
property uchar blue
element face 16
property list uchar uint vertex_indices
end_header
0.240733 0.361020 -0.147006 0.002581 -0.004641 -0.999986 255 48 27
-0.259265 0.360643 -0.148295 0.002581 -0.004641 -0.999986 255 33 11
-0.259413 0.560652 -0.149224 0.002581 -0.004641 -0.999986 255 35 13
-0.094615 0.205559 -0.178626 -0.004641 -0.002582 -0.999986 255 33 11
-0.094992 0.705557 -0.179915 -0.004641 -0.002582 -0.999986 255 33 11
0.105017 0.705706 -0.180844 -0.004641 -0.002582 -0.999986 255 33 11
0.288180 0.827908 0.144090 1.000000 -0.000000 0.000000 245 255 165
0.288180 -0.036632 0.144090 1.000000 -0.000000 0.000000 246 247 158
0.288180 -0.036632 -0.144090 1.000000 -0.000000 0.000000 245 255 165
-0.288180 0.827908 0.144090 0.000000 0.000000 1.000000 245 255 165
-0.288180 -0.036632 0.144090 0.000000 0.000000 1.000000 245 255 165
0.288180 -0.036632 0.144090 0.000000 0.000000 1.000000 245 254 164
-0.288180 0.827908 0.144090 -1.000000 0.000000 0.000000 245 255 165
-0.288180 0.827908 -0.144090 -1.000000 0.000000 0.000000 245 255 165
-0.288180 -0.036632 -0.144090 -1.000000 0.000000 0.000000 245 255 165
-0.288180 0.827908 -0.144090 -0.000000 0.000000 -1.000000 245 255 165
0.288180 0.827908 -0.144090 -0.000000 0.000000 -1.000000 245 253 163
0.288180 -0.036632 -0.144090 -0.000000 0.000000 -1.000000 245 255 165
0.288180 -0.036632 0.144090 -0.000000 -1.000000 0.000000 246 245 158
-0.288180 -0.036632 0.144090 -0.000000 -1.000000 0.000000 245 255 165
-0.288180 -0.036632 -0.144090 -0.000000 -1.000000 0.000000 245 255 165
-0.288180 0.827908 -0.144090 0.000000 1.000000 0.000000 245 255 165
-0.288180 0.827908 0.144090 0.000000 1.000000 0.000000 245 255 165
0.288180 0.827908 0.144090 0.000000 1.000000 0.000000 247 235 151
0.240585 0.561029 -0.147935 0.002581 -0.004641 -0.999986 255 33 11
0.105394 0.205708 -0.179555 -0.004641 -0.002582 -0.999986 255 34 12
0.288180 0.827908 -0.144090 1.000000 0.000000 0.000000 245 255 165
0.288180 0.827908 0.144090 -0.000000 -0.000000 1.000000 245 255 165
-0.288180 -0.036632 0.144090 -1.000000 0.000000 0.000000 245 255 165
-0.288180 -0.036632 -0.144090 0.000000 0.000000 -1.000000 245 255 165
0.288180 -0.036632 -0.144090 0.000000 -1.000000 -0.000000 245 255 165
0.288180 0.827908 -0.144090 0.000000 1.000000 0.000000 245 255 165
3 0 1 2
3 3 4 5
3 6 7 8
3 9 10 11
3 12 13 14
3 15 16 17
3 18 19 20
3 21 22 23
3 24 0 2
3 25 3 5
3 26 6 8
3 27 9 11
3 28 12 14
3 29 15 17
3 30 18 20
3 31 21 23
