ply
format ascii 1.0
comment Created by Blender 2.76 (sub 0) - www.blender.org, source file: 'scavenger.blend'
element vertex 353
property float x
property float y
property float z
property float nx
property float ny
property float nz
property uchar red
property uchar green
property uchar blue
element face 173
property list uchar uint vertex_indices
end_header
-0.000000 0.590050 -0.374137 -0.500000 0.000000 0.866025 2 2 0
0.324012 0.590050 -0.187069 -0.500000 0.000000 0.866025 0 0 0
0.324012 0.777119 -0.187069 -0.500000 0.000000 0.866025 0 0 0
0.324012 0.590050 -0.187069 -1.000000 -0.000000 -0.000000 0 0 0
0.324012 0.590050 0.187069 -1.000000 -0.000000 -0.000000 0 0 0
0.324012 0.777119 0.187069 -1.000000 -0.000000 -0.000000 2 2 0
0.324012 0.590050 0.187069 -0.500000 -0.000000 -0.866025 0 0 0
-0.000000 0.590050 0.374137 -0.500000 -0.000000 -0.866025 0 0 0
-0.000000 0.777119 0.374137 -0.500000 -0.000000 -0.866025 23 19 0
-0.000000 0.590050 0.374137 0.500000 0.000000 -0.866025 0 0 0
-0.324012 0.590050 0.187068 0.500000 0.000000 -0.866025 0 0 0
-0.324012 0.777119 0.187068 0.500000 0.000000 -0.866025 0 0 0
-0.000000 0.590050 -0.374137 0.000000 1.000000 0.000000 2 2 0
-0.324012 0.590050 0.187068 0.000000 1.000000 0.000000 7 5 0
0.324012 0.590050 0.187069 0.000000 1.000000 0.000000 5 4 0
-0.324012 0.590050 -0.187068 0.500000 0.000000 0.866025 1 0 0
-0.000000 0.590050 -0.374137 0.500000 0.000000 0.866025 0 0 0
-0.000000 0.777119 -0.374137 0.500000 0.000000 0.866025 1 1 0
-0.324012 0.590050 0.187068 1.000000 0.000000 -0.000000 7 5 0
-0.324012 0.590050 -0.187068 1.000000 0.000000 -0.000000 3 2 0
-0.324012 0.777119 -0.187068 1.000000 0.000000 -0.000000 25 19 0
0.324012 0.777119 -0.187069 0.000000 -1.000000 0.000000 255 243 192
-0.324012 0.777119 0.187068 0.000000 -1.000000 0.000000 255 243 192
-0.324012 0.777119 -0.187068 0.000000 -1.000000 0.000000 255 243 192
-0.000000 1.277074 0.000000 0.268034 -0.943523 -0.194737 255 255 255
0.096416 1.365709 -0.296742 0.268034 -0.943523 -0.194737 255 255 255
0.312015 1.365711 0.000000 0.268034 -0.943523 -0.194737 255 255 255
-0.385062 1.642212 0.787776 1.000000 0.000000 0.000000 0 0 0
-0.385062 1.442212 0.787776 1.000000 0.000000 0.000000 0 0 0
-0.385062 1.442212 -0.212224 1.000000 0.000000 0.000000 16 12 0
-0.585062 1.642212 0.787776 0.000000 -0.000000 1.000000 202 161 0
-0.585062 1.442212 0.787776 0.000000 -0.000000 1.000000 0 0 0
-0.385062 1.442212 0.787776 0.000000 -0.000000 1.000000 0 0 0
-0.585062 1.642212 -0.212224 -1.000000 0.000000 0.000000 255 204 0
-0.585062 1.442212 -0.212224 -1.000000 0.000000 0.000000 255 204 1
-0.585062 1.442212 0.787776 -1.000000 0.000000 0.000000 255 204 0
-0.385062 1.642212 -0.212224 0.000000 0.000000 -1.000000 0 0 0
-0.385062 1.442212 -0.212224 0.000000 0.000000 -1.000000 0 0 0
-0.585062 1.442212 -0.212224 0.000000 0.000000 -1.000000 1 0 0
-0.385062 1.442212 0.787776 0.000000 -1.000000 0.000000 0 0 0
-0.585062 1.442212 0.787776 0.000000 -1.000000 0.000000 0 0 0
-0.585062 1.442212 -0.212224 0.000000 -1.000000 0.000000 0 0 0
-0.585062 1.642212 0.787776 0.000000 1.000000 -0.000000 0 0 0
-0.385062 1.642212 0.787776 0.000000 1.000000 -0.000000 0 0 0
-0.385062 1.642212 -0.212224 0.000000 1.000000 -0.000000 0 0 0
-0.000000 1.870564 0.445117 -0.500000 0.000000 0.866025 255 204 0
-0.385483 1.870564 0.222559 -0.500000 0.000000 0.866025 255 203 0
-0.385483 0.683584 0.222559 -0.500000 0.000000 0.866025 255 204 0
-0.385483 1.870564 0.222559 -1.000000 0.000000 -0.000000 255 203 0
-0.385483 1.870564 -0.222559 -1.000000 0.000000 -0.000000 255 204 0
-0.385483 0.683584 -0.222559 -1.000000 0.000000 -0.000000 255 204 0
-0.385483 1.870564 -0.222559 -0.500000 0.000000 -0.866026 255 204 0
0.000000 1.870564 -0.445117 -0.500000 0.000000 -0.866026 255 204 0
0.000000 0.683584 -0.445117 -0.500000 0.000000 -0.866026 255 204 0
0.000000 1.870564 -0.445117 0.500000 0.000000 -0.866025 255 204 0
0.385483 1.870564 -0.222559 0.500000 0.000000 -0.866025 255 204 0
0.385483 0.683584 -0.222559 0.500000 0.000000 -0.866025 255 204 0
-0.000000 1.870564 0.445117 -0.000000 1.000000 -0.000000 255 255 255
0.000000 1.870564 -0.445117 -0.000000 1.000000 -0.000000 255 255 255
-0.385483 1.870564 -0.222559 -0.000000 1.000000 -0.000000 255 255 255
0.385483 1.870564 0.222559 0.500000 -0.000000 0.866025 255 204 0
-0.000000 1.870564 0.445117 0.500000 -0.000000 0.866025 255 204 0
-0.000000 0.683584 0.445117 0.500000 -0.000000 0.866025 251 211 0
0.385483 1.870564 -0.222559 1.000000 -0.000000 0.000000 255 204 0
0.385483 1.870564 0.222559 1.000000 -0.000000 0.000000 255 204 0
0.385483 0.683584 0.222559 1.000000 -0.000000 0.000000 255 204 0
-0.385483 0.683584 0.222559 -0.000000 -1.000000 -0.000000 120 120 120
0.000000 0.683584 -0.445117 -0.000000 -1.000000 -0.000000 120 120 120
-0.000000 0.683584 0.445117 -0.000000 -1.000000 -0.000000 120 120 120
-0.000000 2.143336 0.593490 -0.500000 0.000000 0.866025 102 102 102
-0.513977 2.143336 0.296745 -0.500000 0.000000 0.866025 102 102 102
-0.513977 1.846591 0.296745 -0.500000 0.000000 0.866025 102 102 102
-0.513977 2.143336 0.296745 -1.000000 0.000000 -0.000000 102 102 102
-0.513977 2.143336 -0.296745 -1.000000 0.000000 -0.000000 102 102 102
-0.513977 1.846591 -0.296745 -1.000000 0.000000 -0.000000 102 102 102
-0.513977 2.143336 -0.296745 -0.500000 0.000000 -0.866025 102 102 102
0.000000 2.143336 -0.593490 -0.500000 0.000000 -0.866025 101 101 101
0.000000 1.846591 -0.593490 -0.500000 0.000000 -0.866025 102 102 102
0.000000 2.143336 -0.593490 0.500000 0.000000 -0.866025 102 102 102
0.513977 2.143336 -0.296745 0.500000 0.000000 -0.866025 102 102 102
0.513977 1.846591 -0.296745 0.500000 0.000000 -0.866025 99 99 99
-0.000000 2.143336 0.593490 -0.000000 1.000000 -0.000000 99 99 99
0.000000 2.143336 -0.593490 -0.000000 1.000000 -0.000000 102 102 102
-0.513977 2.143336 -0.296745 -0.000000 1.000000 -0.000000 102 102 102
0.513977 2.143336 0.296745 0.500000 -0.000000 0.866025 102 102 102
-0.000000 2.143336 0.593490 0.500000 -0.000000 0.866025 94 94 94
-0.000000 1.846591 0.593490 0.500000 -0.000000 0.866025 102 102 102
0.513977 2.143336 -0.296745 1.000000 -0.000000 0.000000 102 102 102
0.513977 2.143336 0.296745 1.000000 -0.000000 0.000000 88 88 88
0.513977 1.846591 0.296745 1.000000 -0.000000 0.000000 102 102 102
-0.513977 1.846591 0.296745 -0.000000 -1.000000 -0.000000 120 120 120
0.513977 1.846591 -0.296745 -0.000000 -1.000000 -0.000000 121 121 119
0.513977 1.846591 0.296745 -0.000000 -1.000000 -0.000000 120 120 120
-0.000000 0.777119 -0.374137 -0.500000 0.000000 0.866025 0 0 0
-0.000000 0.590050 -0.374137 -0.500000 0.000000 0.866025 0 0 0
0.324012 0.777119 -0.187069 -1.000000 0.000000 -0.000000 0 0 0
0.324012 0.777119 0.187069 -1.000000 0.000000 -0.000000 136 113 19
0.324012 0.777119 0.187069 -0.500000 0.000000 -0.866025 0 0 0
-0.000000 0.777119 0.374137 -0.500000 0.000000 -0.866025 105 96 0
-0.000000 0.777119 0.374137 0.500000 0.000000 -0.866025 0 0 0
0.324012 0.590050 -0.187069 0.000000 1.000000 0.000000 0 0 0
-0.324012 0.590050 -0.187068 0.000000 1.000000 0.000000 13 10 0
-0.000000 0.590050 0.374137 0.000000 1.000000 0.000000 16 13 0
-0.324012 0.777119 -0.187068 0.500000 -0.000000 0.866025 0 0 0
-0.324012 0.590050 -0.187068 0.500000 -0.000000 0.866025 0 0 0
-0.000000 0.777119 -0.374137 0.500000 -0.000000 0.866025 2 2 0
-0.324012 0.777119 0.187068 1.000000 0.000000 -0.000000 0 0 0
-0.324012 0.590050 0.187068 1.000000 0.000000 -0.000000 0 0 0
-0.324012 0.777119 -0.187068 1.000000 0.000000 -0.000000 0 0 0
-0.000000 0.777119 -0.374137 -0.000000 -1.000000 0.000000 255 243 192
0.324012 0.777119 0.187069 0.000000 -1.000000 0.000000 255 243 192
-0.000000 0.777119 0.374137 0.000000 -1.000000 0.000000 255 243 192
-0.000000 0.683584 0.445117 -0.500000 0.000000 0.866025 251 211 0
-0.385483 0.683584 0.222559 -1.000000 -0.000000 -0.000000 255 204 0
-0.385483 1.870564 0.222559 -1.000000 -0.000000 -0.000000 255 204 0
-0.385483 0.683584 -0.222559 -0.500000 -0.000000 -0.866026 255 204 0
0.000000 0.683584 -0.445117 0.500000 0.000000 -0.866025 255 204 0
-0.385483 1.870564 0.222559 0.000000 1.000000 0.000000 255 255 255
0.385483 1.870564 0.222559 0.000000 1.000000 -0.000000 255 255 255
0.385483 1.870564 -0.222559 0.000000 1.000000 -0.000000 255 255 255
0.385483 0.683584 0.222559 0.500000 0.000000 0.866025 255 204 0
0.385483 0.683584 -0.222559 1.000000 0.000000 0.000000 255 204 0
0.385483 0.683584 0.222559 0.000000 -1.000000 0.000000 121 121 119
0.000000 0.683584 -0.445117 0.000000 -1.000000 0.000000 121 121 119
-0.385483 0.683584 -0.222559 0.000000 -1.000000 0.000000 120 120 120
0.385483 0.683584 -0.222559 0.000000 -1.000000 -0.000000 120 120 120
0.385483 0.683584 0.222559 0.000000 -1.000000 -0.000000 122 121 118
-0.000000 1.846591 0.593490 -0.500000 0.000000 0.866025 102 102 102
-0.513977 1.846591 0.296745 -1.000000 -0.000000 -0.000000 102 102 102
-0.513977 1.846591 -0.296745 -0.500000 -0.000000 -0.866025 100 100 100
0.000000 1.846591 -0.593490 0.500000 0.000000 -0.866025 102 102 102
0.513977 1.846591 -0.296745 0.500000 0.000000 -0.866025 102 102 102
-0.513977 2.143336 0.296745 0.000000 1.000000 0.000000 102 102 102
-0.000000 2.143336 0.593490 0.000000 1.000000 0.000000 100 100 100
-0.000000 2.143336 0.593490 0.000000 1.000000 -0.000000 102 102 102
0.513977 2.143336 0.296745 0.000000 1.000000 -0.000000 102 102 102
0.513977 2.143336 -0.296745 0.000000 1.000000 -0.000000 102 102 102
0.513977 1.846591 0.296745 0.500000 0.000000 0.866025 102 102 102
0.513977 1.846591 -0.296745 1.000000 0.000000 0.000000 102 102 102
0.513977 1.846591 0.296745 1.000000 0.000000 0.000000 97 97 97
0.513977 1.846591 0.296745 0.000000 -1.000000 0.000000 144 136 98
-0.000000 1.846591 0.593490 0.000000 -1.000000 0.000000 120 120 120
-0.513977 1.846591 0.296745 0.000000 -1.000000 0.000000 122 122 118
-0.513977 1.846591 -0.296745 0.000000 -1.000000 0.000000 120 120 120
0.000000 1.846591 -0.593490 0.000000 -1.000000 0.000000 120 120 120
0.513977 1.846591 -0.296745 0.000000 -1.000000 -0.000000 120 120 120
-0.513977 1.846591 0.296745 0.000000 -1.000000 -0.000000 121 120 119
-0.390989 1.769332 0.884665 1.000000 0.000000 0.000000 0 0 0
-0.390989 1.315093 0.884665 1.000000 0.000000 0.000000 0 0 0
-0.390989 1.315093 0.784665 1.000000 0.000000 0.000000 0 0 0
-0.590989 1.769332 0.884665 0.000000 -0.000000 1.000000 0 0 0
-0.590989 1.315093 0.884665 0.000000 -0.000000 1.000000 0 0 0
-0.390989 1.315093 0.884665 0.000000 -0.000000 1.000000 0 0 0
-0.590989 1.769332 0.784665 -1.000000 0.000000 0.000000 5 4 0
-0.590989 1.315093 0.784665 -1.000000 0.000000 0.000000 6 5 0
-0.590989 1.315093 0.884665 -1.000000 0.000000 0.000000 0 0 0
-0.390989 1.769332 0.784665 0.000000 0.000000 -1.000000 16 12 0
-0.390989 1.315093 0.784665 0.000000 0.000000 -1.000000 30 25 0
-0.590989 1.315093 0.784665 0.000000 0.000000 -1.000000 6 5 0
-0.390989 1.315093 0.884665 0.000000 -1.000000 0.000000 0 0 0
-0.590989 1.315093 0.884665 0.000000 -1.000000 0.000000 0 0 0
-0.590989 1.315093 0.784665 0.000000 -1.000000 0.000000 9 6 0
-0.590989 1.769332 0.884665 0.000000 1.000000 -0.000000 0 0 0
-0.390989 1.769332 0.884665 0.000000 1.000000 -0.000000 0 0 0
-0.390989 1.769332 0.784665 0.000000 1.000000 -0.000000 2 2 0
-0.392095 1.768645 1.079720 1.000000 0.000000 0.000000 0 0 0
-0.392095 1.641458 1.079720 1.000000 0.000000 0.000000 0 0 0
-0.392095 1.641458 0.881931 1.000000 0.000000 0.000000 0 0 0
-0.589884 1.768645 1.079720 0.000000 -0.000000 1.000000 0 0 0
-0.589884 1.641458 1.079720 0.000000 -0.000000 1.000000 0 0 0
-0.392095 1.641458 1.079720 0.000000 -0.000000 1.000000 0 0 0
-0.589884 1.768645 0.881931 -1.000000 0.000000 0.000000 0 0 0
-0.589884 1.641458 0.881931 -1.000000 0.000000 0.000000 0 0 0
-0.589884 1.641458 1.079720 -1.000000 0.000000 0.000000 0 0 0
-0.392095 1.768645 0.881931 0.000000 0.000000 -1.000000 255 255 255
-0.392095 1.641458 0.881931 0.000000 0.000000 -1.000000 255 255 255
-0.589884 1.641458 0.881931 0.000000 0.000000 -1.000000 255 255 255
-0.392095 1.641458 1.079720 0.000000 -1.000000 0.000000 0 0 0
-0.589884 1.641458 1.079720 0.000000 -1.000000 0.000000 0 0 0
-0.589884 1.641458 0.881931 0.000000 -1.000000 0.000000 0 0 0
-0.589884 1.768645 1.079720 0.000000 1.000000 -0.000000 0 0 0
-0.392095 1.768645 1.079720 0.000000 1.000000 -0.000000 0 0 0
-0.392095 1.768645 0.881931 0.000000 1.000000 -0.000000 0 0 0
-0.392095 1.444819 1.079720 1.000000 0.000000 0.000000 0 0 0
-0.392095 1.317632 1.079720 1.000000 0.000000 0.000000 0 0 0
-0.392095 1.317632 0.881931 1.000000 0.000000 0.000000 0 0 0
-0.589884 1.444819 1.079720 0.000000 -0.000000 1.000000 0 0 0
-0.589884 1.317632 1.079720 0.000000 -0.000000 1.000000 0 0 0
-0.392095 1.317632 1.079720 0.000000 -0.000000 1.000000 0 0 0
-0.589884 1.444819 0.881931 -1.000000 0.000000 0.000000 4 3 0
-0.589884 1.317632 0.881931 -1.000000 0.000000 0.000000 0 0 0
-0.589884 1.317632 1.079720 -1.000000 0.000000 0.000000 0 0 0
-0.392095 1.444819 0.881931 0.000000 0.000000 -1.000000 255 255 255
-0.392095 1.317632 0.881931 0.000000 0.000000 -1.000000 255 255 255
-0.589884 1.317632 0.881931 0.000000 0.000000 -1.000000 255 255 255
-0.392095 1.317632 1.079720 0.000000 -1.000000 0.000000 0 0 0
-0.589884 1.317632 1.079720 0.000000 -1.000000 0.000000 0 0 0
-0.589884 1.317632 0.881931 0.000000 -1.000000 0.000000 0 0 0
-0.589884 1.444819 1.079720 0.000000 1.000000 -0.000000 0 0 0
-0.392095 1.444819 1.079720 0.000000 1.000000 -0.000000 0 0 0
-0.392095 1.444819 0.881931 0.000000 1.000000 -0.000000 0 0 0
0.614938 1.642212 0.787776 1.000000 0.000000 0.000000 248 199 0
0.614938 1.442212 0.787776 1.000000 0.000000 0.000000 235 189 0
0.614938 1.442212 -0.212224 1.000000 0.000000 0.000000 255 204 0
0.414938 1.642212 -0.212224 -1.000000 0.000000 0.000000 24 19 0
0.414938 1.442212 -0.212224 -1.000000 0.000000 0.000000 14 12 0
0.414938 1.442212 0.787776 -1.000000 0.000000 0.000000 0 0 0
0.614938 1.642212 -0.212224 0.000000 0.000000 -1.000000 0 0 0
0.614938 1.442212 -0.212224 0.000000 0.000000 -1.000000 0 0 0
0.414938 1.442212 -0.212224 0.000000 0.000000 -1.000000 0 0 0
0.614938 1.442212 0.787776 0.000000 -1.000000 0.000000 0 0 0
0.414938 1.442212 0.787776 0.000000 -1.000000 0.000000 0 0 0
0.414938 1.442212 -0.212224 0.000000 -1.000000 0.000000 0 0 0
0.414938 1.642212 0.787776 0.000000 1.000000 -0.000000 0 0 0
0.614938 1.642212 0.787776 0.000000 1.000000 -0.000000 0 0 0
0.614938 1.642212 -0.212224 0.000000 1.000000 -0.000000 0 0 0
0.609011 1.769332 0.884665 1.000000 0.000000 0.000000 4 3 0
0.609011 1.315093 0.884665 1.000000 0.000000 0.000000 0 0 0
0.609011 1.315093 0.784665 1.000000 0.000000 0.000000 5 4 0
0.409011 1.769332 0.884665 0.000000 -0.000000 1.000000 0 0 0
0.409011 1.315093 0.884665 0.000000 -0.000000 1.000000 3 2 0
0.609011 1.315093 0.884665 0.000000 -0.000000 1.000000 0 0 0
0.409011 1.769332 0.784665 -1.000000 0.000000 0.000000 0 0 0
0.409011 1.315093 0.784665 -1.000000 0.000000 0.000000 7 5 0
0.409011 1.315093 0.884665 -1.000000 0.000000 0.000000 0 0 0
0.609011 1.769332 0.784665 0.000000 0.000000 -1.000000 0 0 0
0.609011 1.315093 0.784665 0.000000 0.000000 -1.000000 0 0 0
0.409011 1.315093 0.784665 0.000000 0.000000 -1.000000 0 0 0
0.609011 1.315093 0.884665 0.000000 -1.000000 0.000000 0 0 0
0.409011 1.315093 0.884665 0.000000 -1.000000 0.000000 0 0 0
0.409011 1.315093 0.784665 0.000000 -1.000000 0.000000 1 1 0
0.409011 1.769332 0.884665 0.000000 1.000000 -0.000000 8 6 0
0.609011 1.769332 0.884665 0.000000 1.000000 -0.000000 4 3 0
0.609011 1.769332 0.784665 0.000000 1.000000 -0.000000 23 18 0
0.607905 1.768645 1.079720 1.000000 0.000000 0.000000 0 0 0
0.607905 1.641458 1.079720 1.000000 0.000000 0.000000 0 0 0
0.607905 1.641458 0.881931 1.000000 0.000000 0.000000 0 0 0
0.410116 1.768645 1.079720 0.000000 -0.000000 1.000000 0 0 0
0.410116 1.641458 1.079720 0.000000 -0.000000 1.000000 0 0 0
0.607905 1.641458 1.079720 0.000000 -0.000000 1.000000 0 0 0
0.410116 1.768645 0.881931 -1.000000 0.000000 0.000000 0 0 0
0.410116 1.641458 0.881931 -1.000000 0.000000 0.000000 0 0 0
0.410116 1.641458 1.079720 -1.000000 0.000000 0.000000 0 0 0
0.410116 1.768645 1.079720 0.000000 1.000000 -0.000000 8 6 0
0.607905 1.768645 1.079720 0.000000 1.000000 -0.000000 0 0 0
0.607905 1.768645 0.881931 0.000000 1.000000 -0.000000 4 4 0
0.607905 1.444819 1.079720 1.000000 0.000000 0.000000 0 0 0
0.607905 1.317632 1.079720 1.000000 0.000000 0.000000 0 0 0
0.607905 1.317632 0.881931 1.000000 0.000000 0.000000 0 0 0
0.410116 1.444819 1.079720 0.000000 -0.000000 1.000000 0 0 0
0.410116 1.317632 1.079720 0.000000 -0.000000 1.000000 0 0 0
0.607905 1.317632 1.079720 0.000000 -0.000000 1.000000 0 0 0
0.410116 1.444819 0.881931 -1.000000 0.000000 0.000000 0 0 0
0.410116 1.317632 0.881931 -1.000000 0.000000 0.000000 0 0 0
0.410116 1.317632 1.079720 -1.000000 0.000000 0.000000 0 0 0
0.607905 1.444819 0.881931 0.000000 0.000000 -1.000000 255 255 255
0.607905 1.317632 0.881931 0.000000 0.000000 -1.000000 255 255 255
0.410116 1.317632 0.881931 0.000000 0.000000 -1.000000 255 255 255
0.607905 1.317632 1.079720 0.000000 -1.000000 0.000000 0 0 0
0.410116 1.317632 1.079720 0.000000 -1.000000 0.000000 0 0 0
0.410116 1.317632 0.881931 0.000000 -1.000000 0.000000 0 0 0
0.410116 1.444819 1.079720 0.000000 1.000000 -0.000000 0 0 0
0.607905 1.444819 1.079720 0.000000 1.000000 -0.000000 0 0 0
0.607905 1.444819 0.881931 0.000000 1.000000 -0.000000 0 0 0
-0.137725 2.082221 0.568848 1.000000 0.000000 0.000000 255 255 255
-0.137725 1.912539 0.568848 1.000000 0.000000 0.000000 255 255 255
-0.137725 1.912539 0.399166 1.000000 0.000000 0.000000 255 231 139
-0.307407 2.082221 0.568848 0.000000 -0.000000 1.000000 255 255 255
-0.307407 1.912539 0.568848 0.000000 -0.000000 1.000000 255 255 255
-0.137725 1.912539 0.568848 0.000000 -0.000000 1.000000 255 255 255
-0.307407 2.082221 0.399166 -1.000000 0.000000 0.000000 255 255 255
-0.307407 1.912539 0.399166 -1.000000 0.000000 0.000000 255 255 255
-0.307407 1.912539 0.568848 -1.000000 0.000000 0.000000 255 253 253
-0.137725 2.082221 0.399166 0.000000 0.000000 -1.000000 255 255 255
-0.137725 1.912539 0.399166 0.000000 0.000000 -1.000000 255 255 255
-0.307407 1.912539 0.399166 0.000000 0.000000 -1.000000 255 255 255
-0.137725 1.912539 0.568848 0.000000 -1.000000 0.000000 255 255 255
-0.307407 1.912539 0.568848 0.000000 -1.000000 0.000000 255 255 255
-0.307407 1.912539 0.399166 0.000000 -1.000000 0.000000 255 255 255
-0.307407 2.082221 0.568848 0.000000 1.000000 -0.000000 255 255 255
-0.137725 2.082221 0.568848 0.000000 1.000000 -0.000000 255 255 255
-0.137725 2.082221 0.399166 0.000000 1.000000 -0.000000 255 255 255
0.329696 2.082221 0.568848 1.000000 0.000000 0.000000 255 255 255
0.329696 1.912539 0.568848 1.000000 0.000000 0.000000 255 255 255
0.329696 1.912539 0.399166 1.000000 0.000000 0.000000 255 255 255
0.160013 2.082221 0.568848 0.000000 -0.000000 1.000000 255 255 255
0.160013 1.912539 0.568848 0.000000 -0.000000 1.000000 255 255 255
0.329696 1.912539 0.568848 0.000000 -0.000000 1.000000 255 255 255
0.160013 2.082221 0.399166 -1.000000 0.000000 0.000000 255 255 255
0.160013 1.912539 0.399166 -1.000000 0.000000 0.000000 255 255 255
0.160013 1.912539 0.568848 -1.000000 0.000000 0.000000 255 253 253
0.329696 1.912539 0.568848 0.000000 -1.000000 0.000000 255 255 255
0.160013 1.912539 0.568848 0.000000 -1.000000 0.000000 255 255 255
0.160013 1.912539 0.399166 0.000000 -1.000000 0.000000 255 255 255
0.160013 2.082221 0.568848 0.000000 1.000000 -0.000000 255 255 255
0.329696 2.082221 0.568848 0.000000 1.000000 -0.000000 255 255 255
0.329696 2.082221 0.399166 0.000000 1.000000 -0.000000 255 255 255
-0.385062 1.642212 -0.212224 1.000000 -0.000000 0.000000 8 7 0
-0.385062 1.642212 0.787776 0.000000 -0.000000 1.000000 0 0 0
-0.585062 1.642212 0.787776 -1.000000 0.000000 0.000000 251 201 0
-0.585062 1.642212 -0.212224 0.000000 0.000000 -1.000000 0 0 0
-0.385062 1.442212 -0.212224 0.000000 -1.000000 0.000000 14 11 0
-0.585062 1.642212 -0.212224 0.000000 1.000000 0.000000 0 0 0
-0.390989 1.769332 0.784665 1.000000 -0.000000 0.000000 0 0 0
-0.390989 1.769332 0.884665 0.000000 -0.000000 1.000000 0 0 0
-0.590989 1.769332 0.884665 -1.000000 0.000000 0.000000 0 0 0
-0.590989 1.769332 0.784665 0.000000 0.000000 -1.000000 5 4 0
-0.390989 1.315093 0.784665 0.000000 -1.000000 0.000000 6 5 0
-0.590989 1.769332 0.784665 0.000000 1.000000 0.000000 0 0 0
-0.392095 1.768645 0.881931 1.000000 -0.000000 0.000000 0 0 0
-0.392095 1.768645 1.079720 0.000000 -0.000000 1.000000 0 0 0
-0.589884 1.768645 1.079720 -1.000000 0.000000 0.000000 13 10 0
-0.589884 1.768645 0.881931 0.000000 0.000000 -1.000000 255 255 255
-0.392095 1.641458 0.881931 0.000000 -1.000000 0.000000 1 1 0
-0.589884 1.768645 0.881931 0.000000 1.000000 0.000000 0 0 0
-0.392095 1.444819 0.881931 1.000000 -0.000000 0.000000 0 0 0
-0.392095 1.444819 1.079720 0.000000 -0.000000 1.000000 0 0 0
-0.589884 1.444819 1.079720 -1.000000 0.000000 0.000000 0 0 0
-0.589884 1.444819 0.881931 0.000000 0.000000 -1.000000 255 255 255
-0.392095 1.317632 0.881931 0.000000 -1.000000 0.000000 0 0 0
-0.589884 1.444819 0.881931 0.000000 1.000000 0.000000 0 0 0
0.614938 1.642212 -0.212224 1.000000 -0.000000 0.000000 255 204 0
0.414938 1.642212 0.787776 -1.000000 0.000000 0.000000 0 0 0
0.414938 1.642212 -0.212224 0.000000 0.000000 -1.000000 0 0 0
0.614938 1.442212 -0.212224 0.000000 -1.000000 0.000000 34 27 0
0.414938 1.642212 -0.212224 0.000000 1.000000 0.000000 0 0 0
0.609011 1.769332 0.784665 1.000000 -0.000000 0.000000 23 18 0
0.609011 1.769332 0.884665 0.000000 -0.000000 1.000000 0 0 0
0.409011 1.769332 0.884665 -1.000000 0.000000 0.000000 0 0 0
0.409011 1.769332 0.784665 0.000000 0.000000 -1.000000 3 2 0
0.609011 1.315093 0.784665 0.000000 -1.000000 0.000000 23 18 0
0.409011 1.769332 0.784665 0.000000 1.000000 0.000000 8 6 0
0.607905 1.768645 0.881931 1.000000 -0.000000 0.000000 4 4 0
0.607905 1.768645 1.079720 0.000000 -0.000000 1.000000 0 0 0
0.410116 1.768645 1.079720 -1.000000 0.000000 0.000000 0 0 0
0.410116 1.768645 0.881931 0.000000 1.000000 0.000000 8 6 0
0.607905 1.444819 0.881931 1.000000 -0.000000 0.000000 0 0 0
0.607905 1.444819 1.079720 0.000000 -0.000000 1.000000 0 0 0
0.410116 1.444819 1.079720 -1.000000 0.000000 0.000000 0 0 0
0.410116 1.444819 0.881931 0.000000 0.000000 -1.000000 255 255 255
0.607905 1.317632 0.881931 0.000000 -1.000000 0.000000 0 0 0
0.410116 1.444819 0.881931 0.000000 1.000000 0.000000 3 2 0
-0.137725 2.082221 0.399166 1.000000 -0.000000 0.000000 255 255 255
-0.137725 2.082221 0.568848 0.000000 -0.000000 1.000000 255 255 255
-0.307407 2.082221 0.568848 -1.000000 0.000000 0.000000 255 255 255
-0.307407 2.082221 0.399166 0.000000 0.000000 -1.000000 255 255 255
-0.137725 1.912539 0.399166 0.000000 -1.000000 0.000000 253 243 194
-0.307407 2.082221 0.399166 0.000000 1.000000 0.000000 255 255 255
0.329696 2.082221 0.399166 1.000000 -0.000000 0.000000 255 255 255
0.329696 2.082221 0.568848 0.000000 -0.000000 1.000000 255 255 255
0.160013 2.082221 0.568848 -1.000000 0.000000 0.000000 255 255 255
0.329696 1.912539 0.399166 0.000000 -1.000000 0.000000 255 255 255
0.160013 2.082221 0.399166 0.000000 1.000000 0.000000 255 255 255
3 0 1 2
3 3 4 5
3 6 7 8
3 9 10 11
3 12 13 14
3 15 16 17
3 18 19 20
3 21 22 23
3 24 25 26
3 27 28 29
3 30 31 32
3 33 34 35
3 36 37 38
3 39 40 41
3 42 43 44
3 45 46 47
3 48 49 50
3 51 52 53
3 54 55 56
3 57 58 59
3 60 61 62
3 63 64 65
3 66 67 68
3 69 70 71
3 72 73 74
3 75 76 77
3 78 79 80
3 81 82 83
3 84 85 86
3 87 88 89
3 90 91 92
3 93 94 2
3 95 3 96
3 97 6 98
3 99 9 11
3 14 100 12
3 12 101 13
3 13 102 14
3 103 104 105
3 106 107 108
3 23 109 21
3 21 110 111
3 111 22 21
3 112 45 47
3 113 114 50
3 115 51 53
3 116 54 56
3 59 117 57
3 57 118 119
3 119 58 57
3 120 60 62
3 121 63 65
3 122 68 123
3 66 124 67
3 67 125 126
3 127 69 71
3 128 72 74
3 129 75 77
3 130 78 131
3 83 132 133
3 134 135 136
3 136 82 134
3 137 84 86
3 138 87 139
3 140 141 90
3 142 143 144
3 144 145 146
3 147 148 149
3 150 151 152
3 153 154 155
3 156 157 158
3 159 160 161
3 162 163 164
3 165 166 167
3 168 169 170
3 171 172 173
3 174 175 176
3 177 178 179
3 180 181 182
3 183 184 185
3 186 187 188
3 189 190 191
3 192 193 194
3 195 196 197
3 198 199 200
3 201 202 203
3 204 205 206
3 207 208 209
3 210 211 212
3 213 214 215
3 216 217 218
3 219 220 221
3 222 223 224
3 225 226 227
3 228 229 230
3 231 232 233
3 234 235 236
3 237 238 239
3 240 241 242
3 243 244 245
3 246 247 248
3 249 250 251
3 252 253 254
3 255 256 257
3 258 259 260
3 261 262 263
3 264 265 266
3 267 268 269
3 270 271 272
3 273 274 275
3 276 277 278
3 279 280 281
3 282 283 284
3 285 286 287
3 288 289 290
3 291 292 293
3 294 295 296
3 297 27 29
3 298 30 32
3 299 33 35
3 300 36 38
3 301 39 41
3 302 42 44
3 303 147 149
3 304 150 152
3 305 153 155
3 306 156 158
3 307 159 161
3 308 162 164
3 309 165 167
3 310 168 170
3 311 171 173
3 312 174 176
3 313 177 179
3 314 180 182
3 315 183 185
3 316 186 188
3 317 189 191
3 318 192 194
3 319 195 197
3 320 198 200
3 321 201 203
3 322 204 206
3 323 207 209
3 324 210 212
3 325 213 215
3 326 216 218
3 327 219 221
3 328 222 224
3 329 225 227
3 330 228 230
3 331 231 233
3 332 234 236
3 333 237 239
3 334 240 242
3 335 243 245
3 336 246 248
3 337 249 251
3 338 252 254
3 339 255 257
3 340 258 260
3 341 261 263
3 342 264 266
3 343 267 269
3 344 270 272
3 345 273 275
3 346 276 278
3 347 279 281
3 348 282 284
3 349 285 287
3 350 288 290
3 351 291 293
3 352 294 296
