ply
format ascii 1.0
comment Created by Blender 2.76 (sub 0) - www.blender.org, source file: 'scavenger.blend'
element vertex 120
property float x
property float y
property float z
property float nx
property float ny
property float nz
property uchar red
property uchar green
property uchar blue
element face 60
property list uchar uint vertex_indices
end_header
0.725000 0.791000 1.000000 1.000000 0.000000 0.000000 22 22 22
0.725000 0.541000 1.000000 1.000000 0.000000 0.000000 22 22 22
0.725000 0.541000 0.000000 1.000000 0.000000 0.000000 22 22 22
0.475000 0.791000 1.000000 0.000000 -0.000000 1.000000 21 21 21
0.475000 0.541000 1.000000 0.000000 -0.000000 1.000000 22 22 22
0.725000 0.541000 1.000000 0.000000 -0.000000 1.000000 18 18 18
0.475000 0.791000 0.000000 -1.000000 0.000000 0.000000 22 22 22
0.475000 0.541000 0.000000 -1.000000 0.000000 0.000000 21 21 21
0.475000 0.541000 1.000000 -1.000000 0.000000 0.000000 22 22 22
0.725000 0.791000 0.000000 0.000000 0.000000 -1.000000 22 22 22
0.725000 0.541000 0.000000 0.000000 0.000000 -1.000000 22 22 22
0.475000 0.541000 0.000000 0.000000 0.000000 -1.000000 22 22 22
0.725000 0.541000 1.000000 0.000000 -1.000000 0.000000 22 22 22
0.475000 0.541000 1.000000 0.000000 -1.000000 0.000000 22 22 22
0.475000 0.541000 0.000000 0.000000 -1.000000 0.000000 23 23 23
0.475000 0.791000 1.000000 0.000000 1.000000 -0.000000 22 22 22
0.725000 0.791000 1.000000 0.000000 1.000000 -0.000000 21 21 21
0.725000 0.791000 0.000000 0.000000 1.000000 -0.000000 22 22 22
-0.475000 0.791000 1.000000 1.000000 0.000000 0.000000 22 22 22
-0.475000 0.541000 1.000000 1.000000 0.000000 0.000000 22 22 22
-0.475000 0.541000 0.000000 1.000000 0.000000 0.000000 22 22 22
-0.725000 0.791000 1.000000 0.000000 -0.000000 1.000000 22 22 22
-0.725000 0.541000 1.000000 0.000000 -0.000000 1.000000 22 22 22
-0.475000 0.541000 1.000000 0.000000 -0.000000 1.000000 22 22 22
-0.725000 0.791000 0.000000 -1.000000 0.000000 0.000000 22 22 22
-0.725000 0.541000 0.000000 -1.000000 0.000000 0.000000 22 22 22
-0.725000 0.541000 1.000000 -1.000000 0.000000 0.000000 22 22 22
-0.475000 0.791000 0.000000 0.000000 0.000000 -1.000000 41 41 41
-0.475000 0.541000 0.000000 0.000000 0.000000 -1.000000 41 41 41
-0.725000 0.541000 0.000000 0.000000 0.000000 -1.000000 41 41 41
-0.475000 0.541000 1.000000 0.000000 -1.000000 0.000000 41 41 41
-0.725000 0.541000 1.000000 0.000000 -1.000000 0.000000 41 41 41
-0.725000 0.541000 0.000000 0.000000 -1.000000 0.000000 41 41 41
-0.725000 0.791000 1.000000 0.000000 1.000000 -0.000000 22 22 22
-0.475000 0.791000 1.000000 0.000000 1.000000 -0.000000 22 22 22
-0.475000 0.791000 0.000000 0.000000 1.000000 -0.000000 22 22 22
0.400000 1.200000 0.400000 1.000000 0.000000 0.000000 155 9 9
0.400000 1.000000 0.400000 1.000000 0.000000 0.000000 255 0 0
0.400000 1.000000 -0.400000 1.000000 0.000000 0.000000 255 0 0
-0.400000 1.200000 0.400000 0.000000 -0.000000 1.000000 255 0 0
-0.400000 1.000000 0.400000 0.000000 -0.000000 1.000000 255 0 0
0.400000 1.000000 0.400000 0.000000 -0.000000 1.000000 255 0 0
-0.400000 1.200000 -0.400000 -1.000000 0.000000 0.000000 254 0 0
-0.400000 1.000000 -0.400000 -1.000000 0.000000 0.000000 255 0 0
-0.400000 1.000000 0.400000 -1.000000 0.000000 0.000000 255 0 0
0.400000 1.200000 -0.400000 0.000000 0.000000 -1.000000 214 7 7
0.400000 1.000000 -0.400000 0.000000 0.000000 -1.000000 255 0 0
-0.400000 1.000000 -0.400000 0.000000 0.000000 -1.000000 255 0 0
0.400000 1.000000 0.400000 0.000000 -1.000000 0.000000 255 255 255
-0.400000 1.000000 0.400000 0.000000 -1.000000 0.000000 255 255 255
-0.400000 1.000000 -0.400000 0.000000 -1.000000 0.000000 255 255 255
-0.400000 1.200000 0.400000 0.000000 1.000000 -0.000000 255 255 255
0.400000 1.200000 0.400000 0.000000 1.000000 -0.000000 255 255 255
0.400000 1.200000 -0.400000 0.000000 1.000000 -0.000000 255 255 255
0.500000 1.300000 0.500000 1.000000 0.000000 0.000000 22 22 22
0.500000 1.100000 0.500000 1.000000 0.000000 0.000000 22 22 22
0.500000 1.100000 -0.500000 1.000000 0.000000 0.000000 22 22 22
-0.500000 1.300000 0.500000 0.000000 -0.000000 1.000000 22 22 22
-0.500000 1.100000 0.500000 0.000000 -0.000000 1.000000 22 22 22
0.500000 1.100000 0.500000 0.000000 -0.000000 1.000000 22 22 22
-0.500000 1.300000 -0.500000 -1.000000 0.000000 0.000000 22 22 22
-0.500000 1.100000 -0.500000 -1.000000 0.000000 0.000000 22 22 22
-0.500000 1.100000 0.500000 -1.000000 0.000000 0.000000 22 22 22
0.500000 1.300000 -0.500000 0.000000 0.000000 -1.000000 22 22 22
0.500000 1.100000 -0.500000 0.000000 0.000000 -1.000000 22 22 22
-0.500000 1.100000 -0.500000 0.000000 0.000000 -1.000000 22 22 22
0.500000 1.100000 0.500000 0.000000 -1.000000 0.000000 22 22 22
-0.500000 1.100000 0.500000 0.000000 -1.000000 0.000000 22 22 22
-0.500000 1.100000 -0.500000 0.000000 -1.000000 0.000000 22 22 22
-0.500000 1.300000 0.500000 0.000000 1.000000 -0.000000 41 41 41
0.500000 1.300000 0.500000 0.000000 1.000000 -0.000000 41 41 41
0.500000 1.300000 -0.500000 0.000000 1.000000 -0.000000 41 41 41
0.500000 0.999125 0.500000 1.000000 0.000000 0.000000 22 22 22
0.500000 -0.000875 0.500000 1.000000 0.000000 0.000000 22 22 22
0.500000 -0.000875 -0.500000 1.000000 0.000000 0.000000 25 25 25
-0.500000 0.999125 0.500000 0.000000 -0.000000 1.000000 22 22 22
-0.500000 -0.000875 0.500000 0.000000 -0.000000 1.000000 22 22 22
0.500000 -0.000875 0.500000 0.000000 -0.000000 1.000000 22 22 22
-0.500000 0.999125 -0.500000 -1.000000 0.000000 0.000000 22 22 22
-0.500000 -0.000875 -0.500000 -1.000000 0.000000 0.000000 22 22 22
-0.500000 -0.000875 0.500000 -1.000000 0.000000 0.000000 22 22 22
0.500000 0.999125 -0.500000 0.000000 0.000000 -1.000000 31 23 23
0.500000 -0.000875 -0.500000 0.000000 0.000000 -1.000000 52 52 52
-0.500000 -0.000875 -0.500000 0.000000 0.000000 -1.000000 41 41 41
0.500000 -0.000875 0.500000 0.000000 -1.000000 0.000000 41 41 41
-0.500000 -0.000875 0.500000 0.000000 -1.000000 0.000000 41 41 41
-0.500000 -0.000875 -0.500000 0.000000 -1.000000 0.000000 41 41 41
-0.500000 0.999125 0.500000 0.000000 1.000000 -0.000000 22 22 22
0.500000 0.999125 0.500000 0.000000 1.000000 -0.000000 22 22 22
0.500000 0.999125 -0.500000 0.000000 1.000000 -0.000000 23 22 22
0.725000 0.791000 0.000000 1.000000 -0.000000 0.000000 22 22 22
0.725000 0.791000 1.000000 0.000000 -0.000000 1.000000 13 13 13
0.475000 0.791000 1.000000 -1.000000 0.000000 0.000000 21 21 21
0.475000 0.791000 0.000000 0.000000 0.000000 -1.000000 34 34 34
0.725000 0.541000 0.000000 0.000000 -1.000000 0.000000 22 22 22
0.475000 0.791000 0.000000 0.000000 1.000000 0.000000 22 22 22
-0.475000 0.791000 0.000000 1.000000 -0.000000 0.000000 22 22 22
-0.475000 0.791000 1.000000 0.000000 -0.000000 1.000000 22 22 22
-0.725000 0.791000 1.000000 -1.000000 0.000000 0.000000 22 22 22
-0.725000 0.791000 0.000000 0.000000 0.000000 -1.000000 41 41 41
-0.475000 0.541000 0.000000 0.000000 -1.000000 0.000000 41 41 41
-0.725000 0.791000 0.000000 0.000000 1.000000 0.000000 22 22 22
0.400000 1.200000 -0.400000 1.000000 -0.000000 0.000000 255 0 0
0.400000 1.200000 0.400000 0.000000 -0.000000 1.000000 255 0 0
-0.400000 1.200000 0.400000 -1.000000 0.000000 0.000000 255 0 0
-0.400000 1.200000 -0.400000 0.000000 0.000000 -1.000000 255 0 0
0.400000 1.000000 -0.400000 0.000000 -1.000000 0.000000 255 255 255
-0.400000 1.200000 -0.400000 0.000000 1.000000 0.000000 255 255 255
0.500000 1.300000 -0.500000 1.000000 -0.000000 0.000000 22 22 22
0.500000 1.300000 0.500000 0.000000 -0.000000 1.000000 22 22 22
-0.500000 1.300000 0.500000 -1.000000 0.000000 0.000000 22 22 22
-0.500000 1.300000 -0.500000 0.000000 0.000000 -1.000000 22 22 22
0.500000 1.100000 -0.500000 0.000000 -1.000000 0.000000 22 22 22
-0.500000 1.300000 -0.500000 0.000000 1.000000 0.000000 41 41 41
0.500000 0.999125 -0.500000 1.000000 -0.000000 0.000000 22 22 22
0.500000 0.999125 0.500000 0.000000 -0.000000 1.000000 22 22 22
-0.500000 0.999125 0.500000 -1.000000 0.000000 0.000000 23 22 22
-0.500000 0.999125 -0.500000 0.000000 0.000000 -1.000000 23 23 23
0.500000 -0.000875 -0.500000 0.000000 -1.000000 0.000000 41 41 41
-0.500000 0.999125 -0.500000 0.000000 1.000000 0.000000 22 22 22
3 0 1 2
3 3 4 5
3 6 7 8
3 9 10 11
3 12 13 14
3 15 16 17
3 18 19 20
3 21 22 23
3 24 25 26
3 27 28 29
3 30 31 32
3 33 34 35
3 36 37 38
3 39 40 41
3 42 43 44
3 45 46 47
3 48 49 50
3 51 52 53
3 54 55 56
3 57 58 59
3 60 61 62
3 63 64 65
3 66 67 68
3 69 70 71
3 72 73 74
3 75 76 77
3 78 79 80
3 81 82 83
3 84 85 86
3 87 88 89
3 90 0 2
3 91 3 5
3 92 6 8
3 93 9 11
3 94 12 14
3 95 15 17
3 96 18 20
3 97 21 23
3 98 24 26
3 99 27 29
3 100 30 32
3 101 33 35
3 102 36 38
3 103 39 41
3 104 42 44
3 105 45 47
3 106 48 50
3 107 51 53
3 108 54 56
3 109 57 59
3 110 60 62
3 111 63 65
3 112 66 68
3 113 69 71
3 114 72 74
3 115 75 77
3 116 78 80
3 117 81 83
3 118 84 86
3 119 87 89
