ply
format ascii 1.0
comment Created by Blender 2.76 (sub 0) - www.blender.org, source file: 'sheild.blend'
element vertex 13
property float x
property float y
property float z
property float nx
property float ny
property float nz
property uchar red
property uchar green
property uchar blue
element face 5
property list uchar uint vertex_indices
end_header
-0.338403 1.250000 -0.152402 0.003212 0.999990 -0.003212 255 0 0
0.144982 1.250000 0.330984 0.003212 0.999990 -0.003212 255 0 0
0.187500 1.247395 -0.437500 0.003212 0.999990 -0.003212 255 0 0
0.437500 1.247395 -0.187500 0.003212 0.999990 -0.003212 255 25 25
0.000000 1.250000 -0.470632 0.011694 0.999854 0.012436 255 0 0
-0.338403 1.250000 -0.152402 0.011694 0.999854 0.012436 255 0 0
0.187500 1.247395 -0.437500 0.011694 0.999854 0.012436 255 0 0
-0.430348 1.250000 0.408773 0.000000 1.000000 -0.000000 255 0 0
0.144982 1.250000 0.330984 0.000000 1.000000 -0.000000 255 0 0
-0.338403 1.250000 -0.152402 0.000000 1.000000 -0.000000 255 0 0
0.466277 1.249911 0.002767 -0.011460 0.999868 -0.011489 255 0 0
0.437500 1.247395 -0.187500 -0.011460 0.999868 -0.011489 255 25 25
0.144982 1.250000 0.330984 -0.011460 0.999868 -0.011489 255 0 0
3 0 1 2
3 3 2 1
3 4 5 6
3 7 8 9
3 10 11 12
