ply
format ascii 1.0
comment Created by Blender 2.76 (sub 0) - www.blender.org, source file: 'shopkeeper.blend'
element vertex 72
property float x
property float y
property float z
property float nx
property float ny
property float nz
property uchar red
property uchar green
property uchar blue
element face 36
property list uchar uint vertex_indices
end_header
0.070145 1.900000 0.480000 1.000000 0.000000 0.000000 255 255 255
0.070145 0.100000 0.480000 1.000000 0.000000 0.000000 255 255 255
0.070145 0.100000 -0.480000 1.000000 0.000000 0.000000 255 255 255
-0.087951 1.900000 0.480000 0.000000 -0.000000 1.000000 255 255 255
-0.087951 0.100000 0.480000 0.000000 -0.000000 1.000000 255 255 255
0.070145 0.100000 0.480000 0.000000 -0.000000 1.000000 255 255 255
-0.087951 1.900000 -0.480000 -1.000000 0.000000 0.000000 255 255 255
-0.087951 0.100000 -0.480000 -1.000000 0.000000 0.000000 255 255 255
-0.087951 0.100000 0.480000 -1.000000 0.000000 0.000000 255 255 255
0.070145 1.900000 -0.480000 0.000000 0.000000 -1.000000 255 255 255
0.070145 0.100000 -0.480000 0.000000 0.000000 -1.000000 255 255 255
-0.087951 0.100000 -0.480000 0.000000 0.000000 -1.000000 255 255 255
0.070145 0.100000 0.480000 0.000000 -1.000000 0.000000 255 255 255
-0.087951 0.100000 0.480000 0.000000 -1.000000 0.000000 255 255 255
-0.087951 0.100000 -0.480000 0.000000 -1.000000 0.000000 255 255 255
-0.087951 1.900000 0.480000 0.000000 1.000000 -0.000000 255 255 255
0.070145 1.900000 0.480000 0.000000 1.000000 -0.000000 255 255 255
0.070145 1.900000 -0.480000 0.000000 1.000000 -0.000000 255 255 255
-0.056434 2.000000 0.600000 1.000000 0.000000 0.000000 22 22 255
-0.056434 0.000000 0.600000 1.000000 0.000000 0.000000 0 0 255
-0.056434 0.000000 -0.600000 1.000000 0.000000 0.000000 22 22 255
-0.856434 2.000000 0.600000 0.000000 -0.000000 1.000000 22 22 255
-0.856434 0.000000 0.600000 0.000000 -0.000000 1.000000 0 0 255
-0.056434 0.000000 0.600000 0.000000 -0.000000 1.000000 0 0 255
-0.856434 2.000000 -0.600000 -1.000000 0.000000 0.000000 22 22 255
-0.856434 0.000000 -0.600000 -1.000000 0.000000 0.000000 22 22 255
-0.856434 0.000000 0.600000 -1.000000 0.000000 0.000000 22 22 255
-0.056434 2.000000 -0.600000 0.000000 0.000000 -1.000000 22 22 255
-0.056434 0.000000 -0.600000 0.000000 0.000000 -1.000000 22 22 255
-0.856434 0.000000 -0.600000 0.000000 0.000000 -1.000000 22 22 255
-0.056434 0.000000 0.600000 0.000000 -1.000000 0.000000 22 22 255
-0.856434 0.000000 0.600000 0.000000 -1.000000 0.000000 8 8 255
-0.856434 0.000000 -0.600000 0.000000 -1.000000 0.000000 22 22 255
-0.856434 2.000000 0.600000 0.000000 1.000000 -0.000000 22 22 255
-0.056434 2.000000 0.600000 0.000000 1.000000 -0.000000 22 22 255
-0.056434 2.000000 -0.600000 0.000000 1.000000 -0.000000 22 22 255
0.843566 2.000000 0.600000 1.000000 0.000000 0.000000 21 21 255
0.843566 0.000000 0.600000 1.000000 0.000000 0.000000 10 10 255
0.843566 0.000000 -0.600000 1.000000 0.000000 0.000000 22 22 255
0.043566 2.000000 0.600000 0.000000 -0.000000 1.000000 19 19 255
0.043566 0.000000 0.600000 0.000000 -0.000000 1.000000 11 11 255
0.843566 0.000000 0.600000 0.000000 -0.000000 1.000000 0 0 255
0.043566 2.000000 -0.600000 -1.000000 0.000000 0.000000 22 22 255
0.043566 0.000000 -0.600000 -1.000000 0.000000 0.000000 21 21 255
0.043566 0.000000 0.600000 -1.000000 0.000000 0.000000 22 22 255
0.843566 2.000000 -0.600000 0.000000 0.000000 -1.000000 22 22 255
0.843566 0.000000 -0.600000 0.000000 0.000000 -1.000000 22 22 255
0.043566 0.000000 -0.600000 0.000000 0.000000 -1.000000 22 22 255
0.843566 0.000000 0.600000 0.000000 -1.000000 0.000000 22 22 255
0.043566 0.000000 0.600000 0.000000 -1.000000 0.000000 22 22 255
0.043566 0.000000 -0.600000 0.000000 -1.000000 0.000000 22 22 255
0.043566 2.000000 0.600000 0.000000 1.000000 -0.000000 22 22 255
0.843566 2.000000 0.600000 0.000000 1.000000 -0.000000 19 19 255
0.843566 2.000000 -0.600000 0.000000 1.000000 -0.000000 22 22 255
0.070145 1.900000 -0.480000 1.000000 -0.000000 0.000000 255 255 255
0.070145 1.900000 0.480000 0.000000 -0.000000 1.000000 238 239 251
-0.087951 1.900000 0.480000 -1.000000 0.000000 0.000000 255 255 255
-0.087951 1.900000 -0.480000 0.000000 0.000000 -1.000000 255 255 255
0.070145 0.100000 -0.480000 0.000000 -1.000000 0.000000 255 255 255
-0.087951 1.900000 -0.480000 0.000000 1.000000 0.000000 255 255 255
-0.056434 2.000000 -0.600000 1.000000 -0.000000 0.000000 22 22 255
-0.056434 2.000000 0.600000 0.000000 -0.000000 1.000000 1 1 255
-0.856434 2.000000 0.600000 -1.000000 0.000000 0.000000 24 24 255
-0.856434 2.000000 -0.600000 0.000000 0.000000 -1.000000 15 15 255
-0.056434 0.000000 -0.600000 0.000000 -1.000000 0.000000 21 21 255
-0.856434 2.000000 -0.600000 0.000000 1.000000 0.000000 22 22 255
0.843566 2.000000 -0.600000 1.000000 -0.000000 0.000000 22 22 255
0.843566 2.000000 0.600000 0.000000 -0.000000 1.000000 0 0 255
0.043566 2.000000 0.600000 -1.000000 0.000000 0.000000 22 22 255
0.043566 2.000000 -0.600000 0.000000 0.000000 -1.000000 22 22 255
0.843566 0.000000 -0.600000 0.000000 -1.000000 0.000000 22 22 255
0.043566 2.000000 -0.600000 0.000000 1.000000 0.000000 22 22 255
3 0 1 2
3 3 4 5
3 6 7 8
3 9 10 11
3 12 13 14
3 15 16 17
3 18 19 20
3 21 22 23
3 24 25 26
3 27 28 29
3 30 31 32
3 33 34 35
3 36 37 38
3 39 40 41
3 42 43 44
3 45 46 47
3 48 49 50
3 51 52 53
3 54 0 2
3 55 3 5
3 56 6 8
3 57 9 11
3 58 12 14
3 59 15 17
3 60 18 20
3 61 21 23
3 62 24 26
3 63 27 29
3 64 30 32
3 65 33 35
3 66 36 38
3 67 39 41
3 68 42 44
3 69 45 47
3 70 48 50
3 71 51 53
