ply
format ascii 1.0
comment Created by Blender 2.74 (sub 0) - www.blender.org, source file: ''
element vertex 12
property float x
property float y
property float z
property float nx
property float ny
property float nz
property uchar red
property uchar green
property uchar blue
element face 4
property list uchar uint vertex_indices
end_header
0.985739 -1.043807 1.035874 -0.333333 0.666667 0.666667 0 21 255
0.985739 0.956193 -0.964126 -0.333333 0.666667 0.666667 35 255 0
-1.014262 -0.043807 -0.964126 -0.333333 0.666667 0.666667 255 0 16
-1.014262 -0.043807 -0.964126 -0.000000 0.000000 -1.000000 255 0 16
0.985739 0.956193 -0.964126 -0.000000 0.000000 -1.000000 35 255 0
0.985739 -1.043807 -0.964126 -0.000000 0.000000 -1.000000 255 255 255
0.985739 -1.043807 1.035874 1.000000 0.000000 -0.000000 0 21 255
0.985739 -1.043807 -0.964126 1.000000 0.000000 -0.000000 255 255 255
0.985739 0.956193 -0.964126 1.000000 0.000000 -0.000000 35 255 0
0.985739 -1.043807 1.035874 -0.447214 -0.894427 0.000000 0 21 255
-1.014262 -0.043807 -0.964126 -0.447214 -0.894427 0.000000 255 0 16
0.985739 -1.043807 -0.964126 -0.447214 -0.894427 0.000000 255 255 255
3 0 1 2
3 3 4 5
3 6 7 8
3 9 10 11
