ply
format ascii 1.0
comment Created by Blender 2.76 (sub 0) - www.blender.org, source file: 'trigger.blend'
element vertex 14
property float x
property float y
property float z
property float nx
property float ny
property float nz
property uchar red
property uchar green
property uchar blue
element face 12
property list uchar uint vertex_indices
end_header
-0.074306 1.250000 0.034788 0.000000 1.000000 0.000000 0 0 0
0.018879 1.250000 0.132481 0.000000 1.000000 0.000000 0 0 0
0.069594 1.250000 0.098322 0.000000 1.000000 0.000000 0 0 0
-0.096544 1.250000 -0.252134 0.000000 1.000000 0.000000 0 0 0
-0.019121 1.250000 0.002476 0.000000 1.000000 0.000000 28 23 5
-0.254916 1.250000 0.300056 0.000000 1.000000 -0.000000 0 0 0
0.255902 1.250000 0.300056 0.000000 1.000000 -0.000000 0 0 0
0.175920 1.250000 0.243476 0.000000 1.000000 -0.000000 1 1 1
-0.173788 1.250000 -0.252120 0.000000 1.000000 0.000000 0 0 0
0.177363 1.250000 -0.247505 0.000000 1.000000 0.000000 0 0 0
0.254029 1.250000 -0.305266 0.000000 1.000000 0.000000 0 0 0
-0.256789 1.250000 -0.305266 0.000000 1.000000 0.000000 0 0 0
-0.169304 1.250000 0.242478 0.000000 1.000000 0.000000 0 0 0
-0.019796 1.250000 -0.253162 0.000000 1.000000 0.000000 0 0 0
3 0 1 2
3 3 0 4
3 5 6 7
3 8 9 10
3 9 7 6
3 11 5 12
3 4 0 2
3 13 3 4
3 12 5 7
3 11 8 10
3 10 9 6
3 8 11 12
