ply
format ascii 1.0
comment Created by Blender 2.76 (sub 0) - www.blender.org, source file: 'vail.blend'
element vertex 40
property float x
property float y
property float z
property float nx
property float ny
property float nz
property uchar red
property uchar green
property uchar blue
element face 18
property list uchar uint vertex_indices
end_header
0.248615 1.250000 0.284063 0.000000 -1.000000 0.000000 0 170 0
-0.251385 1.250000 0.284063 0.000000 -1.000000 0.000000 0 170 0
-0.251385 1.250000 -0.215937 0.000000 -1.000000 0.000000 0 170 0
-0.001385 1.750000 0.034063 0.894427 0.447214 -0.000000 0 24 255
0.248615 1.250000 0.284063 0.894427 0.447214 -0.000000 1 170 1
0.248615 1.250000 -0.215937 0.894427 0.447214 -0.000000 2 171 2
-0.001385 1.750000 0.034063 0.000000 0.447214 0.894427 3 27 254
-0.251385 1.250000 0.284063 0.000000 0.447214 0.894427 0 170 0
0.248615 1.250000 0.284063 0.000000 0.447214 0.894427 5 172 5
-0.001385 1.750000 0.034063 -0.894427 0.447214 0.000000 1 25 255
-0.251385 1.250000 -0.215937 -0.894427 0.447214 0.000000 0 170 0
-0.251385 1.250000 0.284063 -0.894427 0.447214 0.000000 0 170 0
-0.001385 1.750000 0.034063 0.000000 0.447214 -0.894427 0 24 255
0.248615 1.250000 -0.215937 0.000000 0.447214 -0.894427 0 170 0
-0.251385 1.250000 -0.215937 0.000000 0.447214 -0.894427 12 174 12
0.084946 1.748769 0.124493 1.000000 0.000000 0.000000 255 255 255
0.084946 1.675834 0.124493 1.000000 0.000000 0.000000 255 255 255
0.084946 1.675834 -0.058899 1.000000 0.000000 0.000000 255 255 255
-0.098446 1.748769 0.124493 0.000000 -0.000000 1.000000 255 255 214
-0.098446 1.675834 0.124493 0.000000 -0.000000 1.000000 255 255 204
0.084946 1.675834 0.124493 0.000000 -0.000000 1.000000 255 255 204
-0.098446 1.748769 -0.058899 -1.000000 0.000000 0.000000 255 255 204
-0.098446 1.675834 -0.058899 -1.000000 0.000000 0.000000 255 255 204
-0.098446 1.675834 0.124493 -1.000000 0.000000 0.000000 255 255 204
0.084946 1.748769 -0.058899 0.000000 0.000000 -1.000000 255 255 204
0.084946 1.675834 -0.058899 0.000000 0.000000 -1.000000 255 255 204
-0.098446 1.675834 -0.058899 0.000000 0.000000 -1.000000 255 255 204
0.084946 1.675834 0.124493 0.000000 -1.000000 0.000000 255 255 204
-0.098446 1.675834 0.124493 0.000000 -1.000000 0.000000 255 255 204
-0.098446 1.675834 -0.058899 0.000000 -1.000000 0.000000 255 255 204
-0.098446 1.748769 0.124493 0.000000 1.000000 -0.000000 254 254 204
0.084946 1.748769 0.124493 0.000000 1.000000 -0.000000 255 255 204
0.084946 1.748769 -0.058899 0.000000 1.000000 -0.000000 255 255 204
0.248615 1.250000 -0.215937 0.000000 -1.000000 0.000000 0 170 0
0.084946 1.748769 -0.058899 1.000000 -0.000000 0.000000 255 255 255
0.084946 1.748769 0.124493 0.000000 -0.000000 1.000000 255 255 204
-0.098446 1.748769 0.124493 -1.000000 0.000000 0.000000 255 255 204
-0.098446 1.748769 -0.058899 0.000000 0.000000 -1.000000 255 255 244
0.084946 1.675834 -0.058899 0.000000 -1.000000 0.000000 255 255 204
-0.098446 1.748769 -0.058899 0.000000 1.000000 0.000000 255 255 204
3 0 1 2
3 3 4 5
3 6 7 8
3 9 10 11
3 12 13 14
3 15 16 17
3 18 19 20
3 21 22 23
3 24 25 26
3 27 28 29
3 30 31 32
3 33 0 2
3 34 15 17
3 35 18 20
3 36 21 23
3 37 24 26
3 38 27 29
3 39 30 32
