ply
format ascii 1.0
comment Created by Blender 2.76 (sub 0) - www.blender.org, source file: 'vector_field.blend'
element vertex 18
property float x
property float y
property float z
property float nx
property float ny
property float nz
property uchar red
property uchar green
property uchar blue
element face 6
property list uchar uint vertex_indices
end_header
-0.001682 1.248987 -0.303129 0.000000 1.000000 0.000000 255 0 0
-0.292177 1.248987 -0.214045 0.000000 1.000000 0.000000 255 0 0
-0.001682 1.248987 -0.124961 0.000000 1.000000 0.000000 255 0 0
-0.023098 1.248987 -0.258838 0.000000 1.000000 0.000000 255 0 0
-0.023098 1.248987 -0.169754 0.000000 1.000000 0.000000 255 0 0
0.276705 1.248987 -0.169754 0.000000 1.000000 0.000000 170 170 170
0.278067 1.249493 -0.251947 -0.001823 0.999980 0.006134 170 170 169
-0.023098 1.248987 -0.258838 -0.001823 0.999980 0.006134 255 0 0
0.276705 1.248987 -0.169754 -0.001823 0.999980 0.006134 170 170 170
0.146053 1.250000 0.033331 0.000000 1.000000 0.000000 0 255 0
0.235137 1.250000 0.323825 0.000000 1.000000 0.000000 0 255 0
0.324221 1.250000 0.033331 0.000000 1.000000 0.000000 0 255 0
0.190345 1.250000 0.054747 0.000000 0.999999 -0.001652 0 255 0
0.279429 1.250000 0.054747 0.000000 0.999999 -0.001652 0 255 0
0.278067 1.249493 -0.251947 0.000000 0.999999 -0.001652 170 170 170
0.190345 1.248987 -0.253351 -0.005723 0.999978 -0.003289 170 170 170
0.190345 1.250000 0.054747 -0.005723 0.999978 -0.003289 0 255 0
0.278067 1.249493 -0.251947 -0.005723 0.999978 -0.003289 170 170 170
3 0 1 2
3 3 4 5
3 6 7 8
3 9 10 11
3 12 13 14
3 15 16 17
