ply
format ascii 1.0
comment Created by Blender 2.76 (sub 0) - www.blender.org, source file: 'yo.blend'
element vertex 72
property float x
property float y
property float z
property float nx
property float ny
property float nz
property uchar red
property uchar green
property uchar blue
element face 32
property list uchar uint vertex_indices
end_header
-0.905517 -0.094828 -0.879906 -0.961859 0.273548 -0.000000 22 22 22
-0.905517 -0.094828 0.843356 -0.961859 0.273548 -0.000000 22 22 22
-0.478925 1.405172 0.416763 -0.961859 0.273548 -0.000000 22 22 22
0.817744 -0.094828 0.843356 -0.000000 0.273547 0.961858 22 22 22
0.391152 1.405172 0.416763 -0.000000 0.273547 0.961858 22 22 22
-0.478925 1.405172 0.416763 -0.000000 0.273547 0.961858 22 22 22
-0.905517 -0.094828 -0.879906 0.000000 -1.000000 0.000000 22 22 22
0.817744 -0.094828 -0.879906 0.000000 -1.000000 0.000000 22 22 22
0.817744 -0.094828 0.843356 0.000000 -1.000000 0.000000 22 22 22
0.391152 1.405172 -0.453314 -0.000000 1.000000 0.000000 22 22 22
-0.478925 1.405172 -0.453314 -0.000000 1.000000 0.000000 49 49 49
-0.478925 1.405172 0.416763 -0.000000 1.000000 0.000000 72 72 72
0.435039 1.579574 0.435039 0.000000 -1.000000 0.000000 22 22 22
-0.435039 1.579574 0.435039 0.000000 -1.000000 0.000000 49 49 49
-0.435039 1.579574 -0.435039 0.000000 -1.000000 0.000000 72 72 72
-0.861631 3.079574 0.861631 0.000000 1.000000 -0.000000 22 22 22
0.861631 3.079574 0.861631 0.000000 1.000000 -0.000000 22 22 22
0.861631 3.079574 -0.861631 0.000000 1.000000 -0.000000 22 22 22
0.861631 3.079574 -0.861631 0.000000 -0.273548 -0.961858 22 22 22
0.435039 1.579574 -0.435039 0.000000 -0.273548 -0.961858 22 22 22
-0.435039 1.579574 -0.435039 0.000000 -0.273548 -0.961858 22 22 22
-0.861631 3.079574 -0.861631 -0.961858 -0.273548 -0.000000 22 22 22
-0.435039 1.579574 -0.435039 -0.961858 -0.273548 -0.000000 22 22 22
-0.435039 1.579574 0.435039 -0.961858 -0.273548 -0.000000 22 22 22
-0.861631 3.079574 0.861631 0.000000 -0.273548 0.961858 22 22 22
-0.435039 1.579574 0.435039 0.000000 -0.273548 0.961858 22 22 22
0.435039 1.579574 0.435039 0.000000 -0.273548 0.961858 22 22 22
0.861631 3.079574 0.861631 0.961858 -0.273548 0.000000 22 22 22
0.435039 1.579574 0.435039 0.961858 -0.273548 0.000000 22 22 22
0.435039 1.579574 -0.435039 0.961858 -0.273548 0.000000 22 22 22
-0.905517 -0.094828 -0.879906 0.000000 0.273547 -0.961858 22 22 22
-0.478925 1.405172 -0.453314 0.000000 0.273547 -0.961858 22 22 22
0.391152 1.405172 -0.453314 0.000000 0.273547 -0.961858 22 22 22
0.817744 -0.094828 -0.879906 0.961859 0.273547 0.000000 22 22 22
0.391152 1.405172 -0.453314 0.961859 0.273547 0.000000 22 22 22
0.391152 1.405172 0.416763 0.961859 0.273547 0.000000 22 22 22
0.363036 1.860328 0.363036 1.000000 0.000000 0.000000 238 0 0
0.363036 1.134255 0.363036 1.000000 0.000000 0.000000 238 0 0
0.363036 1.134255 -0.363036 1.000000 0.000000 0.000000 238 0 0
-0.363036 1.860328 0.363036 0.000000 -0.000000 1.000000 238 3 3
-0.363036 1.134255 0.363036 0.000000 -0.000000 1.000000 238 0 0
0.363036 1.134255 0.363036 0.000000 -0.000000 1.000000 238 0 0
-0.363036 1.860328 -0.363036 -1.000000 0.000000 0.000000 238 0 0
-0.363036 1.134255 -0.363036 -1.000000 0.000000 0.000000 238 0 0
-0.363036 1.134255 0.363036 -1.000000 0.000000 0.000000 238 0 0
0.363036 1.860328 -0.363036 0.000000 0.000000 -1.000000 238 0 0
0.363036 1.134255 -0.363036 0.000000 0.000000 -1.000000 238 0 0
-0.363036 1.134255 -0.363036 0.000000 0.000000 -1.000000 238 0 0
-0.478925 1.405172 -0.453314 -0.961858 0.273547 0.000000 22 22 22
-0.905517 -0.094828 -0.879906 -0.961858 0.273547 0.000000 22 22 22
-0.478925 1.405172 0.416763 -0.961858 0.273547 0.000000 22 22 22
-0.905517 -0.094828 0.843356 0.000000 0.273548 0.961859 22 22 22
0.817744 -0.094828 0.843356 0.000000 0.273548 0.961859 22 22 22
-0.478925 1.405172 0.416763 0.000000 0.273548 0.961859 22 22 22
-0.905517 -0.094828 0.843356 0.000000 -1.000000 0.000000 22 22 22
0.391152 1.405172 0.416763 -0.000000 1.000000 0.000000 22 22 22
0.435039 1.579574 -0.435039 0.000000 -1.000000 0.000000 22 22 22
-0.861631 3.079574 -0.861631 0.000000 1.000000 0.000000 22 22 22
-0.861631 3.079574 -0.861631 -0.000000 -0.273548 -0.961858 22 22 22
-0.861631 3.079574 0.861631 -0.961858 -0.273548 0.000000 22 22 22
0.861631 3.079574 0.861631 0.000000 -0.273548 0.961858 22 22 22
0.861631 3.079574 -0.861631 0.961858 -0.273548 0.000000 23 23 23
0.817744 -0.094828 -0.879906 0.000000 0.273547 -0.961859 22 22 22
-0.905517 -0.094828 -0.879906 0.000000 0.273547 -0.961859 22 22 22
0.391152 1.405172 -0.453314 0.000000 0.273547 -0.961859 22 22 22
0.817744 -0.094828 0.843356 0.961859 0.273548 -0.000000 23 23 23
0.817744 -0.094828 -0.879906 0.961859 0.273548 -0.000000 22 22 22
0.391152 1.405172 0.416763 0.961859 0.273548 -0.000000 22 22 22
0.363036 1.860328 -0.363036 1.000000 -0.000000 0.000000 238 0 0
0.363036 1.860328 0.363036 0.000000 -0.000000 1.000000 238 0 0
-0.363036 1.860328 0.363036 -1.000000 0.000000 0.000000 238 0 0
-0.363036 1.860328 -0.363036 0.000000 0.000000 -1.000000 238 0 0
3 0 1 2
3 3 4 5
3 6 7 8
3 9 10 11
3 12 13 14
3 15 16 17
3 18 19 20
3 21 22 23
3 24 25 26
3 27 28 29
3 30 31 32
3 33 34 35
3 36 37 38
3 39 40 41
3 42 43 44
3 45 46 47
3 48 49 50
3 51 52 53
3 54 6 8
3 55 9 11
3 56 12 14
3 57 15 17
3 58 18 20
3 59 21 23
3 60 24 26
3 61 27 29
3 62 63 64
3 65 66 67
3 68 36 38
3 69 39 41
3 70 42 44
3 71 45 47
