ply
format ascii 1.0
comment Created by Blender 2.76 (sub 0) - www.blender.org, source file: 'yo.blend'
element vertex 79
property float x
property float y
property float z
property float nx
property float ny
property float nz
property uchar red
property uchar green
property uchar blue
element face 32
property list uchar uint vertex_indices
end_header
-0.540307 -0.003199 -0.521695 -0.961858 0.273548 -0.000000 22 22 22
-0.540307 -0.003199 0.495134 -0.961858 0.273548 -0.000000 22 22 22
-0.288592 0.881892 0.243418 -0.961858 0.273548 -0.000000 22 22 22
0.476522 -0.003199 0.495134 -0.000000 0.273548 0.961859 22 22 22
0.224807 0.881892 0.243418 -0.000000 0.273548 0.961859 22 22 22
-0.288592 0.881892 0.243418 -0.000000 0.273548 0.961859 22 22 22
-0.540307 -0.003199 -0.521695 0.000000 -1.000000 0.000000 22 22 22
0.476522 -0.003199 -0.521695 0.000000 -1.000000 0.000000 22 22 22
0.476522 -0.003199 0.495134 0.000000 -1.000000 0.000000 22 22 22
0.224807 0.881892 -0.269980 -0.000000 1.000000 0.000000 22 22 22
-0.288592 0.881892 -0.269980 -0.000000 1.000000 0.000000 22 22 22
-0.288592 0.881892 0.243418 -0.000000 1.000000 0.000000 22 22 22
0.250702 0.984800 0.254202 0.000000 -1.000000 0.000000 22 22 22
-0.262696 0.984800 0.254202 0.000000 -1.000000 0.000000 22 22 22
-0.262696 0.984800 -0.259196 0.000000 -1.000000 0.000000 22 22 22
-0.514411 1.869891 0.505917 0.000000 1.000000 -0.000000 22 22 22
0.502418 1.869891 0.505917 0.000000 1.000000 -0.000000 22 22 22
0.502418 1.869891 -0.510912 0.000000 1.000000 -0.000000 22 22 22
0.502418 1.869891 -0.510912 0.000000 -0.273548 -0.961858 22 22 22
0.250702 0.984800 -0.259196 0.000000 -0.273548 -0.961858 22 22 22
-0.262696 0.984800 -0.259196 0.000000 -0.273548 -0.961858 22 22 22
-0.514411 1.869891 -0.510912 -0.961858 -0.273548 -0.000000 22 22 22
-0.262696 0.984800 -0.259196 -0.961858 -0.273548 -0.000000 22 22 22
-0.262696 0.984800 0.254202 -0.961858 -0.273548 -0.000000 22 22 22
-0.514411 1.869891 0.505917 0.000000 -0.273548 0.961858 22 22 22
-0.262696 0.984800 0.254202 0.000000 -0.273548 0.961858 22 22 22
0.250702 0.984800 0.254202 0.000000 -0.273548 0.961858 22 22 22
0.502418 1.869891 0.505917 0.961858 -0.273548 0.000000 22 22 22
0.250702 0.984800 0.254202 0.961858 -0.273548 0.000000 22 22 22
0.250702 0.984800 -0.259196 0.961858 -0.273548 0.000000 22 22 22
-0.540307 -0.003199 -0.521695 0.000000 0.273547 -0.961859 22 22 22
-0.288592 0.881892 -0.269980 0.000000 0.273547 -0.961859 22 22 22
0.224807 0.881892 -0.269980 0.000000 0.273547 -0.961859 22 22 22
0.476522 -0.003199 -0.521695 0.961859 0.273547 0.000000 22 22 22
0.224807 0.881892 -0.269980 0.961859 0.273547 0.000000 22 22 22
0.224807 0.881892 0.243418 0.961859 0.273547 0.000000 22 22 22
0.189356 1.150462 0.211716 1.000000 0.000000 0.000000 238 0 0
0.189356 0.722035 0.211716 1.000000 0.000000 0.000000 238 0 0
0.189356 0.722035 -0.216711 1.000000 0.000000 0.000000 238 0 0
-0.239071 1.150462 0.211716 0.000000 -0.000000 1.000000 218 4 4
-0.239071 0.722035 0.211716 0.000000 -0.000000 1.000000 238 0 0
0.189356 0.722035 0.211716 0.000000 -0.000000 1.000000 238 0 0
-0.239071 1.150462 -0.216711 -1.000000 0.000000 0.000000 238 0 0
-0.239071 0.722035 -0.216711 -1.000000 0.000000 0.000000 238 0 0
-0.239071 0.722035 0.211716 -1.000000 0.000000 0.000000 238 0 0
0.189356 1.150462 -0.216711 0.000000 0.000000 -1.000000 238 0 0
0.189356 0.722035 -0.216711 0.000000 0.000000 -1.000000 238 0 0
-0.239071 0.722035 -0.216711 0.000000 0.000000 -1.000000 238 0 0
-0.288592 0.881892 -0.269980 -0.961859 0.273548 0.000000 22 22 22
-0.540307 -0.003199 -0.521695 -0.961859 0.273548 0.000000 22 22 22
-0.288592 0.881892 0.243418 -0.961859 0.273548 0.000000 22 22 22
-0.540307 -0.003199 0.495134 0.000000 0.273548 0.961858 22 22 22
0.476522 -0.003199 0.495134 0.000000 0.273548 0.961858 22 22 22
-0.288592 0.881892 0.243418 0.000000 0.273548 0.961858 22 22 22
-0.540307 -0.003199 0.495134 0.000000 -1.000000 0.000000 22 22 22
0.224807 0.881892 0.243418 -0.000000 1.000000 0.000000 22 22 22
0.250702 0.984800 -0.259196 0.000000 -1.000000 0.000000 22 22 22
-0.514411 1.869891 -0.510912 0.000000 1.000000 0.000000 22 22 22
-0.514411 1.869891 -0.510912 -0.000000 -0.273548 -0.961859 22 22 22
0.502418 1.869891 -0.510912 -0.000000 -0.273548 -0.961859 22 22 22
-0.262696 0.984800 -0.259196 -0.000000 -0.273548 -0.961859 22 22 22
-0.514411 1.869891 0.505917 -0.961859 -0.273548 0.000000 22 22 22
-0.514411 1.869891 -0.510912 -0.961859 -0.273548 0.000000 22 22 22
-0.262696 0.984800 0.254202 -0.961859 -0.273548 0.000000 22 22 22
0.502418 1.869891 0.505917 0.000000 -0.273548 0.961859 22 22 22
-0.514411 1.869891 0.505917 0.000000 -0.273548 0.961859 22 22 22
0.250702 0.984800 0.254202 0.000000 -0.273548 0.961859 22 22 22
0.502418 1.869891 -0.510912 0.961859 -0.273548 0.000000 23 23 23
0.502418 1.869891 0.505917 0.961859 -0.273548 0.000000 22 22 22
0.250702 0.984800 -0.259196 0.961859 -0.273548 0.000000 22 22 22
0.476522 -0.003199 -0.521695 0.000000 0.273547 -0.961859 22 22 22
0.476522 -0.003199 0.495134 0.961859 0.273548 -0.000000 23 23 23
0.476522 -0.003199 -0.521695 0.961859 0.273548 -0.000000 22 22 22
0.224807 0.881892 0.243418 0.961859 0.273548 -0.000000 22 22 22
0.189356 1.150462 -0.216711 1.000000 -0.000000 0.000000 238 0 0
0.189356 1.150462 0.211716 0.000000 -0.000000 1.000000 238 0 0
-0.239071 1.150462 0.211716 0.000000 -0.000000 1.000000 238 3 3
-0.239071 1.150462 0.211716 -1.000000 0.000000 0.000000 238 0 0
-0.239071 1.150462 -0.216711 0.000000 0.000000 -1.000000 238 0 0
3 0 1 2
3 3 4 5
3 6 7 8
3 9 10 11
3 12 13 14
3 15 16 17
3 18 19 20
3 21 22 23
3 24 25 26
3 27 28 29
3 30 31 32
3 33 34 35
3 36 37 38
3 39 40 41
3 42 43 44
3 45 46 47
3 48 49 50
3 51 52 53
3 54 6 8
3 55 9 11
3 56 12 14
3 57 15 17
3 58 59 60
3 61 62 63
3 64 65 66
3 67 68 69
3 70 30 32
3 71 72 73
3 74 36 38
3 75 76 41
3 77 42 44
3 78 45 47
